/* XPM */
static char * back_xpm[] = {
"24 24 3 1",
" 	s None	c None",
".	c blue",
"X	c green",
"                        ",
"                        ",
"                        ",
"                        ",
"                        ",
"                        ",
"                        ",
"                        ",
"         .              ",
"        ..              ",
"       ...........      ",
"      ..XXXXXXXXX..     ",
"     ...XXXXXXXXX..     ",
"      .............     ",
"       ............     ",
"        ..              ",
"         .              ",
"                        ",
"                        ",
"                        ",
"                        ",
"                        ",
"                        ",
"                        "};
