/* XPM */
static char * book_open_xpm[] = {
"24 24 4 1",
" 	s None	c None",
".	c black",
"X	c #808080",
"o	c white",
"                        ",
"                        ",
"                        ",
"                        ",
"                        ",
"      ..                ",
"     .Xo.    ...        ",
"     .Xoo. ..oo.        ",
"     .Xooo.Xooo...      ",
"     .Xooo.oooo.X.      ",
"     .Xooo.Xooo.X.      ",
"     .Xooo.oooo.X.      ",
"     .Xooo.Xooo.X.      ",
"     .Xooo.oooo.X.      ",
"      .Xoo.Xoo..X.      ",
"       .Xo.o..ooX.      ",
"        .X..XXXXX.      ",
"        ..X.......      ",
"         ..             ",
"                        ",
"                        ",
"                        ",
"                        ",
"                        "};
