/* XPM */
static char * book_closed_xpm[] = {
"24 24 6 1",
" 	s None	c None",
".	c black",
"X	c red",
"o	c yellow",
"O	c white",
"+	c #808080",
"                        ",
"                        ",
"                        ",
"                        ",
"                        ",
"           ..           ",
"         ..XX.          ",
"       ..XXXXX.         ",
"     ..XXXXXXXX.        ",
"    .ooXXXXXXXXX.       ",
"    ..ooXXXXXXXXX.      ",
"    .X.ooXXXXXXXXX.     ",
"    .XX.ooXXXXXX..      ",
"     .XX.ooXXX..O+      ",
"      .XX.oo..OO++.     ",
"       .XX..OO++..      ",
"        .X.O++..        ",
"         ..+..          ",
"          ..            ",
"                        ",
"                        ",
"                        ",
"                        ",
"                        "};
