/* XPM */
static char * borders_xpm[] = {
"24 24 3 1",
" 	s None	c None",
".	c black",
"X	c white",
"                        ",
"                        ",
"                        ",
"                        ",
"                        ",
"     ..............     ",
"     ..............     ",
"     ..XXXXXXXXXX..     ",
"     ..XXXXXXXXXX..     ",
"     ..XXXXXXXXXX..     ",
"     ..XXXXXXXXXX..     ",
"     ..XXXXXXXXXX..     ",
"     ..XXXXXXXXXX..     ",
"     ..XXXXXXXXXX..     ",
"     ..XXXXXXXXXX..     ",
"     ..XXXXXXXXXX..     ",
"     ..XXXXXXXXXX..     ",
"     ..............     ",
"     ..............     ",
"                        ",
"                        ",
"                        ",
"                        ",
"                        "};
