/* XPM */
static char * cancel_xpm[] = {
"24 24 3 1",
" 	s None	c None",
".	c black",
"X	c red",
"                        ",
"                        ",
"                        ",
"                        ",
"                        ",
"         ......         ",
"        .XXXXXX.        ",
"       .XXXXXXXX.       ",
"      .XXXXXXXXXX.      ",
"     .X X   X X  X.     ",
"     . XXX X X  X .     ",
"     .X XX X X  X .     ",
"     .XX X X X   X.     ",
"     . X X X X  XX.     ",
"     .X XX XX X XX.     ",
"      .XXXXXXXXXX.      ",
"       .XXXXXXXX.       ",
"        .XXXXXX.        ",
"         ......         ",
"                        ",
"                        ",
"                        ",
"                        ",
"                        "};
