/* XPM */
static char * center_xpm[] = {
"24 24 6 1",
" 	s None	c None",
".	c red",
"X	c #808080",
"o	c white",
"O	c #c0c0c0",
"+	c black",
"                        ",
"                        ",
"                        ",
"                        ",
"          ...           ",
"         . . .          ",
"      XXXXX.XXX         ",
"      Xoooo.ooOX        ",
"      Xoooo.ooOoX       ",
"     .Xooooooo++++.     ",
"    . XoooooooooO+ .    ",
"    .....oooooo.....    ",
"    . XoooooooooO+ .    ",
"     .XoooooooooO+.     ",
"      XoooooooooO+      ",
"      Xoooo.ooooO+      ",
"      XOOOO.OOOOO+      ",
"      +++++.++++++      ",
"         . . .          ",
"          ...           ",
"                        ",
"                        ",
"                        ",
"                        "};
