/* XPM */
static char * C_compress_file_xpm[] = {
"32 32 5 1",
" 	s None	c None",
".	c white",
"X	c gray",
"o	c black",
"O	c magenta",
"                                ",
"    .....................       ",
"    .XXXXXXXXXooooXXXXX.Xo      ",
"    .XXXXXXXXXOOoooXXXX.XXo     ",
"    .XXXXXXXXoooooOXXXX.XXXo    ",
"    .XXXXXXXXOOOoooXXXX.oooo    ",
"    .XXXXXXXXoooooOXXXXXXXXo    ",
"    .XXXXXXXXOOOoooXXXXXXXXo    ",
"    .XXXXXXXXoooooOXXXXXXXXo    ",
"    .XXXXXXooooooooooXXXXXXo    ",
"    .XXXXXoOOoOOOOoOOoXXXXXo    ",
"    .XXXXXoOOoOOOOoOOoXXXXXo    ",
"    .XXXXXooooooooooooXXXXXo    ",
"    .XXXXoXXXXXooooooooXXXXo    ",
"    .XXXooooooooooooooooXXXo    ",
"    .XXXooooooooooooooooXXXo    ",
"    .XXXXooooooooooooooXXXXo    ",
"    .XXXXXooooooooooooXXXXXo    ",
"    .XXXXXoOOoOOOOoOOoXXXXXo    ",
"    .XXXXXoOOoOOOOoOOoXXXXXo    ",
"    .XXXXXXooooooooooXXXXXXo    ",
"    .XXXXXXXXoooooOXXXXXXXXo    ",
"    .XXXXXXXXOOOoooXXXXXXXXo    ",
"    .XXXXXXXXoooooOXXXXXXXXo    ",
"    .XXXXXXXXOOOoooXXXXXXXXo    ",
"    .XXXXXXXXoooooOXXXXXXXXo    ",
"    .XXXXXXXXXOOoooXXXXXXXXo    ",
"    .XXXXXXXXXooooXXXXXXXXXo    ",
"    .XXXXXXXXXXXXXXXXXXXXXXo    ",
"    .XXXXXXXXXXXXXXXXXXXXXXo    ",
"    .ooooooooooooooooooooooo    ",
"                                "};
