/* XPM */
static char * copy_xpm[] = {
"24 24 4 1",
" 	s None	c None",
".	c black",
"X	c white",
"o	c blue",
"                        ",
"                        ",
"                        ",
"                        ",
"                        ",
"     .....              ",
"     .XXX..             ",
"     .XXX.X.            ",
"     .XXX....           ",
"     .XXXXXooooo        ",
"     .XXXXXoXXXoo       ",
"     .XXXXXoXXXoXo      ",
"     .XXXXXoXXXoooo     ",
"     .XXXXXoXXXXXXo     ",
"     ......oXXXXXXo     ",
"           oXXXXXXo     ",
"           oXXXXXXo     ",
"           oXXXXXXo     ",
"           oooooooo     ",
"                        ",
"                        ",
"                        ",
"                        ",
"                        "};
