/* XPM */
static char * copyright_xpm[] = {
"24 24 3 1",
" 	s None	c None",
".	c black",
"X	c white",
"                        ",
"                        ",
"                        ",
"                        ",
"                        ",
"          ....          ",
"        ..XXXX..        ",
"       .XXXXXXXX.       ",
"      .XXX....XXX.      ",
"     .XXX..XX..XXX.     ",
"     .XX..XXXXXXXX.     ",
"     .XX..XXXXXXXX.     ",
"     .XX..XXXXXXXX.     ",
"     .XX..XXXXXXXX.     ",
"     .XXX..XX..XXX.     ",
"      .XXX....XXX.      ",
"       .XXXXXXXX.       ",
"        ..XXXX..        ",
"          ....          ",
"                        ",
"                        ",
"                        ",
"                        ",
"                        "};
