/* XPM */
static char * cut_xpm[] = {
"24 24 3 1",
" 	s None	c None",
".	c black",
"X	c blue",
"                        ",
"                        ",
"                        ",
"                        ",
"                        ",
"        .     .         ",
"        .     .         ",
"         .   .          ",
"         .   .          ",
"          . .           ",
"          . .           ",
"           .            ",
"           .            ",
"       XXXX XXXX        ",
"      X   X X   X       ",
"      X   X X   X       ",
"      X   X X   X       ",
"      X   X  XXX        ",
"       XXX              ",
"                        ",
"                        ",
"                        ",
"                        ",
"                        "};
