/* XPM */
static char * linux_data_xpm[] = {
/* width height ncolors chars_per_pixel */
"32 32 5 1",
/* colors */
" 	s None	c None",
".	c black",
"X	c white",
"o	c gray",
"O	c blue",
/* pixels */
"    ..................          ",
"    .XXXXXXXXXXXXXXXX..         ",
"    .XXXXXXXXXXXXXXXX.o.        ",
"    .XXXXXXXXXXXXXXXX.oo.       ",
"    .XXXXXXXXXXXXXXXX.ooo.      ",
"    .XXXXXXXXXXXXXXXX.oooo.     ",
"    .XXXXXXXXXXXXXXXX.......    ",
"    .XXXXXXXXXXXXXXXXXooooo..   ",
"    .XXXXOOXXXXOXXXXOXXoooo..   ",
"    .XXXOXXOXXOOXXXOOXXXXXX..   ",
"    .XXXOXXOXXXOXXXXOXXXXXX..   ",
"    .XXXXOOXXXOOOXXOOOXXXXX..   ",
"    .XXXXXXXXXXXXXXXXXXXXXX..   ",
"    .XXXXXXXXXXXXXXXXXXXXXX..   ",
"    .XXXXOXXXXOOXXXXOOXXXXX..   ",
"    .XXXOOXXXOXXOXXOXXOXXXX..   ",
"    .XXXXOXXXOXXOXXOXXOXXXX..   ",
"    .XXXOOOXXXOOXXXXOOXXXXX..   ",
"    .XXXXXXXXXXXXXXXXXXXXXX..   ",
"    .XXXXXXXXXXXXXXXXXXXXXX..   ",
"    .XXXXOOXXXXOXXXXOOXXXXX..   ",
"    .XXXOXXOXXOOXXXOXXOXXXX..   ",
"    .XXXOXXOXXXOXXXOXXOXXXX..   ",
"    .XXXXOOXXXOOOXXXOOXXXXX..   ",
"    .XXXXXXXXXXXXXXXXXXXXXX..   ",
"    .XXXXXXXXXXXXXXXXXXXXXX..   ",
"    .XXXXXXXXXXXXXXXXXXXXXX..   ",
"    .XXXXXXXXXXXXXXXXXXXXXX..   ",
"    .XXXXXXXXXXXXXXXXXXXXXX..   ",
"    .XXXXXXXXXXXXXXXXXXXXXX..   ",
"    .........................   ",
"     ........................   "};
