/* XPM */
static char * egon_xpm[] = {
"32 32 4 1",
" 	c None",
".	c black",
"X	c #FFFFB2CAB2CA",
"o	c #30C29A69CF3C",
"                                ",
"                                ",
"             .......            ",
"          ...XXXXXXX...         ",
"        ..XXXXXXXXXXXXX..       ",
"       .XXXXXXXXXXXXXXXXX.      ",
"      .XXXXXXXXXXXXXXXXXXX.     ",
"     .XXXXXXXXXXXXXXXXXXXXX.    ",
"    .XXXXXXXXXXXXXXXX.X.X.XX.   ",
"    .XXXXXXXXXXXXXXX. . . .X.   ",
"   .XXXXXXXXXXXXXXX. . o . .X.  ",
"   .XXXXXX.XXXXXXX. . ooooo ..  ",
"   .XXXXX.XX.XXXX. . oooo oo .  ",
"   .XXXX.XX.XXXXXX. oooooo o..  ",
"   .XXX.XX.XXXXXX. . ooooooo .  ",
"   .XX.XX.XXXXXXXX. oooooooo..  ",
"   .XXX.XX.XXXXXX. . ooooooo .  ",
"   .XXXX.XX...XXXX. . ooooo ..  ",
"    .XXXX.XXXX.XXXX. . o . ..   ",
"    .XXXXX.XXXX.XXXX. . . .X.   ",
"     .XXXX..XXX.XXXXX.X.X.X.    ",
"      .XX.XXXX.XXXXXXXXXXX.     ",
"       .XX.XX.XXXXXXXXXXX.      ",
"        ..X..XXXXXXXXXX..       ",
"          .XXXXXXXXX...         ",
"           .XXXX....            ",
"            .XX.XX.             ",
"            .XX.XX.             ",
"            .XX..... ..         ",
"            .X.XXXXX..X..       ",
"           .XXXXXXXXXX.XX.      ",
"          .............X..      "};
