/* XPM */
static char * fld_open_xpm[] = {
"24 24 6 1",
" 	s None	c None",
".	c #808080",
"X	c white",
"o	c yellow",
"O	c #c0c0c0",
"+	c black",
"                        ",
"                        ",
"                        ",
"                        ",
"       .....            ",
"      .XXXXX.           ",
"     .XoOoOoX......     ",
"     .XOoOoOoXXXXX.+    ",
"     .XoOoOoOoOoOo.+    ",
"     .XOoOoOoOoOoO.+    ",
"    .............o.+    ",
"    .XXXXXXXXXX.+O.+    ",
"    .XOoOoOoOoOo+..+    ",
"     .XOoOoOoOoO.+.+    ",
"     .XoOoOoOoOoO+.+    ",
"     .XOoOoOoOoOo+.+    ",
"      .XOoOoOoOoO.++    ",
"      ............++    ",
"       +++++++++++++    ",
"                        ",
"                        ",
"                        ",
"                        ",
"                        "};
