/* XPM */
static char * fld_new_xpm[] = {
"24 24 7 1",
" 	s None	c None",
".	c red",
"X	c #808080",
"o	c #c0c0c0",
"O	c yellow",
"+	c white",
"@	c black",
"                        ",
"                        ",
"                        ",
"                        ",
"                .       ",
"      XXXXX   . . .     ",
"     XoOoOoX   ...      ",
"    XoOoOoOoX.......    ",
"    X++++++++++...@     ",
"    X+OoOoOoOo.o.X.     ",
"    X+oOoOoOoOoO.X@     ",
"    X+OoOoOoOoOoOX@     ",
"    X+oOoOoOoOoOoX@     ",
"    X+OoOoOoOoOoOX@     ",
"    X+oOoOoOoOoOoX@     ",
"    X+OoOoOoOoOoOX@     ",
"    X+oOoOoOoOoOoX@     ",
"    XXXXXXXXXXXXXX@     ",
"     @@@@@@@@@@@@@@     ",
"                        ",
"                        ",
"                        ",
"                        ",
"                        "};
