/* XPM */
static char * fld_up_xpm[] = {
"24 24 7 1",
" 	s None	c None",
".	c #808080",
"X	c #c0c0c0",
"o	c yellow",
"O	c white",
"+	c black",
"@	c red",
"                        ",
"                        ",
"                        ",
"                        ",
"                        ",
"      .....             ",
"     .XoXoX.            ",
"    .XoXoXoX......      ",
"    .OOOOOOOOOOOO.+     ",
"    .OoXoX@@oXoXo.+     ",
"    .OXoX@@@@oXoX.+     ",
"    .OoX@X@@o@oXo.+     ",
"    .OXoXo@@XoXoX.+     ",
"    .OoXoX@@oXoXo.+     ",
"    .OXoXo@@XoXoX.+     ",
"    .OoXoX@@oXoXo.+     ",
"    .OXoXo@@XoXoX.+     ",
"    ..............+     ",
"     ++++++++++++++     ",
"                        ",
"                        ",
"                        ",
"                        ",
"                        "};
