/* XPM */
static char * win31_fonts_xpm[] = {
/* width height num_colors chars_per_pixel */
"32 32 6 1",
/* colors */
" 	s None	c None",
".	c black",
"X	c blue",
"o	c SlateGray",
"O	c red",
"+	c #c0c0c0",
/* pixels */
"             ....    ..         ",
"            .XXXX.  .XX.        ",
"           .XXXXXX...XXX...     ",
"           .X..XXX.oo.XXXX.o    ",
"           ..oo.XX.o  .XX.oo    ",
"           .oo .XX.o   ..oo     ",
"           .o  .XX.o  ....      ",
"            .  .XX.o .XXXX.     ",
"             o .XX.o...XXXX.    ",
"               .X.oo oo.XXX.o   ",
"        .      ....     .XX.o   ",
"       .O.     .XXX.    .X.oo   ",
"       .O.o   .XXXXX..  ..oo    ",
"      .OOO.  ...XXXXXX...oo     ",
"      .OOO.o. oo..XXXXX.oo      ",
"     .O.OOO. o   o.....oo       ",
"     .O.OOO.o      oooo....  .. ",
"    .O.o.OOO.        ..++++..+.o",
"    .O.o.OOO.o      .+++...+++.o",
"   .O.oo .OOO.     .+++.ooo.++.o",
"   .O.o  .OOO.o    .++.oo   .+.o",
"  .OO......OOO.   .+++.o     ..o",
"  .OOOOOOOOOOO.o  .+++.o      oo",
" .O.........OOO.  .+++.o        ",
" .O.ooooooo.OOO.o .+++.o        ",
".O.oo       .OOO. .+++.o        ",
"...o        .....o .++.o     .. ",
" ooo         ooooo .+++.    .+.o",
"                    .+++....+.oo",
"                     ..+++++.oo ",
"                      o.....oo  ",
"                        ooooo   "};
