/* XPM */
static char * C_ghost_xpm[] = {
"32 32 7 1 0 0",
" 	s None	c None",
".	c gray",
"X	c cyan",
"o	c blue",
"O	c white",
"+	c black",
"@	c red",
"                   .....        ",
"            .................   ",
"          ....................  ",
"         .........XXXXXX....... ",
"        .......XXXXXXXXXXX......",
"       .....XXXXXoooooooXXX.....",
"       ....XXXXooooooooooXXX....",
"       ...XXXooooOOOOooooXXX....",
"      ....XXXoooOOOOOooooXXX....",
"     ....XXXoooOOOOOoooXXXX.... ",
"     ....XXooooOOOOooooXXXX.... ",
"   ....XXXXoooOOOOOOOooXXXX.... ",
"  ....XXXXXoooOOOOOOOoooXXX...  ",
" ...XXXoooooooOOO++O+OoooXX..   ",
" ..XXXXoooooooOOOOOOOOoooXX..   ",
"...XXooooOOOOoOOOOOOOOoooXX..   ",
"...XXoooOOOOOOOOOO@@OOooXXX..   ",
"...XXooOOO+OOOOOOOOOOooXX....   ",
"...XXooOO+OOOOOOOOOooooXX....   ",
"...XXooooOOOOOOOOOOOoooXXXX...  ",
"...XXooooOOOOOOOOOOOoooXXXX...  ",
"..XXoooooOOOOOOOOOOOOoooXXX...  ",
".XXoooOooOOOOOOOOooOOOooXXX...  ",
".XXooOOooOOOOOOOOooOOoooXX....  ",
".XXooOOOOOOOOOOOoooooooXXX...   ",
".XXXooOOOOoooooooXXXXXXXX....   ",
".XXXXooooooXXXXXXXXXXXXX....    ",
"....XXXXXXXXXXXX...........     ",
".....XXXXXXXX.............      ",
" ...................            ",
"  ..............                ",
"                                "};
