/* XPM */
static char * handlebg_xpm[] = {
"6 4 3 1",
" 	c black",
".	s None	c None",
"X	c white",
" .....",
"......",
"..X...",
"... .X"};
