/* XPM */
static char * home_xpm[] = {
"24 24 5 1",
" 	s None	c None",
".	c black",
"X	c red",
"o	c yellow",
"O	c blue",
"                        ",
"                        ",
"                        ",
"                        ",
"                        ",
"           .. ...       ",
"          .....X.       ",
"         ..oo..X.       ",
"        ..oooo...       ",
"       ..oooooo..       ",
"      ..oooooooo..      ",
"     ..oooooooooo..     ",
"    ...ooo....ooo...    ",
"      .ooo.OO.ooo.      ",
"      .ooo.OO.ooo.      ",
"      .ooo.OO.ooo.      ",
"      .ooo.OO.ooo.      ",
"      .ooo.OO.ooo.      ",
"      ............      ",
"                        ",
"                        ",
"                        ",
"                        ",
"                        "};
