/* XPM */
static char * icons_xpm[] = {
/* width height ncolors chars_per_pixel */
"24 24 11 1",
/* colors */
" 	c dark slate grey",
".	s None	c None",
"X	c white",
"o	c tomato",
"O	c grey",
"+	c firebrick",
"@	c black",
"#	c slate grey",
"$	c sea green",
"%	c navy",
"&	c dodger blue",
/* pixels */
"........................",
"..             .........",
".. XXXXXXXXXX X ........",
".. XXXXXXXXXX XX .......",
".. XXXXXXXXXX XXX ......",
".. XoooooooOX XXXX .....",
".. Xooooooo+X@ @ @ @....",
".. Xooooooo+X@@@@@@@....",
".. Xooooooo+XXX####@....",
".. Xooooo$$$$OXX###@....",
".. Xoooo$XXO$$OXXX#@....",
".. XOoo$XO$$$$ XXO#@....",
".. XO++$O$$$$$ XO%#@....",
".. XXXX$$$$$$$ O&%#@....",
".. XXXX $$$$$# &&%#@....",
".. XXXXO $$$# &&&%#@....",
".. XXXXXO    &&&&%#@....",
".. XXXXXXXXO&&&&&%#@....",
".. XXXXXXXO&&&&&&%#@....",
".. XXXXXXO%%%%%%%%#@....",
".. XXXXXXXXXXXXXXX#@....",
"..  ############## @....",
"....@@@@@@@@@@@@@@@@....",
"........................"};
