/* XPM */
static char * image_xpm[] = {
/* width height ncolors chars_per_pixel */
"32 32 9 1",
/* colors */
" 	s None	c None",
".	c black",
"X	c yellow",
"o	c magenta",
"O	c white",
"+	c green",
"@	c red",
"#	c blue",
"$	c cyan",
/* pixels */
"                                ",
"         .....                  ",
"       ..XXXXX..                ",
"      .XXXXXXXXX.               ",
"     .XXXXXXXXXXX.              ",
"    .XXXXoooo.XXXX.             ",
"   .XXXXXooOOoo.XXX.          . ",
"  .XXXXXX.oooOoo.XX.         .O.",
"  .XXXXXX.oooooo..XX.       .O. ",
" .XXXXXXXX...o....XX.        .  ",
"..XXXXXXXX........XXX.     .    ",
".XXXX++..XXX.....XXXXX.   .O.   ",
".XXX+O+++.XXXXXXXXXXXXX. .O.    ",
".XX.O++++...XXXXXXXXXXX.@O.     ",
".XX.++++....XXXXXXX....@@ ..    ",
".XX........XXXXXXX.   @@ .XX.   ",
".XX.......XXXXXXX. O @@ .XXXX.  ",
".XXX....XXXXXXXXX.  @@  .XXXX.  ",
"..XXXXXXXXXXXXXXX. @@  O.XXXXX. ",
" .XXXXX@@@@.XXXXXX.   O.XXXXXX. ",
"  .XXX@@OO@..XXXXXX....XXXXXXX. ",
"  .XXX@O@@@@.XXXXXXXXXXXXXXXXX. ",
"   .XX.@@@@...XXXXXXXXXXXXXXXX. ",
"   .XX........XXX###XXXXXXXXXX. ",
"    .XX......XX##$$###XXXXXXX.  ",
"     .XX...XXX#$$$###..XXXXXX.  ",
"      .XXXXXXX#######..XXXXX.   ",
"       ..XXXXX#.###...XXXXX.    ",
"         ..XXXX.....XXXXX..     ",
"           ...XXXXXXXXX..       ",
"             ...........        ",
"                                "};
