/* XPM */
static char * info_xpm[] = {
"24 24 3 1",
" 	s None	c None",
".	c red",
"X	c black",
"                        ",
"                        ",
"                        ",
"                        ",
"                        ",
"           ..           ",
"          ....          ",
"          ....          ",
"           ..           ",
"                        ",
"        XXXXXX          ",
"        XXXXXX          ",
"          XXXX          ",
"          XXXX          ",
"          XXXX          ",
"          XXXX          ",
"       XXXXXXXXXX       ",
"       XXXXXXXXXX       ",
"       XXXXXXXXXX       ",
"                        ",
"                        ",
"                        ",
"                        ",
"                        "};
