/* XPM */
static char *toys[] = {
/* width height num_colors chars_per_pixel */
"   25    18       20            1",
/* colors */
". c #000000",
"# c #0000ff",
"a c #00373c",
"b c #008000",
"c c #008080",
"d c #00ff00",
"e c #222222",
"f c #333366",
"g c #444444",
"h c #6666cc",
"i c #7f7f7f",
"j c #800000",
"k c #808000",
"l c #808080",
"m c #9999ff",
"n c None",
"o c #ff0000",
"p c #ff6633",
"q c #ffff00",
"r c #ffffff",
/* pixels */
"nnnnnnnnnnnnnnnnnnnnnnnnn",
"nnnnnnnnnnnnnnnnnnnnnnnnn",
"nnnnnnnnnnnnnnnnnnnnnnnnn",
"nnnkkkannnnnnnnnnnnnnnnnn",
"nnnpqqennnnnirror#romnnnn",
"nnnpqqennnnni#rrrrrr#nnnn",
"nnnpqqennnnnirribrrrmnnnn",
"nkrqqqkpennniorbbrrronnnn",
"nnkrqqpennnnirrrrrrrmnnnn",
"nnnkrpenniffi#rrnrir#heen",
"nnnnkknnaefhirrrnrnrmeeen",
"nnnnnnnnhhhhhhhhhhhheeeen",
"nnnnnnnnhhhhhhhhhfhfeefin",
"nnnnnnnnhhfhfhfhfhfhefinn",
"nnnnnnnnnnnnnnnnnnnnnnnnn",
"nnnnnnnnnnnnnnnnnnnnnnnnn",
"nnnnnnnnnnnnnnnnnnnnnnnnn",
"nnnnnnnnnnnnnnnnnnnnnnnnn",
};
