/* XPM */
static char * linux_netscape_xpm[]={
/* width height num_colors chars_per_pixel */
"    31    26       30            1",
/* colors */
". c #ffffff",
"# c #000000",
"a c #99cccc",
"b c #999999",
"c c #333333",
"d c #99ccff",
"e c #003333",
"f c #003300",
"g c #006699",
"h c #003366",
"i c #006666",
"j c #006633",
"k c #336666",
"l c #333366",
"m c #336699",
"n c #339999",
"o c #336633",
"p c #cccccc",
"q c #99cc99",
"r c #9999cc",
"s c #339966",
"t c #66cccc",
"u c #669999",
"v c #009999",
"w c #3399cc",
"x c #0099cc",
"y c #663333",
"z c #666666",
"A c #330033",
"B c #333300",
/* pixels */
"ddddddddddddddddddddddddddddddc",
"deeeeeeefeeeeefeeeefeeeefeeeegc",
"defeeeeeeeeeeeeeeeeeeeeeeeefegc",
"deeheeeeheeeeeheeeeheeeeheehegc",
"deeiehieeiheiehjhhjheiheieieigc",
"deheiek....jlieiljm....nhohhjgc",
"dejliiihk..pihihjihi.ahjhiicigc",
"deijhieii...aiiiiijh.qhiiieiigc",
"dehiiiiig.r..riigigi.riihiihjgc",
"deiiiigii.sm..rigiii.tiiiiiiigc",
"deiigigig.niu..tigii.bigigigigc",
"deigigiig.uigu..riig.qgigigiigc",
"deiiigvgn.ngvia..tig.aiggvigivc",
"devgvggvg.uvggga..tg.pvivgvggvc",
"degvgvggn.ngvvgga..n.aggvggvggc",
"devgvgvvv.wxnxwvxd...dnvgvvgvgc",
"degvvwxnw.unkmkmkkr..unxwvvvgvc",
"dexngkcey.z##########c#commnxgc",
"deoAf##c...bc#############BAogc",
"de###########################vc",
"de###########################gc",
"de###########################gc",
"de###########################vc",
"de###########################gc",
"de###########################gc",
"dcccccccccccccccccccccccccccccc"
};
