/* XPM */
static char * new_xpm[] = {
"24 24 5 1",
" 	s None	c None",
".	c #808080",
"X	c white",
"o	c #c0c0c0",
"O	c black",
"                        ",
"                        ",
"                        ",
"                        ",
"     ..........         ",
"     .XXXXXXXXo.        ",
"     .XXXXXXXXoX.       ",
"     .XXXXXXXXOOOO      ",
"     .XXXXXXXXXXoO      ",
"     .XXXXXXXXXXoO      ",
"     .XXXXXXXXXXoO      ",
"     .XXXXXXXXXXoO      ",
"     .XXXXXXXXXXoO      ",
"     .XXXXXXXXXXoO      ",
"     .XXXXXXXXXXoO      ",
"     .XXXXXXXXXXoO      ",
"     .XXXXXXXXXXoO      ",
"     .XXXXXXXXXXoO      ",
"     .oooooooooooO      ",
"     OOOOOOOOOOOOO      ",
"                        ",
"                        ",
"                        ",
"                        "};
