/* XPM */
static char * next_xpm[] = {
"24 24 4 1",
" 	s None	c None",
".	c white",
"X	c black",
"o	c blue",
"                        ",
"                        ",
"                        ",
"                        ",
"                        ",
"     ..           X     ",
"     .o..         X     ",
"     .ooo..       X     ",
"     .ooooo..     X     ",
"     .ooooooo..   X     ",
"     .ooooooooo.. X     ",
"     .ooooooooooo.X     ",
"     .oooooooooooXX     ",
"     .oooooooooXX X     ",
"     .oooooooXX   X     ",
"     .oooooXX     X     ",
"     .oooXX       X     ",
"     .oXX         X     ",
"     .X           X     ",
"                        ",
"                        ",
"                        ",
"                        ",
"                        "};
