/* XPM */
static char * plotter_xpm[] = {
"24 24 4 1",
" 	s None	c None",
".	c black",
"X	c blue",
"o	c red",
"                        ",
"                        ",
"                        ",
"                        ",
"                        ",
"     .                  ",
"     . XXXX             ",
"     .X    X            ",
"     .      XX    X     ",
"     .        XXXX      ",
"     . o                ",
"     . o                ",
"     . o     o          ",
"     . o o   o          ",
"     . o o o o          ",
"     . o o o o o o      ",
"     . o o o o o o      ",
"     . o o o o o o      ",
"     ..............     ",
"                        ",
"                        ",
"                        ",
"                        ",
"                        "};
