/* XPM */
static char * portrait_xpm[] = {
"24 24 5 1",
" 	s None	c None",
".	c #808080",
"X	c white",
"o	c #c0c0c0",
"O	c black",
"                        ",
"                        ",
"                        ",
"                        ",
"      .........         ",
"      .XXXXXXXo.        ",
"      .XXXXXXXoX.       ",
"      .XOOOOOXOOOO      ",
"      .XXXXXXXXXoO      ",
"      .XXXXXXXXXoO      ",
"      .XOOOOOOOXoO      ",
"      .XXXXXXXXXoO      ",
"      .XXXXXXXXXoO      ",
"      .XOOOOOOOXoO      ",
"      .XXXXXXXXXoO      ",
"      .XXXXXXXXXoO      ",
"      .XOOOOOOOXoO      ",
"      .XXXXXXXXXoO      ",
"      .ooooooooooO      ",
"      OOOOOOOOOOOO      ",
"                        ",
"                        ",
"                        ",
"                        "};
