/* XPM */
static char * preview_xpm[] = {
"24 24 3 1 4 4",
" 	s None	c None",
".	c black",
"X	c cyan",
"                        ",
"                        ",
"                        ",
"                        ",
"      .......           ",
"     ....X....          ",
"    ...XXXXX...         ",
"    ..XXXXXXX..         ",
"    ..XXXXXXX..         ",
"    .XXXXXXXX..         ",
"    ..XXXXXXX..         ",
"    ..XXXXXXX..         ",
"    ...XXXXX...         ",
"     ..........         ",
"      ..........        ",
"              ...       ",
"               ...      ",
"                ..      ",
"                        ",
"                        ",
"                        ",
"                        ",
"                        ",
"                        "};
