/* XPM */
static char * printer_xpm[] = {
"24 24 4 1",
" 	s None	c None",
".	c black",
"X	c white",
"o	c yellow",
"                        ",
"                        ",
"                        ",
"                        ",
"                        ",
"        ..........      ",
"       .XXXXXXX.XX.     ",
"       .X....X..XX.     ",
"      .XXXXXXX.XXX.     ",
"      .X..X..X.....     ",
"      .XXXXXXX.         ",
"     ............       ",
"     .oooooooooo.       ",
"     .oooo..o..o..      ",
"     .oooooooooo..      ",
"     .oooooooooo..      ",
"     .oooooooooo..      ",
"     .oooooooooo.       ",
"     ............       ",
"                        ",
"                        ",
"                        ",
"                        ",
"                        "};
