/* XPM */
static char * pw_xpm[] = {
"32 32 10 1",
" 	c None",
".	c black",
"X	c white",
"o	c #BEFBBEFBBEFB",
"O	c #2CB28A285555",
"+	c #FFFFD75C0000",
"@	c #FFFFA6990000",
"#	c #2CB24D344D34",
"$	c #EFBE8207EFBE",
"%	c #8617CF3CEBAD",
"   ....................         ",
"   .XXXXXXXXXXXXXXXXX...        ",
"   .XXXXXXXXXXXXXXXXX.o..       ",
"   .XOOOOOOOOOOOOOOOO.oo..      ",
"   .XO+++++++++++++++.ooo..     ",
"   .XO+++++++++++++++.oooo..    ",
"   .XO+++++++++++++++.ooooo.    ",
"   .XO+++++++++++++++.......    ",
"   .XO++++++++++++++++@@@Oo.    ",
"   .XOOOOOOOOOOOOOOOOOOOOOo.    ",
"   .XXXXXXXXXXXXXXXXXXXXXXX.    ",
"   .X..........X..........X.    ",
"   .XXXXXXXXXXXXXXXXXXXXXXX.    ",
"   .X..........XOOOOOOOOOOX.    ",
"   .XXXXXXXXXXXXO#$$$$$$#OX.    ",
"   .X..........XO$#$$$$#$OX.    ",
"   .XXXXXXXXXXXXO$$#$$#$$OX.    ",
"   .XOOOOOOOOOOXO$$$##$$$OX.    ",
"   .XO%#%#%##%OXO$$$##$$$OX.    ",
"   .XO#%%%%%%#OXO$$#$$#$$OX.    ",
"   .XO#%....%%OXO$#$$$$#$OX.    ",
"   .XO%%%%%%%#OXO#$$$$$$#OX.    ",
"   .XO#%....%%OXOOOOOOOOOOX.    ",
"   .XO%%%%%%%#OXXXXXXXXXXXX.    ",
"   .XO#%....%%OX..........X.    ",
"   .XO%%%%%%%#OXXXXXXXXXXXX.    ",
"   .XO#%%%%%%#OX..........X.    ",
"   .XO%##%#%#%OXXXXXXXXXXXX.    ",
"   .XOOOOOOOOOOX..........X.    ",
"   .XXXXXXXXXXXXXXXXXXXXXXX.    ",
"   .........................    ",
"                                "};
