/* XPM */
static char * quit_xpm[] = {
/*Ä
ˆÄ@(›
(›
 ù	 ù	 Ä@ Ä@¨Ä@¨Ä@°Ä@°Ä@¸Ä@¸Ä@ÀÄ@ÀÄ@ÈÄ@ÈÄ@ÐÄ@ÐÄ@ØÄ@ØÄ@àÄ@àÄ@èÄ@èÄ@ðÄ@ðÄ@øÄ@øÄ@*/
"24 24 2 1",
" 	s None	c None",
".	c red",
/*÷dÄ¬÷dÇ\*/
"                        ",
"                        ",
"                        ",
"                        ",
"                        ",
"                        ",
"                        ",
"     .....       .      ",
"      .....     .       ",
"       .....   .        ",
"        ..... .         ",
"         ... .          ",
"          . ...         ",
"         . .....        ",
"        .   .....       ",
"       .     .....      ",
"      .       .....     ",
"                        ",
"                        ",
"                        ",
"                        ",
"                        ",
"                        ",
"                        "};
