/* XPM */
static char * reload_xpm[] = {
"24 24 3 1",
" 	s None	c None",
".	c #808080",
"X	c black",
"                        ",
"                        ",
"                        ",
"                        ",
"                        ",
"         ..XXX.         ",
"        .XXXXXXX        ",
"       .XX.    .X       ",
"       XX.              ",
"      XXX       X       ",
"    XXXXXXX    XXX      ",
"     XXXXX    XXXXX     ",
"      XXX    XXXXXXX    ",
"       X       XXX      ",
"              .XX       ",
"       X.    .XX.       ",
"        XXXXXXX.        ",
"         .XXX..         ",
"                        ",
"                        ",
"                        ",
"                        ",
"                        ",
"                        "};
