/* XPM */
static char * uline_xpm[] = {
"24 24 3 1",
" 	s None	c None",
".	c black",
"X	c white",
"                        ",
"                        ",
"                        ",
"                        ",
"                        ",
"     ..............     ",
"     .XXXXXXXXXXX..     ",
"     .XXXXXXXXXXX..     ",
"     .XXXXXXXXXXX..     ",
"     .XXXXXXXXXXX..     ",
"     .XXXXXXXXXXX..     ",
"     .XXXXXXXXXXX..     ",
"     .XXXXXXXXXXX..     ",
"     .XXXXXXXXXXX..     ",
"     .XXXXXXXXXXX..     ",
"     .XXXXXXXXXXX..     ",
"     .XXXXXXXXXXX..     ",
"     .XXXXXXXXXXX..     ",
"     ..............     ",
"                        ",
"                        ",
"                        ",
"                        ",
"                        "};
