/* XPM */
static char * search_xpm[] = {
"24 24 3 1",
" 	s None	c None",
".	c blue",
"X	c green",
"                        ",
"                        ",
"                        ",
"                        ",
"                        ",
"       ...    ...       ",
"      .XXX.  .XXX.      ",
"      .XX..  ..XX.      ",
"     ......  ......     ",
"    ..XXX..  ..XXX..    ",
"    ..XXX......XXX..    ",
"    ..XXX..  ..XXX..    ",
"    ..XXX..  ..XXX..    ",
"    ..XXX......XXX..    ",
"    ..XXX..  ..XXX..    ",
"    ..XXX..  ..XXX..    ",
"    ..XXX..  ..XXX..    ",
"    ...X...  ...X...    ",
"     .....    .....     ",
"                        ",
"                        ",
"                        ",
"                        ",
"                        "};
