/* XPM */
static char * siag_xpm[] = {
"32 32 9 1",
" 	c None",
".	c #000000",
"+	c #C0C0C0",
"@	c #808080",
"#	c #FFFFFF",
"$	c #FF0000",
"%	c #00C000",
"&	c #585858",
"*	c #000080",
"................................",
".++++++@.++++++@.++++++@.+++++@.",
".++++++@.++++++@.++++++@.+++++@.",
".++++++@.++++++@.++++++@.+++++@.",
".@@@@@@@.@@@@@@@.@@@@@@@.@@@@@@.",
"................................",
".........#######.#######.######.",
"..#####..#######.#######.######.",
"..#####..#######.#######.######.",
".........#######.#######.######.",
"................................",
".#######.#######.#######.######.",
".#######.#######.#######.######.",
".#######.#######.#######.######.",
".#######.#######.###......#####.",
"....................$$.%%%......",
".#######.########.$$$$.%%%%%.##.",
".#######.#######.$$$$$.%%%%%%.#.",
".#######.######.$$$$$$.%%%%%%%..",
".#######.######.$$$$$$.%%%%%%%..",
"...............$$$$$$$.%%%%%%%%.",
" &&&&&&&&&&&&&.$$$$$$$.%%%%%%%%.",
"              .$$$$$$$.%%%%%%%%.",
"              .........%%%%%%%%.",
"              .********.%%%%%%%.",
"              .*********.%%%%%%.",
"               .*********.%%%%. ",
"               .**********.%%%. ",
"                .**********.%.  ",
"                 .**********.   ",
"                  ..******..    ",
"                    ......      "};
