/* XPM */
static char * sigma_xpm[] = {
"24 24 2 1",
" 	s None	c None",
".	c blue",
"                        ",
"                        ",
"                        ",
"                        ",
"                        ",
"     ..............     ",
"     ..............     ",
"      ..          .     ",
"       ..               ",
"        ..              ",
"         ..             ",
"          ..            ",
"          ..            ",
"         ..             ",
"        ..              ",
"       ..               ",
"      ..          .     ",
"     ..............     ",
"     ..............     ",
"                        ",
"                        ",
"                        ",
"                        ",
"                        "};
