/* XPM */
static char * sortmode_xpm[] = {
"24 24 2 1",
" 	s None	c None",
".	c red",
"                        ",
"                        ",
"                        ",
"                        ",
"                        ",
"         . . .          ",
"         .              ",
"          . ..          ",
"         . .            ",
"         .. ..          ",
"         . ...          ",
"         ... .          ",
"         .....          ",
"         .....          ",
"       .........        ",
"        .......         ",
"         .....          ",
"          ...           ",
"           .            ",
"                        ",
"                        ",
"                        ",
"                        ",
"                        "};
