/* XPM */
static char * sortza_xpm[] = {
"24 24 3 1",
" 	s None	c None",
".	c black",
"X	c red",
"                        ",
"                        ",
"                        ",
"                        ",
"                        ",
"     ......    XX       ",
"         .     XX       ",
"        .      XX       ",
"       .       XX       ",
"      .        XX       ",
"     ......    XX       ",
"               XX       ",
"               XX       ",
"      ....     XX       ",
"     .    .    XX       ",
"     .    .    XX       ",
"     ......  XXXXXX     ",
"     .    .   XXXX      ",
"     .    .    XX       ",
"                        ",
"                        ",
"                        ",
"                        ",
"                        "};
