/* XPM */
static char * spell_xpm[] = {
"24 24 3 1",
" 	s None	c None",
".	c red",
"X	c black",
"                        ",
"                        ",
"                        ",
"                        ",
"                        ",
"     .           ..     ",
"     ..        ...      ",
"      ..      ..        ",
"      ..    ...         ",
"       .. ....          ",
"      X......   XXX     ",
"     X  ...  X X        ",
"     X  ..X  X X        ",
"     X  X X  X X        ",
"     XXXX XXX  X        ",
"     X  X X  X X        ",
"     X  X X  X X        ",
"     X  X X  X X        ",
"     X  X XXX   XXX     ",
"                        ",
"                        ",
"                        ",
"                        ",
"                        "};
