/* XPM */
static char * strike_xpm[] = {
"24 24 2 1",
" 	c None",
".	c black",
"                        ",
"                        ",
"                        ",
"                        ",
"                        ",
"        ........        ",
"       ...    ...       ",
"      ...      ..       ",
"      ...     ....      ",
"      ...               ",
"       ...              ",
"    ................    ",
"             ....       ",
"              ....      ",
"               ...      ",
"      ....     ...      ",
"       ..      ...      ",
"       ...    ...       ",
"        ........        ",
"                        ",
"                        ",
"                        ",
"                        ",
"                        "};
