/* XPM */
static char * unknown_xpm[] = {
/* width height ncolors chars_per_pixel */
"48 48 8 1",
/* colors */
" 	s None	c None",
".	c black",
"X	c yellow",
"o	c magenta",
"O	c navy blue",
"+	c dodger blue",
"@	c firebrick",
"#	c tan",
/* pixels */
"                                                ",
"                                                ",
"                 ........                       ",
"              ....XXXXXX...                     ",
"             ..XXXX..........                   ",
"            ..XX...............       ooo       ",
"           ..XX.................     o   o      ",
"          ..XX...................        o      ",
"    .    ..XX......       ........      o       ",
"   ...  ..XX.....           .......    o        ",
"    .   .XX.....             ......    o        ",
"        .X.....               ......            ",
"   ...  .X.....     OO        ......   o        ",
"   ...  ..X...     OOOO        ......           ",
"   ...   ....     OO  O        ......           ",
"   ...               OO        ......           ",
"  ...               OO        .......           ",
" ...                OO       ........           ",
"...                         ..X.....       +++  ",
"..                  OO     ..XX.....      +   + ",
"..      ..          OO    ..XX.....           + ",
"..      ..               ..XX......          +  ",
"...     ..              ..XX......          +   ",
"...    ...            ...XX......           +   ",
" ........            ..XXX......                ",
"  ......            ..XX.......             +   ",
"    ...            ..XX.......     @            ",
"                   .XX......      @@@           ",
"                  ..X.....         @            ",
"                  .XX....                       ",
"                  .X....                        ",
"         ###      .X....          @@@           ",
"        #   #     .X....          @@@           ",
"            #     .X....          @@@           ",
"           #      .X....          @@@           ",
"          #       .X....         @@@            ",
"    ...   #       ......        @@@             ",
"   .   .           ....        @@@              ",
"       .  #                    @@               ",
"      .                        @@      @@       ",
"     .             ....        @@      @@       ",
"     .            .XX...       @@@     @@       ",
"                  .X....       @@@    @@@       ",
"     .            .X....        @@@@@@@@        ",
"                  ......         @@@@@@         ",
"                   ....            @@@          ",
"                                                ",
"                                                "};
