/* XPM */
static char * vbottom_xpm[] = {
"24 24 3 1",
" 	s None	c None",
".	c black",
"X	c green",
"                        ",
"                        ",
"                        ",
"                        ",
"                        ",
"                        ",
"                        ",
"                        ",
"      ..       ...      ",
"     .  .      .  .     ",
"     .         .  .     ",
"      .   X  X ...      ",
"       .  X  X .  .     ",
"        . X  X .  .     ",
"     .  . X  X .  .     ",
"      ..  X  X ...      ",
"          X  X          ",
"          X  X          ",
"           XX           ",
"                        ",
"                        ",
"                        ",
"                        ",
"                        "};
