/* XPM */
static char * viewmode_xpm[] = {
"24 24 4 1",
" 	s None	c None",
".	c black",
"X	c #808080",
"o	c #c0c0c0",
"                        ",
"                        ",
"                        ",
"                        ",
"                        ",
"                        ",
"                        ",
"                        ",
"        ......X         ",
"      ....   ...X       ",
"     .. . oXo . ..      ",
"    ..  . X.X .   ..    ",
"    .X  . oXo .  X      ",
"      XX .   . XX       ",
"        X ... X         ",
"                        ",
"                        ",
"                        ",
"                        ",
"                        ",
"                        ",
"                        ",
"                        ",
"                        "};
