/* XPM */
static char * vtop_xpm[] = {
"24 24 3 1",
" 	s None	c None",
".	c blue",
"X	c black",
"                        ",
"                        ",
"                        ",
"                        ",
"                        ",
"          .  .          ",
"          .  .          ",
"          .  .          ",
"      XX  .  . XXX      ",
"     X  X .  . X  X     ",
"     X    .  . X  X     ",
"      X   .  . X  X     ",
"       X   ..  XXX      ",
"        X      X        ",
"     X  X      X        ",
"      XX       X        ",
"                        ",
"                        ",
"                        ",
"                        ",
"                        ",
"                        ",
"                        ",
"                        "};
