/* XPM */
static char * xedplus_xpm[] = {
"32 32 7 1",
" 	c None",
".	c black",
"X	c white",
"o	c red",
"+	c grey",
"@	c yellow",
"#	c yellow4",
"               .                ",
"              .X.               ",
"             .XXX.              ",
"            .XXXXX.             ",
"           .XXXXXXX.       ooo  ",
"          .XXXX.XXXX.     ooooo ",
"         .XXXX.XXXXXX.   .oooooo",
"        .XXXX.XXX.XXXX. .+.ooooo",
"       .XXXX.XXX.XXXXXXX@.+.oooo",
"      .XXXX.XXX.XXX.XXX@@@.+.oo ",
"     .XXXX.XXX.XXX.XXX@@@#@.+.  ",
"    .XXXXXXXXXXXX.XXX@@@####.   ",
"   .XXXX.XXX.XXXXXXX@@@#@@##    ",
"  .XXXX.XXX.XXX.XXX@@@##@##X.   ",
" .XXXX.XXXXXXX.XXX@@@#@@@#XXX.  ",
".XXXX.XXX.XXX.XX++.@@#@##XXXXX. ",
" .XXXXXX.XXX.XXX+++.#@##XXXXXXX.",
"  .XXXX.XXX.XXXX.+++.##XXXXXXX. ",
"   .XXXXXX.XXXXX...++.XXXXXXX.  ",
"    .XXXX.XXXXXX...++XXXXXXX.   ",
"     .XXXXXXXXXXXXXXXXXXXXX.    ",
"      .XXXXXXXXXXXXXXXXXXX.     ",
"       .XXXXXXXXXXXXXXXXX.      ",
"        .XXXXXXXXXXXXXXX.       ",
"         .XXXXXXXXXXXXX.        ",
"          .XXXXXXXXXXX.         ",
"           .XXXXXXXXX.          ",
"            .XXXXXXX.           ",
"             .XXXXX.            ",
"              .XXX.             ",
"               .X.              ",
"                .               "};
