/* XPM */
static char * xfm_icon_xpm[]={
/* width height num_colors chars_per_pixel */
"22 29 6 1",
/* colors */
" 	s None	c None",
".	c black",
"X	c #c0c0c0",
"o	c yellow",
"O	c white",
"+	c yellow4",
/* pixels */
"    ..................",
"   .XoXoXoXoXoXoXoXoO.",
"  .XoXoXoXoXoXoXoXoO+.",
" .XoXoXoXoXoXoXoXoO++.",
".OOOOOOOOOOOOOOOOO+++.",
".oXoXoXoXoXoXoXoXX+++.",
".X+++++++++++++.oX+++.",
".o+OOOOOOOOOOOO.XX+++.",
".X+OoXoXoXoXoXo.oX+++.",
".o+OXo......XoX.XX+++.",
".X+OoX.++++.oXo.oX+++.",
".o+OXo.++++.XoX.XX+++.",
".X+OoXOOOOOOoXo.oX+++.",
".o+OXoXoXoXoXoX.XX+++.",
".X+OoXoXoXoXoXo.oX+++.",
".o..............XX+++.",
".XoXoXoXoXoXoXoXoX+++.",
".o+++++++++++++.XX+++.",
".X+OOOOOOOOOOOO.oX+++.",
".o+OXoXoXoXoXoX.XX+++.",
".X+OoX......oXo.oX+++.",
".o+OXo.++++.XoX.XX+++.",
".X+OoX.++++.oXo.oX+++.",
".o+OXoOOOOOOXoX.XX+++.",
".X+OoXoXoXoXoXo.oX+++.",
".o+OXoXoXoXoXoX.XX++. ",
".X..............oX+.  ",
".oXoXoXoXoXoXoXoXX.   ",
"..................    "};
