/* XPM */
static char * xterm16_xpm[] = {
"24 24 6 1",
" 	s None	c None",
".	c steelblue1",
"X	c black",
"o	c white",
"O	c gray45",
"+	c gray55",
"                        ",
"                        ",
"                        ",
"                        ",
"                        ",
"    ...............     ",
"    .X.X.X......XX.     ",
"    ...............     ",
"    .ooooooooooooo.     ",
"    .oOOOOOOo+++oo.     ",
"    .ooooOoo+oooOo.     ",
"    .o+++oOOo+oOoo.     ",
"    .oooo+oooooooo.     ",
"    .oOOOoOOOOoooo.     ",
"    .oooo+oooooooo.     ",
"    .oOo++++ooOOOo.     ",
"    .ooooooooooooo.     ",
"    .ooooooooooooo.     ",
"    ...............     ",
"                        ",
"                        ",
"                        ",
"                        ",
"                        "};
