#define xfm_file_width 32
#define xfm_file_height 32
static char xfm_file_bits[] = {
   0xf0, 0xff, 0xff, 0x01, 0x10, 0x00, 0x80, 0x02, 0x10, 0x00, 0x80, 0x04,
   0x10, 0x00, 0x80, 0x08, 0x10, 0x00, 0x80, 0x0f, 0x10, 0x00, 0x00, 0x08,
   0x10, 0x00, 0x00, 0x08, 0x10, 0x00, 0x00, 0x08, 0x10, 0x00, 0x00, 0x08,
   0x10, 0x00, 0x00, 0x08, 0x10, 0x00, 0x00, 0x08, 0x10, 0x00, 0x00, 0x08,
   0x10, 0x00, 0x00, 0x08, 0x10, 0x00, 0x00, 0x08, 0x10, 0x00, 0x00, 0x08,
   0x10, 0x00, 0x00, 0x08, 0x10, 0x00, 0x00, 0x08, 0x10, 0x00, 0x00, 0x08,
   0x10, 0x00, 0x00, 0x08, 0x10, 0x00, 0x00, 0x08, 0x10, 0x00, 0x00, 0x08,
   0x10, 0x00, 0x00, 0x08, 0x10, 0x00, 0x00, 0x08, 0x10, 0x00, 0x00, 0x08,
   0x10, 0x00, 0x00, 0x08, 0x10, 0x00, 0x00, 0x08, 0x10, 0x00, 0x00, 0x08,
   0x10, 0x00, 0x00, 0x08, 0x10, 0x00, 0x00, 0x08, 0x10, 0x00, 0x00, 0x08,
   0xf0, 0xff, 0xff, 0x0f, 0x00, 0x00, 0x00, 0x00};
