#define xfm_watchmsk_width 16
#define xfm_watchmsk_height 16
static char xfm_watchmsk_bits[] = {
   0xc6, 0x07, 0xf7, 0x1f, 0xff, 0x3f, 0xfc, 0x7f, 0xfc, 0x7f, 0xfe, 0xff,
   0xfe, 0xff, 0xfe, 0xff, 0xfe, 0xff, 0xfe, 0xff, 0xfc, 0x7f, 0xfc, 0x7f,
   0xf8, 0x3f, 0xf0, 0x1f, 0xc0, 0x07, 0x00, 0x00};
