#define xfm_watch_width 16
#define xfm_watch_height 16
static char xfm_watch_bits[] = {
   0xc6, 0x07, 0xf7, 0x1f, 0x3b, 0x38, 0x0c, 0x60, 0x0c, 0x60, 0x06, 0xc0,
   0x06, 0xc0, 0x06, 0xdf, 0x06, 0xc1, 0x06, 0xc1, 0x0c, 0x61, 0x0c, 0x61,
   0x38, 0x38, 0xf0, 0x1f, 0xc0, 0x07, 0x00, 0x00};
