#define xfm_blackhole_width 32
#define xfm_blackhole_height 32
static char xfm_blackhole_bits[] = {
   0x00, 0x00, 0x00, 0x00, 0xa8, 0xaa, 0xaa, 0x00, 0x00, 0x00, 0x80, 0x01,
   0x08, 0x00, 0x00, 0x02, 0x00, 0x00, 0x80, 0x04, 0x08, 0x00, 0x00, 0x08,
   0x00, 0x00, 0x80, 0x1a, 0x08, 0x00, 0x00, 0x20, 0x00, 0x00, 0x00, 0x10,
   0x08, 0x00, 0x00, 0x20, 0x00, 0x00, 0x00, 0x10, 0x08, 0x00, 0x00, 0x20,
   0x00, 0x00, 0x10, 0x10, 0x08, 0x00, 0x30, 0x20, 0xc0, 0xff, 0x5f, 0x10,
   0x08, 0x00, 0x80, 0x20, 0x00, 0x00, 0x00, 0x11, 0x08, 0x00, 0x00, 0x22,
   0x00, 0x00, 0x00, 0x11, 0x08, 0x00, 0x80, 0x20, 0xc0, 0xff, 0x5f, 0x10,
   0x08, 0x00, 0x30, 0x20, 0x00, 0x00, 0x10, 0x10, 0x08, 0x00, 0x00, 0x20,
   0x00, 0x00, 0x00, 0x10, 0x08, 0x00, 0x00, 0x20, 0x00, 0x00, 0x00, 0x10,
   0x08, 0x00, 0x00, 0x20, 0x00, 0x00, 0x00, 0x10, 0xa8, 0xaa, 0xaa, 0x2a,
   0x50, 0x55, 0x55, 0x15, 0x00, 0x00, 0x00, 0x00};
