#define xfm_tick_width 16
#define xfm_tick_height 16
static char xfm_tick_bits[] = {
   0x00, 0x00, 0x00, 0x08, 0x00, 0x08, 0x00, 0x04, 0x00, 0x04, 0x00, 0x02,
   0x00, 0x03, 0x00, 0x01, 0x80, 0x01, 0xc0, 0x00, 0xce, 0x00, 0x6e, 0x00,
   0x7c, 0x00, 0x3c, 0x00, 0x38, 0x00, 0x38, 0x00};
