/* XPM */
static char *magick[] = {
/* columns rows colors chars-per-pixel */
"24 24 74 1",
"  c gray0",
". c #02030a",
"X c #040a14",
"o c #050f1b",
"O c #05111d",
"+ c #061523",
"@ c #07182a",
"# c #0c3651",
"$ c #0d3d5c",
"% c #0f4364",
"& c #105375",
"* c #105c7f",
"= c #234760",
"- c #294b6a",
"; c #2c5371",
": c #35566e",
"> c #0f5f84",
", c #106185",
"< c #11658a",
"1 c #136890",
"2 c #107194",
"3 c #107ea3",
"4 c #25678a",
"5 c #2d6284",
"6 c #486789",
"7 c #0e97bf",
"8 c #118eb0",
"9 c #1192b2",
"0 c #1197ba",
"q c #0f9ec2",
"w c #0ea0c5",
"e c #14a3c5",
"r c #17a9c8",
"t c #1ca2c3",
"y c #17abd0",
"u c #1bb3ce",
"i c #14b5d3",
"p c #15bdd6",
"a c #3f9dc0",
"s c #25aecc",
"d c #32afcf",
"f c #34b2cd",
"g c #15c2db",
"h c #23c3d5",
"j c #21ccdc",
"k c #3cd7e1",
"l c #6f9ab8",
"z c #7495b3",
"x c #7c9ab5",
"c c #40a2c3",
"v c #64b6d1",
"b c #45d6df",
"n c #59c3da",
"m c #48dfe9",
"M c #7bc5de",
"N c #79cfe2",
"B c #71d1e0",
"V c #819fbb",
"C c #83a7c2",
"Z c #81c9db",
"A c #98cfe1",
"S c #96d8e9",
"D c #99d3e4",
"F c #a9cdde",
"G c #bcdeeb",
"H c #a8e1ef",
"J c #c4eaf3",
"K c #ccecf5",
"L c #dcedf3",
"P c #deeff8",
"I c #e1f0f4",
"U c #e4f4f9",
"Y c #fdfbfd",
"T c None",
/* pixels */
"TTTTTTTTTTTTTTTTTTTTTTTT",
"TTTTTTTTTTTTTTTTTTTTTTTT",
"TTTTTTTTTTTTTTTTTTTTTTTT",
"TTTTTTTTTTTT#TTTTTTTTTTT",
"TTTTTTTTTTT#$TTTTTTTTTTT",
"TTTTTTTTTT#-$TTTTTTTTTTT",
"TTTTTTTTT#l6$TTTTTTTTTTT",
"TTTTTTTT#VI5$TTTTTTTTTTT",
"TTTTTTT#VYF2$.:=###.TTTT",
"TTTTTT#xYInsaAUYYK;oTTTT",
"TTTTT#CYLBrqfSJKHv4+TTTT",
"TTTT#zPGNuq7qdZDMc>+TTTT",
"TTTTX<tjgw77008990,OTTTT",
"TTTTTo<ekgyihmbmpp,OTTTT",
"TTTTTTo<umg99<<<<,%oTTTT",
"TTTTTTTo<sk1$@+++@O.TTTT",
"TTTTTTTTo,3>$TTTTTTTTTTT",
"TTTTTTTTTo<&$TTTTTTTTTTT",
"TTTTTTTTTTX$$TTTTTTTTTTT",
"TTTTTTTTTTTX$TTTTTTTTTTT",
"TTTTTTTTTTTTXTTTTTTTTTTT",
"TTTTTTTTTTTTTTTTTTTTTTTT",
"TTTTTTTTTTTTTTTTTTTTTTTT",
"TTTTTTTTTTTTTTTTTTTTTTTT"
};
