/* XPM */
static char *magick[] = {
/* columns rows colors chars-per-pixel */
"24 24 69 1",
"  c gray0",
". c #1e0a0a",
"X c #200b0b",
"o c #2e0f0f",
"O c #341111",
"+ c #5e2a21",
"@ c #66342c",
"# c #901717",
"$ c #921c1c",
"% c #a00e0b",
"& c #a1110e",
"* c #b30f0f",
"= c #bc140f",
"- c #b51515",
"; c #bc1611",
": c #bd1914",
"> c #89605f",
", c #b04e44",
"< c #b4594f",
"1 c #c21a1a",
"2 c #c72e2e",
"3 c #c03223",
"4 c #c23728",
"5 c #c63935",
"6 c #c73c38",
"7 c #c83939",
"8 c #c44032",
"9 c #c84a3d",
"0 c #c54d44",
"q c #c94f42",
"w c #cc4848",
"e c #c75449",
"r c #c95656",
"t c #cb5d54",
"y c #cc5e5b",
"u c #cd6155",
"i c #cd645b",
"p c #ce695e",
"a c #cd6161",
"s c #ce6c65",
"d c #ca716b",
"f c #c77d7d",
"g c #d27167",
"h c #d2736b",
"j c #d5786f",
"k c #d17771",
"l c #d47b73",
"z c #d17e7e",
"x c #dc7d77",
"c c #d97f79",
"v c #e07f79",
"b c #d7837b",
"n c #dc827c",
"m c #e1827e",
"M c #db8784",
"N c #dc8884",
"B c #dd8b8b",
"V c #dd928b",
"C c #cfbfbf",
"Z c #e08b86",
"A c #e08d88",
"S c #e3948e",
"D c #e69490",
"F c #e79d95",
"G c #e99f97",
"H c #e0d0d0",
"J c #f8e8e8",
"K c white",
"L c None",
/* pixels */
"LLLLLLLLLLLLLLLLLLLLLLLL",
"LLLLLLLLLLLLLLLLLLLLLLLL",
"LLLLLLL.XXX..XXXLLLLLLLL",
"LLLLLLOBJJJJJJC> LLLLLLL",
"LLLLLoBKGFSVVMz<@ LLLLLL",
"LLLLoBKGxlhggia-$+ LLLLL",
"LLLOBKVmnncljsy0*$+ LLLL",
"LL.BKGvmKDZNnhKh4-$+ LLL",
"LLXJFmmKKKDANKKKe:&+ LLL",
"LLXJGMnSKKKSKKKgr:&+ LLL",
"LL.JSlnZSKKKKKgit:&+ LLL",
"LLXJVllMBSKKKksie:&+ LLL",
"LLXJbkgnMKKKKKst7:&+ LLL",
"LL.JdduhKKKkKKKq2;%+ LLL",
"LLXHsdiKKKgpuKKK3=%+ LLL",
"LLXf,aiiKsgst9K:=&#+ LLL",
"LLL +$ruupuw813=%#+ LLLL",
"LLLL +$-6555:;;&#+ LLLLL",
"LLLLL +$&&&&&&%#+ LLLLLL",
"LLLLLL +++++++++ LLLLLLL",
"LLLLLLL         LLLLLLLL",
"LLLLLLLLLLLLLLLLLLLLLLLL",
"LLLLLLLLLLLLLLLLLLLLLLLL",
"LLLLLLLLLLLLLLLLLLLLLLLL"
};
