/* XPM */
static char *magick[] = {
/* columns rows colors chars-per-pixel */
"24 24 52 1",
"  c gray0",
". c gray7",
"X c #313131",
"o c #3c3b3c",
"O c #474646",
"+ c gray30",
"@ c #564c45",
"# c #5a5552",
"$ c #5c5b5b",
"% c #786a5c",
"& c #7b6e64",
"* c #7d746e",
"= c #747474",
"- c #7f7975",
"; c #807c79",
": c #998778",
"> c gray51",
", c #898989",
"< c #9f958d",
"1 c #a4a4a4",
"2 c #c9a88c",
"3 c #cbad94",
"4 c #ccb097",
"5 c #ceb49f",
"6 c #c0b5ac",
"7 c #ceb6a0",
"8 c #cfb9a5",
"9 c #c1bab3",
"0 c #d1bdab",
"q c #c4c0bd",
"w c #d3c3b4",
"e c #d5c7ba",
"r c #d6cabf",
"t c #eed3bc",
"y c gray77",
"u c gray79",
"i c #d7ccc1",
"p c #d8d0c8",
"a c gray87",
"s c #efd7c2",
"d c #f1dac7",
"f c #f2decc",
"g c #f3e2d3",
"h c #f5e6d9",
"j c #f6e9dd",
"k c #f4ebe4",
"l c #f8eee5",
"z c #faf2ec",
"x c #fbf6f2",
"c c #fcf8f5",
"v c white",
"b c None",
/* pixels */
"bbbbbbbbbbbbbbbbbbbbbbbb",
"bbbbbbbbbbbbbbbbbbbbbbbb",
"bb.........bbbbbbbbbbbbb",
"bb.vvvvvvX,.bbbbbbbbbbbb",
"bb.vvvvvvovu.bbbbbbbbbbb",
"bb.v>u>yvOuv,.bbbbbbbbbb",
"bb.vvvvvvOOoX.bbbbbbbbbb",
"bb.v>$u>uvy1=......bbbbb",
"bb.vvvvvcczk9.yvvX,.bbbb",
"bb.v$>u>#-<*i.yvvovu.bbb",
"bb.vvvczzljhr.>yvOuv,.bb",
"bb.v$q;#6:&&w.yvvOOoX.bb",
"bb.vxzlkhggf0.+>uvy1>.bb",
"bb.v-#6:&@:%7.yvvvvvy.bb",
"bb.vljhgfddt3.1>$>1>a.bb",
"bb.piew085432.yvvvvva.bb",
"bb..........  >$y1>>a.bb",
"bbbbbbbbbb.yyyyvvvvva.bb",
"bbbbbbbbbb.v>$y1>$1>a.bb",
"bbbbbbbbbb.vvvvvvvvva.bb",
"bbbbbbbbbb.aaaaaaaaaa.bb",
"bbbbbbbbbb............bb",
"bbbbbbbbbbbbbbbbbbbbbbbb",
"bbbbbbbbbbbbbbbbbbbbbbbb"
};
