/* XPM */
static char *magick[] = {
/* columns rows colors chars-per-pixel */
"24 24 10 1",
"  c gray0",
". c #080203",
"X c gray19",
"o c #6a6a6a",
"O c #9b9b9b",
"+ c #a0a0a0",
"@ c #e2e2e2",
"# c gray91",
"$ c white",
"% c None",
/* pixels */
"%%%%%%%%%%%%%%%%%%%%%%%%",
"%%%%%%%%%%%%%%%%%%%%%%%%",
"%%%%%%%%%%%%%%%%%%%%%%%%",
"%%%  . %%%%%%%%%%%%%%%%%",
"%%   %  %%%%%%%%%%   %%%",
"%%  %%%  %%%%%%%% $#O %%",
"%%  %%%%  %%%%%% $#O %%%",
"%%%  %%%% %%%%% $#O %%%%",
"%%%%   %  %%%% $#O %%%%%",
"%%%%%%     %% $#O %%%%%%",
"%%%%%%%%     $#O %%%%%%%",
"%%%%%%%%%%+ $#O %%%%%%%%",
"%%%%%%%%%% $XO %%%%%%%%%",
"%%%%%%%%    $ o %%%%%%%%",
"%%%%%%       $@O %%%%%%%",
"%%%%   %  %%% $@O %%%%%%",
"%%%  %%%% %%%% $@O %%%%%",
"%%  %%%%  %%%%% $@O %%%%",
"%%  %%%  %%%%%%% $@O %%%",
"%%  %%  %%%%%%%%% $@O %%",
"%%%  . %%%%%%%%%%%   %%%",
"%%%%%%%%%%%%%%%%%%%%%%%%",
"%%%%%%%%%%%%%%%%%%%%%%%%",
"%%%%%%%%%%%%%%%%%%%%%%%%"
};
