/* XPM */
static char *magick[] = {
/* columns rows colors chars-per-pixel */
"24 24 121 2",
"   c gray0",
".  c gray5",
"X  c #151515",
"o  c #32261e",
"O  c #2e2a22",
"+  c #36322e",
"@  c #363232",
"#  c #422e26",
"$  c #524636",
"%  c #5a4e36",
"&  c #5a4a3e",
"*  c #724e3a",
"=  c gray31",
"-  c #545353",
";  c #5b5b5b",
":  c #72664e",
">  c #776a56",
",  c gray39",
"<  c gray42",
"1  c #7e766b",
"2  c gray45",
"3  c #7c7c7c",
"4  c #864a1e",
"5  c #9a4606",
"6  c #9e4a06",
"7  c #8e522a",
"8  c #8e5e36",
"9  c #965a3a",
"0  c #92622e",
"q  c #9a6636",
"w  c #a24e06",
"e  c #ae6232",
"r  c #ba7a3e",
"t  c #877c6e",
"y  c #897960",
"u  c #c25e12",
"i  c #cc6404",
"p  c #d66a06",
"a  c #da6e3e",
"s  c #f27e0e",
"d  c #e26a2e",
"f  c #908675",
"g  c #938979",
"h  c #998e7f",
"j  c #9d907d",
"k  c #a48f6f",
"l  c #b68a6a",
"z  c #b69e7a",
"x  c #bd9e72",
"c  c #bda177",
"v  c #bea37b",
"b  c #f68606",
"n  c #fe8504",
"m  c #fa820a",
"M  c #fe8a04",
"N  c #fe9632",
"B  c #c28246",
"V  c #ca825e",
"C  c #da924e",
"Z  c #c68662",
"A  c #ce8266",
"S  c #ea8e5a",
"D  c #e29a56",
"F  c #ea9a6e",
"G  c #faae5e",
"H  c #eeb276",
"J  c #848484",
"K  c #9d9382",
"L  c #a49984",
"P  c #ac9d85",
"I  c #afa38e",
"U  c #b2a28b",
"Y  c #bea680",
"T  c #b9a688",
"R  c #bfa885",
"E  c #bdaa8c",
"W  c #b4a692",
"Q  c #bbae9c",
"!  c #bcb19c",
"~  c #caae82",
"^  c #c0b29b",
"/  c #c8b79f",
"(  c #d0ba9a",
")  c #c3b9a6",
"_  c #c4bcac",
"`  c #c4bfb1",
"'  c #f5b596",
"]  c #c6c1b6",
"[  c #c9c6bf",
"{  c #d3c1a8",
"}  c #dec6aa",
"|  c #dbcbb1",
" . c #dacfbd",
".. c #e2caa2",
"X. c #e4ccaa",
"o. c #e7cfb3",
"O. c #f6c6aa",
"+. c #fecea6",
"@. c #fed2b2",
"#. c #fedbbb",
"$. c #feeaae",
"%. c #cfc9c2",
"&. c gray79",
"*. c #d3ccc5",
"=. c #d3cfcc",
"-. c #d6d6d5",
";. c #efe3d3",
":. c #fee2c6",
">. c #fee6ca",
",. c #f2eada",
"<. c #fae6d2",
"1. c #feead2",
"2. c #f5ede4",
"3. c #f6f2e6",
"4. c #f7f3eb",
"5. c #fef2e2",
"6. c #faf5ed",
"7. c #faf6f4",
"8. c #fafaf6",
"9. c #fefefe",
"0. c None",
/* pixels */
"0.0.0.0.0.0.0.0.0.0.0.0.0.0.0.0.0.0.0.0.0.0.0.0.",
"0.0.0.J J J 3 3 3 2 2 < < , , , ; ; - =   7 G 0.",
"0.0.0.J &.&.&.&.&.&.&.&.&.&.&.&.&.&.] = 7 G $.0.",
"0.0.0.J &.9.9.9.9.9.9.-.9.9.9.9.9.9.` 7 D $.N 0.",
"0.0.0.J &.9.9.9.9.9.9.-.9.9.9.9.9.8.8 D #.N M 0.",
"0.0.0.3 &.9.9.9.9.9.9.-.9.9.9.9.9.0 D #.N n M 0.",
"0.0.0.3 &.-.-.-.-.-.-.-.-.-.-.=.q D +.N n n M 0.",
"0.0.0.3 &.9.9.9.9.9.9.-.9.9.9.r D +.N b n b p 0.",
"0.0.0.2 &.9.9.9.9.9.9.-.9.9.B C +.N m n b i w 0.",
"0.0.0.2 &.9.9.9.9.9.9.-.9.' H +.N n n b i 6 . 0.",
"0.0.0.2 &.-.-.-.-.-.-.-.' #.<.F m n b i 6 .   0.",
"0.0.0.< &.9.9.9.9.9.9.=.+.5.O.S s m i 5 X     0.",
"0.0.0.< &.9.9.9.9.9.7.' >.#.F a a u 5 .       0.",
"0.0.0.< &.9.9.9.9.8.4.+.1.' V e 7 4 . X       0.",
"0.0.0., &.-.-.-.=.*.' :.' V 9 7 % . > X       0.",
"0.0.0., &.9.8.8.6.3.@.O.A 9 % O + f y X     0.0.",
"0.0.0., &.9.7.4.2.: l V * & + f h P k X   0.0.0.",
"0.0.0.; &.8.6.3.~ : o # - g K I ^ ( z X 0.0.0.0.",
"0.0.0.; &.*.*.[ : O @ ~ 1 f L U T E v . 0.0.0.0.",
"0.0.0.; &.3.2.;.$ ~ K t I / | o.X...c . 0.0.0.0.",
"0.0.0.- &.2.,.;. .Q W L { } X.X...} x   0.0.0.0.",
"0.0.0.- ] ` _ ) ! W U T E E R Y v c x   0.0.0.0.",
"0.0.0.                                  0.0.0.0.",
"0.0.0.0.0.0.0.0.0.0.0.0.0.0.0.0.0.0.0.0.0.0.0.0."
};
