/* XPM */
static char *magick[] = {
/* columns rows colors chars-per-pixel */
"24 24 71 1",
"  c gray0",
". c #0b0704",
"X c #150f09",
"o c gray8",
"O c #191919",
"+ c #25170c",
"@ c #26190e",
"# c #2c1c0f",
"$ c #271c11",
"% c #352212",
"& c #3b2714",
"* c #262625",
"= c #2c2c2b",
"- c #343434",
"; c #383837",
": c #432b16",
"> c #472e19",
", c #4b3119",
"< c #7e532c",
"1 c #53504d",
"2 c #5d5d5b",
"3 c #676766",
"4 c #6d6864",
"5 c #6d6d6c",
"6 c #7d7d7c",
"7 c #80532c",
"8 c #855e38",
"9 c #a66d3a",
"0 c #aa6f3b",
"q c #b57740",
"w c #ea9e58",
"e c #eea059",
"r c #f2a55b",
"t c #e5a566",
"y c #f4ad6a",
"u c #f8ac62",
"i c #fdb36a",
"p c #f6b675",
"a c #fdb773",
"s c #feb971",
"d c #fec27f",
"f c #818180",
"g c #8c8c8b",
"h c #90908f",
"j c gray58",
"k c #9c9c9b",
"l c #a0a09e",
"z c #a5a5a4",
"x c #a9a9a7",
"c c #adadac",
"v c #b0b0af",
"b c #b4b4b3",
"n c #b8b8b7",
"m c #bcbcbb",
"M c #c0c0bf",
"N c #fec282",
"B c #fec98b",
"V c #fecd93",
"C c #fed39a",
"Z c #c4c4c2",
"A c #c8c8c7",
"S c #cdcdcb",
"D c #d0d0cf",
"F c #d4d4d3",
"G c #d8d8d6",
"H c #dcdcdb",
"J c #e0e0df",
"K c #e4e4e3",
"L c #eaeae9",
"P c #f3f3f3",
"I c None",
/* pixels */
"IIIIIIIIIIIIIIIIIIIIIIII",
"IIIIIIIIIIIIIIIIIIIIIIII",
"IIIIIIIIII     IIIIIIIII",
"IIIIIIII         I IIIII",
"IIIIIII  IIIIII    IIIII",
"IIIIII IIIIIIIII   IIIII",
"IIIIIIIIIIIIIII    IIIII",
"III@$$$IIIIIIIIIIIIIIIII",
"II&yNNs&IIIIIIIIIIIIIIII",
"I&tVCVBp&XXXXXXXXIIIIIII",
"I&NCVNiuuuuuuuuuu&IIIIII",
"I&BCNe7,,,,::&%%#@+    I",
"I&BVa01PPPPLKHGSAZmbvc;I",
"I&NNr>ALKJGDAZnvzkjgf2OI",
"I&Ni01PJLLKHFAZnczkg6;II",
"I&aw,SGJLLKHGSZmbzkg5 II",
"I&i91HFJKKHGDAMbczjf=III",
"I&r>cAFHHGFDAZnbxkh2oIII",
"I&q1DZDFFDSAMmbczkf;IIII",
"I&>cbmZAAAZmmbczkg3 IIII",
"I.4Acbbnmmbbcxlkh6=IIIII",
"Iohkkkllkkkjjggg62oIIIII",
"Io-==========****oIIIIII",
"IIIIIIIIIIIIIIIIIIIIIIII"
};
