/* XPM */
static char *magick[] = {
/* columns rows colors chars-per-pixel */
"24 24 81 1",
"  c gray0",
". c #0b0704",
"X c #140f09",
"o c gray8",
"O c #271a0f",
"+ c #271c11",
"@ c #3b2714",
"# c #3f2814",
"$ c #262625",
"% c #2c2c2b",
"& c gray20",
"* c #383837",
"= c #452c17",
"- c #472e19",
"; c #4b3119",
": c #494900",
"> c #52504d",
", c #5c5c5a",
"< c #656564",
"1 c #6d6864",
"2 c #757574",
"3 c #787877",
"4 c #7d7d7c",
"5 c #80532c",
"6 c #a66d3a",
"7 c #aa6f3c",
"8 c #b57740",
"9 c #808004",
"0 c #80800d",
"q c #818129",
"w c #de9a58",
"e c #ea9e58",
"r c #eea059",
"t c #f3a55b",
"y c #e5a566",
"u c #f5a960",
"i c #f4ad6a",
"p c #f8ac62",
"a c #fdb36a",
"s c #f6b675",
"d c #fdb773",
"f c #feb971",
"g c #fefe00",
"h c #f6f611",
"j c #cfce49",
"k c #d2d149",
"l c #dbda4d",
"z c #fec27f",
"x c #e3e254",
"c c #828281",
"v c #888887",
"b c #8b8b8a",
"n c #90908f",
"m c #949493",
"M c #9c9c9b",
"N c #a2a2a1",
"B c #a9a9a7",
"V c #acacac",
"C c #b4b4b3",
"Z c #b9b9b7",
"A c #bcbcba",
"S c #c0c0be",
"D c #fec382",
"F c #fec98b",
"G c #fecd93",
"H c #fed39a",
"J c #f3f286",
"K c #ffffaf",
"L c #c4c4c3",
"P c #c8c8c7",
"I c #cccccb",
"U c #d0d0cf",
"Y c #d4d4d3",
"T c #dcdcdb",
"R c #e0e0df",
"E c #ffffc3",
"W c #ffffda",
"Q c #e4e4e3",
"! c #eaeae9",
"~ c #f4f4f4",
"^ c None",
/* pixels */
"^^^^^^^^^^^^^^^^^^^^^^^^",
"^^^^^^^^^^^^^^^^^^^^^^^^",
"^^^^^^^^^^^^^^^^^^^^^^^^",
"^^^^^^^^^^^^^^^^^^^^^^^^",
"^^^^^^^^^^^^^^^^^^^^^^^^",
"^^^^^^^^^^^^^^^^l  ^^^^^",
"^^^^^^^^^^^^^^^^h0  ^^^^",
"^^^O++O^^^^l  ^^g:  ^l ^",
"^^@iDzd@^^^:gk lgl jg: ^",
"^#yGHGGs@XXX:glKWKlg0  ^",
"^@DHGDappppuw:JWWWJq   ^",
"^@FHDe5;;;;=#:JWWWJ9X  ^",
"^@FFd7>~~~~!:glEWKxg:M&^",
"^@DDt-PQQRT:gj xgl jg:o^",
"^@Da7>~Q!!Qlmc43g<<,>l ^",
"^#de;IYQ!QQYNCCVh2bc<  ^",
"^@a6>TYRQQTYPLSZl2nc%  ^",
"^@t;VPYTTTYUPLZCM3v,o^^^",
"^@8>ILUYYUIPSACVNmc*^^^^",
"^@-VCALLPLLSZCVNMb< ^^^^",
"^.1PVCCZAZZCVBNMn4%^^^^^",
"^onMMMNNMMMmmnbb4,o^^^^^",
"^o&%%%%%%%%%%$$$$o^^^^^^",
"^^^^^^^^^^^^^^^^^^^^^^^^"
};
