/* XPM */
static char *magick[] = {
/* columns rows colors chars-per-pixel */
"24 24 54 1",
"  c #010001",
". c #0d3652",
"X c #0d3d5c",
"o c #1c425c",
"O c #254a63",
"+ c #30536b",
"@ c #11668a",
"# c #116c92",
"$ c #137194",
"% c #1f779c",
"& c #337f9e",
"* c #0e87a9",
"= c #0e8bae",
"- c #0e8fb6",
"; c #0e92b6",
": c #0e95bc",
"> c #0e9ec3",
", c #0eadcb",
"< c #0eb0cd",
"1 c #1ca2c3",
"2 c #17abd0",
"3 c #24a9cb",
"4 c #3db9d3",
"5 c #15c1da",
"6 c #23c3d5",
"7 c #6bbed8",
"8 c #7fbdd5",
"9 c #44c0d7",
"0 c #40d1db",
"q c #5fc0d6",
"w c #59c3da",
"e c #46dbe6",
"r c #48dfe9",
"t c #7bc6de",
"y c #7cc9de",
"u c #80b6d0",
"i c #8fcada",
"p c #95c2d6",
"a c #98c7d9",
"s c #8fcce2",
"d c #a9cdde",
"f c #a7d7e7",
"g c #b5deec",
"h c #bcdeeb",
"j c #bce2ec",
"k c #c0dfee",
"l c #cde1ec",
"z c #cee9f2",
"x c #d3e5f0",
"c c #dcedf5",
"v c #deeff8",
"b c #e1ebf2",
"n c #fefbfe",
"m c None",
/* pixels */
"mmmmmmmmmmmmmmmmmmmmmmmm",
"mmmmmmmmmmmmmmmmmmmmmmmm",
"mmmmmmmmmmmmmmmmmmmmmmmm",
"mmmmmmmmmmm.mmmmmmmmmmmm",
"mmmmmmmmmmmX mmmmmmmmmmm",
"mmmmmmmmmmmX& mmmmmmmmmm",
"mmmmmmmmmmmXu& mmmmmmmmm",
"mmmmmmmmmmmXav& mmmmmmmm",
"mmmm......oXpdn& mmmmmmm",
"mmmm.pvnnnnkfwcn& mmmmmm",
"mmmmOlijzgt7,>wcn& mmmmm",
"mmmm+bu4q9,3;;>whb& mmmm",
"mmmmoby:*=:>-::wr3@ mmmm",
"mmmm.xs60e65525r1@ mmmmm",
"mmmm.%@@@#$;:5r1@ mmmmmm",
"mmmm.      X<r1@ mmmmmmm",
"mmmmmmmmmmmX11@ mmmmmmmm",
"mmmmmmmmmmmX*@ mmmmmmmmm",
"mmmmmmmmmmmX@ mmmmmmmmmm",
"mmmmmmmmmmmX mmmmmmmmmmm",
"mmmmmmmmmmmXmmmmmmmmmmmm",
"mmmmmmmmmmmmmmmmmmmmmmmm",
"mmmmmmmmmmmmmmmmmmmmmmmm",
"mmmmmmmmmmmmmmmmmmmmmmmm"
};
