/* XPM */
static char * handlebg_xpm[] = {
"8 29 3 1",
" 	c black",
".	s None	c None",
"X	c white",
"........",
"........",
"........",
"....X...",
".X... ..",
".. .....",
"....X...",
".X... ..",
".. .....",
"....X...",
".X... ..",
".. .....",
"....X...",
".X... ..",
".. .....",
"....X...",
".X... ..",
".. .....",
"....X...",
".X... ..",
".. .....",
"....X...",
".X... ..",
".. .....",
"....X...",
".X... ..",
".. .....",
"........",
"........"};
