/* XPM */
static char *magick[] = {
/* columns rows colors chars-per-pixel */
"24 24 82 1",
"  c gray0",
". c gray6",
"X c #131313",
"o c #1b1919",
"O c #232323",
"+ c gray17",
"@ c gray19",
"# c gray24",
"$ c #450802",
"% c #5a1e08",
"& c #5a282b",
"* c #632001",
"= c #6d2101",
"- c #742701",
"; c #722909",
": c #7e3005",
"> c #692f32",
", c #6a3033",
"< c #444444",
"1 c gray29",
"2 c gray37",
"3 c #656565",
"4 c gray44",
"5 c #7c7c7c",
"6 c #853201",
"7 c #8f3a05",
"8 c #8d3d0e",
"9 c #983e06",
"0 c #9e4407",
"q c #93542f",
"w c #945732",
"e c #a74906",
"r c #ad4f06",
"t c #a3521e",
"y c #b45507",
"u c #bb5a06",
"i c #ba5b0b",
"p c #b56b37",
"a c #824447",
"s c #824649",
"d c #84494c",
"f c #93666d",
"g c #a8754f",
"h c #c6650b",
"j c #c76812",
"k c #c86910",
"l c #d08035",
"z c #ce8340",
"x c #c68450",
"c c #ce9059",
"v c #c3977a",
"b c #d69964",
"n c #818181",
"m c gray56",
"M c gray57",
"N c #9d9d9d",
"B c #b29886",
"V c #a3a1a1",
"C c #a8a5a5",
"Z c #acabab",
"A c #b2afaf",
"S c #b7b7b7",
"D c gray75",
"F c #ddae84",
"G c #d1ad94",
"H c #d9baa2",
"J c #dec5b3",
"K c #e8cbae",
"L c #c3c3c3",
"P c #cbcbcb",
"I c #d3d3d3",
"U c #d8d7d7",
"Y c gray86",
"T c #e7d3c4",
"R c #ebdbd0",
"E c #eee1d8",
"W c #e1e1e1",
"Q c #ebeaea",
"! c gray97",
"~ c #f8f3f0",
"^ c #f9f9f9",
"/ c None",
/* pixels */
"////////////////////////",
"///////////  ///////////",
"//////////OY<O//////////",
"/////# //OWDD<#/////////",
"/////< /OWLZZZ<X////////",
"/////< OWL333352o///////",
"/////<#WL<1111<4<X//////",
"/////+WD<1AYYZ1<3<X/////",
"///^+WD<1AY^^YZ1<2<X////",
"///+WZ<1AW^^^^WA1<2<.///",
"//OYM<1CW^^!^^^QV1<2<X//",
"/ODN<1VI^^!!^!!^YZ112<./",
"//O+onIW^~gw;%!~QD3@Oo//",
"////ofIW^wBRHt%^QP5@////",
"////OmIQ^fEKcx=^~P5@////",
"//// MIQ^dTFpi-^QIM@////",
"//// MIQ^dKbky-^QUM@////",
"//// MIQ^aHzhr-^QIM@////",
"//// MIQ^sGzhe-!QIM@////",
"//// MIQ!,vju0-^QIM@////",
"//// MIQ^,piy9-^QIM@////",
"//// 5SPU&076:*UPSf@////",
"/////              $////",
"////////////////////////"
};
