/* XPM */
static char *magick[] = {
/* columns rows colors chars-per-pixel */
"24 24 85 1",
"  c #010101",
". c #080000",
"X c #1e1e1e",
"o c #022e2e",
"O c #043334",
"+ c #0a6b69",
"@ c #1c7674",
"# c #1a7c76",
"$ c #6c604b",
"% c #70644f",
"& c #746853",
"* c #786c57",
"= c #7b6f5b",
"- c #7f735f",
"; c #7e7a62",
": c #0f8a84",
"> c #268782",
", c #328381",
"< c #338f8a",
"1 c #3d9893",
"2 c #479d99",
"3 c #50a29d",
"4 c #58a5a1",
"5 c #5fa8a4",
"6 c #66aaa6",
"7 c #6baba7",
"8 c #6faca8",
"9 c #76aca8",
"0 c #837763",
"q c #867a67",
"w c #8a7e62",
"e c #8a7e6b",
"r c #8e826f",
"t c #958666",
"y c #9a8a6c",
"u c #918673",
"i c #9b8e72",
"p c #9e9276",
"a c #9a927a",
"s c #a19377",
"d c #a2967d",
"f c #aa9a7e",
"g c #b2a27e",
"h c #83b4b3",
"j c #a69a80",
"k c #aa9e86",
"l c #aea28a",
"z c #b2a68e",
"x c #b2a790",
"c c #bdb096",
"v c #c4b69a",
"b c #ceba92",
"n c #d6be92",
"m c #dabe96",
"M c #c2b6a2",
"N c #c6beaa",
"B c #c5bfb2",
"V c #dac296",
"C c #d6c2a2",
"Z c #d2c6ae",
"A c #decaa2",
"S c #deceae",
"D c #e2ceae",
"F c #e6d6b6",
"G c #e2d2ba",
"H c #ead6b2",
"J c #ded6c5",
"K c #e4dbcb",
"L c #edddc3",
"P c #f2dec2",
"I c #eae2ca",
"U c #eee5d4",
"Y c #f6ead6",
"T c #f1e9da",
"R c #faeede",
"E c #f1ece2",
"W c #f6f2e4",
"Q c #f6f2ea",
"! c #faf2e5",
"~ c #fbf5ed",
"^ c #f5f4f4",
"/ c #faf6f2",
"( c #fcfaf5",
") c #fefdfd",
"_ c None",
/* pixels */
"________________________",
"_ O_____________________",
"_ 9 ____________________",
"_ h@ ___________ X______",
"_ h@) ________  T$______",
"_ 9@)) _____  T)($______",
"_ 7@))) ___ T)))(&   ___",
"_ 6@)))) _ P!))))*xK~ __",
"_ 5@))))^ VPW)))(-xK~+ _",
"_ 4@))))^kmPW())/-xJ~+ _",
"_ 3@))))^jVL!((((0xJ!+ _",
"_ 2@))))QdVP!/~//qxJ~+ _",
"_ 1@)))/EsmP!/((~rxJ~+ _",
"_ <@~Q~QUpmP!~!~~rxJ~+ _",
"_ >@!WRRIyVPW!~!!uxJ/+ _",
"_ #@FYYYLimP!Q!!!axJ/+ _",
"__ :+FULGymP!W!valNJ(+ _",
"___.:+SHDymLUKazvZJT~+ _",
"____.:+CAtnPdfvKT~~~~+ _",
"_____ :+btVigZBBBBBBc+ _",
"______ :+wt;,,,,,,,,,, _",
"_______ :++:           _",
"________OOOo____________",
"________________________"
};
