/* XPM */
static char *magick[] = {
/* columns rows colors chars-per-pixel */
"24 24 99 2",
"   c gray0",
".  c #02001d",
"X  c gray7",
"o  c #1b1b1b",
"O  c #262625",
"+  c #272728",
"@  c #2c2c2c",
"#  c gray20",
"$  c #3c3c3c",
"%  c #3f3f40",
"&  c #044d57",
"*  c #345459",
"=  c #444444",
"-  c gray34",
";  c #585858",
":  c #707071",
">  c #06afb1",
",  c #0ae1df",
"<  c #0cfdfa",
"1  c #409fa8",
"2  c #46a4ac",
"3  c #46a7b5",
"4  c #4bacb4",
"5  c #4cb4be",
"6  c #56adb6",
"7  c #57b5bd",
"8  c #7e8180",
"9  c #56b8c6",
"0  c #63bec8",
"q  c #6abdc9",
"w  c #4ec3ce",
"e  c #51c2da",
"r  c #50c8d3",
"t  c #5dc6dc",
"y  c #65c1ce",
"u  c #60c8db",
"i  c #6bcbdd",
"p  c #64d1db",
"a  c #79cad4",
"s  c #74d0de",
"d  c #78cee1",
"f  c #7bd0e2",
"g  c #a93508",
"h  c #828584",
"j  c #868889",
"k  c #8b8e8d",
"l  c #959a9a",
"z  c #999b9a",
"x  c gray67",
"c  c #aeb6b7",
"v  c #afb7b8",
"b  c #b6bdbe",
"n  c #84ced7",
"m  c #85d5de",
"M  c #8bd4dc",
"N  c #95d5dd",
"B  c #9dd5de",
"V  c #84d5e3",
"C  c #84d9e2",
"Z  c #8ad5e4",
"A  c #93d9e5",
"S  c #97dae8",
"D  c #9cdce5",
"F  c #99dde8",
"G  c #bac3c4",
"H  c #b5d1d5",
"J  c #a4dce6",
"K  c #a3dee8",
"L  c #b8dfe3",
"P  c #a2e1e7",
"I  c #a5e3eb",
"U  c #ace3ec",
"Y  c #b3e0e6",
"T  c #b3e7ef",
"R  c #b9e4ec",
"E  c #baebef",
"W  c #b3e5f0",
"Q  c #bce9f1",
"!  c #c8cecf",
"~  c #c6d2d3",
"^  c #d2dcdc",
"/  c #c0e0e3",
"(  c #c4e9ec",
")  c #cbe2e6",
"_  c #c5ecf2",
"`  c #cbeef4",
"'  c #cbf1f4",
"]  c #d8e3e2",
"[  c #ddebed",
"{  c #d4eff5",
"}  c #d9eff2",
"|  c #d6f0f5",
" . c #dcf3f5",
".. c #e0f3f5",
"X. c #e6f7f9",
"o. c #e9f7f9",
"O. c #ecfbfb",
"+. c white",
"@. c None",
/* pixels */
"@.@.@.@.@.@.@.@.@.@.@.@.@.@.@.@.@.@.@.@.@.@.@.@.",
"@.@.@.@.@.@.X X X X X @.@.@.@.@.@.@.@.@.@.@.@.@.",
"@.@.@.@.X X z v G v z X X @.@.@.@.@.@.@.@.@.@.@.",
"@.@.@.X 8 ^ }  . .| ' ..8 X @.@.@.@.@.@.@.@.@.@.",
"@.@.X 8 ] X.X.' _ T P T ..h X @.@.@.@.@.@.@.@.@.",
"@.@.X ^ o.O.O.| _ U N n J ..X @.@.@.@.@.@.@.@.@.",
"@.X z [ X.O.o.| Q U A a a T z X @.@.@.@.@.@.@.@.",
"@.X b o.'  .| _ U F V y 0 P H X @.@.@.@.@.@.@.@.",
"@.X ! X.( _ Q U F C s 9 7 U L X @.@.@.@.@.@.@.@.",
"@.X G  .Y U I F m s w 5 4 A H X @.@.@.@.@.@.@.@.",
"@.X z | B M A m s r 5 2 q T z X @.@.@.@.@.@.@.@.",
"@.@.X ) U n a y 9 5 2 3 m  .X @.@.@.@.@.@.@.@.@.",
"@.@.X h ..P n 0 6 2 q m  .z X @.@.@.@.@.@.@.@.@.",
"@.@.@.X 8  .Y J M m U  .z X x < @.@.@.@.@.@.@.@.",
"@.@.@.@.X X z H R H z X X % , x X @.@.@.@.@.@.@.",
"@.@.@.@.@.@.X X X X X @.@.> % : x X @.@.@.@.@.@.",
"@.@.@.@.@.@.@.@.@.@.@.@.@.@.X = : x X @.@.@.@.@.",
"@.@.@.@.@.@.@.@.@.@.@.@.@.@.@.X = : x X @.@.@.@.",
"@.@.@.  @.@.@.@.@.@.@.@.@.@.@.@.X * : x X @.@.@.",
"@.@.@.  @.@.@.@.@.@.@.@.@.@.@.@.@.X $ : x X @.@.",
"@.          @.@.@.@.@.@.@.@.@.@.@.@.X $ : X @.@.",
"@.@.@.  @.@.@.@.@.@.@.@.@.@.@.@.@.@.@.X X @.@.@.",
"@.@.@.  @.@.@.@.@.@.@.@.@.@.@.@.@.@.@.@.@.@.@.@.",
"@.@.@.@.@.@.@.@.@.@.@.@.@.@.@.@.@.@.@.@.@.@.@.@."
};
