/* XPM */
static char *magick[] = {
/* columns rows colors chars-per-pixel */
"24 24 61 1",
"  c gray0",
". c gray4",
"X c #131313",
"o c #1b1b1b",
"O c gray14",
"+ c #2a2a2a",
"@ c #323232",
"# c #3c3c3c",
"$ c #444444",
"% c #4b4b4b",
"& c #535353",
"* c #857f7a",
"= c #989898",
"- c #a09b97",
"; c #bab2aa",
": c #b4b4b4",
"> c #c7a081",
", c #c8a487",
"< c #c8a488",
"1 c #c9a88e",
"2 c #cbad94",
"3 c #cdb19b",
"4 c #c6b8ac",
"5 c #ceb5a0",
"6 c #cfb8a5",
"7 c #d1bdac",
"8 c #d2c0b2",
"9 c #d4c4b8",
"0 c #d6c8be",
"q c #e7c2a2",
"w c #e9c5a6",
"e c #eac9ad",
"r c #ecceb4",
"t c #eed2bb",
"y c #c6c6c6",
"u c #cfcbc4",
"i c gray79",
"p c #d4cac3",
"a c #d8d0ca",
"s c gray84",
"d c gray87",
"f c #efd6c1",
"g c #efd8c3",
"h c #eadfd5",
"j c #f1d9c5",
"k c #f2ddcb",
"l c #e4e0db",
"z c #f2e0cf",
"x c #f4e2d3",
"c c #f5e6d8",
"v c #f6e9dd",
"b c #e1e1e1",
"n c #ececec",
"m c #f7ece2",
"M c #f0eeec",
"N c #f8eee5",
"B c #faf2eb",
"V c #fbf6f2",
"C c #fdf9f6",
"Z c #fffffe",
"A c None",
/* pixels */
"AAAAAAAAAAAAAAAAAAAAAAAA",
"AAAAAAAAAAAAAAAAAAAAAAAA",
"AAAA&%$#@+Oo..  AAAAAAAA",
"AAAA%ddddddsy: = AAAAAAA",
"AAAA$dZZZZZZnbXi= AAAAAA",
"AAAA$dZZZZZZZn+Zi= AAAAA",
"AAAA#dZZZZZZZZ#bZi= AAAA",
"AAAA@dZZZZZZZZ&#+X  AAAA",
"AAAA+dZZZZZZZZZMu;* AAAA",
"AAAA+dZZZZZZZZZCh0- AAAA",
"AAAAodZZZZZZZZVBMl; AAAA",
"AAAAodZZZZZZZCBBmc4 AAAA",
"AAAAXdZZZZZCVBNmcx8 AAAA",
"AAAA.dZZZZCCBNmczk7 AAAA",
"AAAA.dZZZCCBmmczkj6 AAAA",
"AAAA.dZZZCCBmmczkj6 AAAA",
"AAAA dZZCVBmvczkgt3 AAAA",
"AAAA dZCVBNvxxkftr3 AAAA",
"AAAA dCVBmvxxkftre2 AAAA",
"AAAA dBBmvxzkftrew1 AAAA",
"AAAA dBmcxkjftrewq, AAAA",
"AAAA aap0987653211> AAAA",
"AAAA                AAAA",
"AAAAAAAAAAAAAAAAAAAAAAAA"
};
