/* XPM */
static char *magick[] = {
/* columns rows colors chars-per-pixel */
"24 24 102 2",
"   c #010101",
".  c #060a06",
"X  c #120e0b",
"o  c #15100c",
"O  c #19130e",
"+  c gray7",
"@  c gray11",
"#  c #22170f",
"$  c #2d1e11",
"%  c #262206",
"&  c #222216",
"*  c #24241a",
"=  c #342213",
"-  c #362e16",
";  c #3b2614",
":  c #3e3811",
">  c gray14",
",  c #2e2e26",
"<  c gray18",
"1  c #313131",
"2  c #3a3636",
"3  c #3e3a32",
"4  c #3b3a3b",
"5  c #462c15",
"6  c #5d5100",
"7  c #4d472a",
"8  c #675800",
"9  c #776d14",
"0  c #464545",
"q  c #4c4c4c",
"w  c #564b43",
"e  c #565656",
"r  c #5a5451",
"t  c #5c5b5b",
"y  c #7a6959",
"u  c #656565",
"i  c #6a6666",
"p  c #6d6d6d",
"a  c #7c6d61",
"s  c #7d736c",
"d  c #727272",
"f  c #7e7771",
"g  c #7e7975",
"h  c #7c7c7c",
"j  c #897912",
"k  c #897b1e",
"l  c #9b8574",
"z  c #a79c40",
"x  c #ada35a",
"c  c #b3ad50",
"v  c #beb961",
"b  c #d2cd7c",
"n  c #838383",
"m  c #888885",
"M  c gray55",
"N  c gray59",
"B  c #9b9c9c",
"V  c #9f9fa3",
"C  c #a0948b",
"Z  c #a2a29e",
"A  c #a5a5a5",
"S  c gray67",
"D  c #b4b6b4",
"F  c #bebebe",
"G  c #cea685",
"H  c #cfa98a",
"J  c #d0ae91",
"K  c #d2b39a",
"L  c #c1b4aa",
"P  c #c2b9b1",
"I  c #c3bfbc",
"U  c #d3b9a3",
"Y  c #d3bca8",
"T  c #d4ce8f",
"R  c #dcd697",
"E  c #d6c3b2",
"W  c #d7c9bc",
"Q  c #d8cbbf",
"!  c #f2d1b7",
"~  c #f2d5bd",
"^  c #c6c6c6",
"/  c #cacaca",
"(  c #d9cfc6",
")  c #d3d3d3",
"_  c gray86",
"`  c #f5dac5",
"'  c #f5ddca",
"]  c #f5e0ce",
"[  c #f7e4d4",
"{  c #f7e8da",
"}  c #f8e7d9",
"|  c #f8eade",
" . c #f1f1c6",
".. c #f8f8db",
"X. c gray90",
"o. c gray93",
"O. c #f0e9e5",
"+. c #f9ede2",
"@. c #faf2eb",
"#. c #fcf6f1",
"$. c white",
"%. c None",
/* pixels */
"%.%.%.%.%.%.%.%.%.%.%.%.%.%.%.%.%.%.%.%.%.%.%.%.",
"%.%.%.%.%.%.%.%.+ 5 9 8 6 %.%.%.%.%.%.%.%.%.%.%.",
"%.%.          . % k $.b x -             %.%.%.%.",
"%.  o.$.o.o.o.o.6 $... .T z 7 ^ / / ) _ 2 %.%.%.",
"%.  $.A A A N k $.R b v c z j 7 n n n M > %.%.%.",
"%.  o.A A D A 3 , * * & * & & + u d p g > %.%.%.",
"%.  o.B B S F S B n p t u t u t t u p B < %.%.%.",
"%.  o.D S S B B N n 5 5 5 ; $ O O @ @ p @ %.%.%.",
"%.  o.N B A Z B N h 5 $.$.$.$.$.$.1 m + @ %.%.%.",
"%.  X.D A V N m h i 5 $.$.$.$.$.$.4 $./ + %.%.%.",
"%.  _ N V V S S N n 5 $.n / n ^ $.0 / $.m + %.%.",
"%.  _ B A V M n n p 5 $.$.$.$.$.$.0 0 4 1 + %.%.",
"%.  _ M N B A A m d 5 $.n t / n ^ $.^ A d + %.%.",
"%.  ) A S A n m m d 5 $.$.$.$.$.#.#.@.O.P + %.%.",
"%.  ) h m M B N h i ; $.t n ^ n r f C s ( + %.%.",
"%.  / B N m h g d u = $.$.$.#.@.@.+.| [ W + %.%.",
"%.  / m M M m n g u $ $.t I g r D l a y E + %.%.",
"%.  / h n h h d i t # $.@.@.+.| } [ ' ` U + %.%.",
"%.  ^ n m m n n t q O $.g r D l a w l y K + %.%.",
"%.  S p d p d u e q X $.| } [ ] ` ` ~ ! J + %.%.",
"%.%.              + @ ( Q E E Y U K J H G + %.%.",
"%.%.%.%.%.%.%.%.%.%.+ + + + + + + + + +     %.%.",
"%.%.%.%.%.%.%.%.%.%.%.%.%.%.%.%.%.%.%.%.%.%.%.%.",
"%.%.%.%.%.%.%.%.%.%.%.%.%.%.%.%.%.%.%.%.%.%.%.%."
};
