/* XPM */
static char *magick[] = {
/* columns rows colors chars-per-pixel */
"24 24 61 1",
"  c gray0",
". c gray20",
"X c #393836",
"o c gray24",
"O c #4a462e",
"+ c #4f4928",
"@ c #434343",
"# c #4a4543",
"$ c #4c4c4c",
"% c #594f45",
"& c #565656",
"* c #5d5d5d",
"= c #625b57",
"- c #646464",
"; c #6c6c6c",
": c gray44",
"> c #7b7b7b",
", c #008700",
"< c green",
"1 c #907f0b",
"2 c #b7996e",
"3 c #b9b24a",
"4 c #d7d178",
"5 c #838383",
"6 c #8b8b8b",
"7 c #939393",
"8 c #9a9a9a",
"9 c gray64",
"0 c #acacac",
"q c gray71",
"w c #bcbcbc",
"e c #e7c08d",
"r c #e8c08d",
"t c #e4c7a3",
"y c #e4c8a5",
"u c #e4cba9",
"i c #e7cfb4",
"p c #e7d3bb",
"a c #e9d6bc",
"s c #c3c3c3",
"d c gray80",
"f c gray83",
"g c gray86",
"h c #e6d8c2",
"j c #e7dbc9",
"k c #e8d9c4",
"l c #ecdfcb",
"z c #ede0ce",
"x c #eee3d4",
"c c #eee5d8",
"v c #f1e7dc",
"b c #f1e9dd",
"n c gray89",
"m c #eaeaea",
"M c #f3ede5",
"N c #f4efe9",
"B c #f5f1ed",
"V c #f6f6f4",
"C c #f8f6f5",
"Z c gray99",
"A c None",
/* pixels */
"AAAAAAAAAAAAAAAAAAAAAAAA",
"AAAAAAAAAAA&.%AAAAAAAAAA",
"AAAAAAAAAAA.lj%X%AAAAAAA",
"AAAAAAAAAA+lVCCVl%.%AAAA",
"AAAAAAAAAA&VCCCCVVMl.%AA",
"AAAAAAAAA+xCCCCCVBMla AA",
"AAAAAAAAA&CCCCZVBMvju AA",
"AAAAAAAA+MVCCVVMMblj%AAA",
"AAAAZX.@=zbMNNMMbxlu ++A",
"AAAZ@w0#ylxccbvxxja%14+A",
"AAZ$w9:@2euxljjappu 3+AA",
"AAXw989- &2euhaiui%14+AA",
"A ZC088889- &2eyyu 3 AAA",
"A@mmZZC077789- &2@ 4  AA",
"A&gnnnnZZC077689& @*:> A",
"A@ddgffggnZZC06555>57o A",
"A 70sssdddffgZZC05>6o@ A",
"AA  >79wqwswsddgZCso@@ A",
"AAAA@  ;5900qqqwss7@X.oA",
"AAAAAAA@  -5799,<0-#X AA",
"AAAAAAAAAA@  *>777-@ AAA",
"AAAAAAAAAAAAA@  *;: AAAA",
"AAAAAAAAAAAAAAAA@  AAAAA",
"AAAAAAAAAAAAAAAAAAAAAAAA"
};
