/* XPM */
static char *magick[] = {
/* columns rows colors chars-per-pixel */
"24 24 36 1",
"  c gray0",
". c #0b0003",
"X c #001800",
"o c #190000",
"O c #000020",
"+ c #082906",
"@ c #003900",
"# c gray19",
"$ c #005600",
"% c #006500",
"& c #007400",
"* c #520000",
"= c #6c0000",
"- c #720000",
"; c #652051",
": c #746500",
"> c #407561",
", c #756164",
"< c gray46",
"1 c #0000f8",
"2 c #00b809",
"3 c #00a85a",
"4 c #0ec808",
"5 c #00f825",
"6 c #40b009",
"7 c #b80350",
"8 c #c00200",
"9 c #c70800",
"0 c #ce0861",
"q c #ea3c40",
"w c #c70890",
"e c #d208f8",
"r c #98ec3c",
"t c #f8ea3c",
"y c #908ac6",
"u c None",
/* pixels */
"uuuuuuuuuuuuuuuuuuuuuuuu",
"uuuuuuuuuuuuuuuuuuuuuuuu",
"uuuuuuuuuuuuuuuuuuuuuuuu",
"uuuuuuuuuuu  uuuuuuuuuuu",
"uuuuuuuuuuu  uuuuuuuuuuu",
"uuuuuuu uuu  uuu uuuuuuu",
"uuuuuu   uu  uu   uuuuuu",
"uuuuu<  <uu  uu<  <uuuuu",
"uuuuu  #uuu  uuu#  uuuuu",
"uuuu<  <uuu  uuu<  <uuuu",
"uuuu   uuuu  uuuu   uuuu",
"uuuu  <uuuu  uuuu<  uuuu",
"uuuu  <uuuu  uuuu<  uuuu",
"uuuu   uuuu  uuuu   uuuu",
"uuuu<  <uuuuuuuu<  <uuuu",
"uuuuu  #uuuuuuuu#  uuuuu",
"uuuuu<  #<uuuu<#  <uuuuu",
"uuuuuu<    <<    <uuuuuu",
"uuuuuuu<        <uuuuuuu",
"uuuuuuuuu<    <uuuuuuuuu",
"uuuuuuuuuuuuuuuuuuuuuuuu",
"uuuuuuuuuuuuuuuuuuuuuuuu",
"uuuuuuuuuuuuuuuuuuuuuuuu",
"uuuuuuuuuuuuuuuuuuuuuuuu"
};
