/* XPM */
static char *magick[] = {
/* columns rows colors chars-per-pixel */
"24 24 56 1",
"  c gray0",
". c #060b03",
"X c #071003",
"o c #081204",
"O c #0b1b05",
"+ c #0f1c09",
"@ c #0e2005",
"# c #13240b",
"$ c #112a06",
"% c #173807",
"& c #232d1d",
"* c #1c4408",
"= c #234413",
"- c #275f0b",
"; c #2b6a0e",
": c #35691b",
"> c #3a8816",
", c #3f9524",
"< c #3fa21c",
"1 c #38aa18",
"2 c #41821f",
"3 c #428626",
"4 c #4a8d2d",
"5 c #469d24",
"6 c #50932f",
"7 c #5b973a",
"8 c #40a513",
"9 c #42a01e",
"0 c #41ae20",
"q c #47ab29",
"w c #4aa721",
"e c #48b227",
"r c #53a82f",
"t c #53b529",
"y c #51b929",
"u c #67a050",
"i c #79b658",
"p c #79be53",
"a c #7faa67",
"s c #5bc930",
"d c #63c53e",
"f c #6fd63d",
"g c #72c24f",
"h c #7fcc67",
"j c #87c86a",
"k c #8ac963",
"l c #91d56b",
"z c #9ac589",
"x c #a7c49a",
"c c #c7e0ba",
"v c #c8e1be",
"b c #cde2c1",
"n c #e4eddf",
"m c #f5f9f4",
"M c white",
"N c None",
/* pixels */
"NNNNNNNNNNNNNNNNNNNNNNNN",
"NNNNNNNNNNNNNNNNNNNNNNNN",
"NNNNNNNNNNNNNNNNNNNNNNNN",
"NNNNNNN-----NNNNNNNNNNNN",
"NNNNN--zbnbz--NNNNNNNNNN",
"NNNN-zMlppppcm**NNNNNNNN",
"NNN-nlq<<<<wwjvm NNNN NN",
"NN-zl<tsffffs<wkm NN* NN",
"NN-M<t:;    tfs<km *n NN",
"N*zi3;@.NNNN$ tf9kxna NN",
"N*M>*ONNNNNNNN tf9ghu NN",
"N*<-$NNNNNNNNNN 5y91, NN",
"NN*%oNNNNNNNNNN*nd0er NN",
"NN *.NNNNNNNNN*n76433 NN",
"NNN*#NNNNNNNN         NN",
"NNN.*+NNNNNNNNNNNNNNNNNN",
"NNNN#*#NNNNNNNNNNNNNNNNN",
"NNNNN#=#NNNNNNNNNNNNNNNN",
"NNNNNN *#NNNNNNNNNNNNNNN",
"NNNNNNNN   NNNNNNNNNNNNN",
"NNNNNNNNNNNNNNNNNNNNNNNN",
"NNNNNNNNNNNNNNNNNNNNNNNN",
"NNNNNNNNNNNNNNNNNNNNNNNN",
"NNNNNNNNNNNNNNNNNNNNNNNN"
};
