/* XPM */
static char *magick[] = {
/* columns rows colors chars-per-pixel */
"24 24 119 2",
"   c gray0",
".  c #020901",
"X  c gray4",
"o  c #041203",
"O  c #061902",
"+  c #141400",
"@  c #101800",
"#  c gray8",
"$  c #17171b",
"%  c gray11",
"&  c #02230b",
"*  c #082003",
"=  c #0b2a05",
"-  c #0d3306",
";  c #0a3009",
":  c #112405",
">  c #142b0a",
",  c #192c0b",
"<  c #17320c",
"1  c #1a330d",
"2  c #1b3e0f",
"3  c #113d10",
"4  c #1c3f10",
"5  c #270708",
"6  c #240905",
"7  c #212106",
"8  c #213b14",
"9  c #232323",
"0  c #2c2c2c",
"q  c #343434",
"w  c #34343a",
"e  c gray23",
"r  c #3f3f47",
"t  c #15410c",
"y  c #1d4512",
"u  c #1e4917",
"i  c #284919",
"p  c #215017",
"a  c #225118",
"s  c #275225",
"d  c #2b5623",
"f  c #2d582b",
"g  c #305020",
"h  c #315c27",
"j  c #217316",
"k  c #25791e",
"l  c #256022",
"z  c #296c27",
"x  c #2a6f2b",
"c  c #2a732f",
"v  c #2c7f39",
"b  c #366d2f",
"n  c #337f3a",
"m  c #490f0e",
"M  c #446a3d",
"N  c #417036",
"B  c #407438",
"V  c #444444",
"C  c #414149",
"Z  c #4b4b4b",
"A  c #4a4a52",
"S  c gray32",
"D  c #52525a",
"F  c gray37",
"G  c #416542",
"H  c #477d40",
"J  c gray42",
"K  c #727272",
"L  c #797979",
"P  c #2d823b",
"I  c #32843f",
"U  c #3d8e35",
"Y  c #2f8d43",
"T  c #378843",
"R  c #3d8f4b",
"E  c #3a924c",
"W  c #319e52",
"Q  c #2fa057",
"!  c #32a65c",
"~  c #32a85d",
"^  c #34b464",
"/  c #48a92e",
"(  c #49a23f",
")  c #53ab3e",
"_  c #46914f",
"`  c #419652",
"'  c #50854a",
"]  c #47b671",
"[  c #55bd7a",
"{  c #668a5f",
"}  c #628663",
"|  c #64c283",
" . c #6dc585",
".. c #7dcb8f",
"X. c #c7371a",
"o. c #838383",
"O. c gray55",
"+. c #8f8f97",
"@. c #9b9b9b",
"#. c gray64",
"$. c #afafaf",
"%. c #bcbcbc",
"&. c #8ccb84",
"*. c #82cd91",
"=. c #9dc392",
"-. c #a3daae",
";. c #b3d7ac",
":. c #b0e1b5",
">. c #b2e0b8",
",. c #b9e3be",
"<. c #bee5c1",
"1. c #cacaca",
"2. c #cdebcd",
"3. c #d4f4d4",
"4. c #d8f0d6",
"5. c #ddf2db",
"6. c #e0f3dd",
"7. c #e3f4e1",
"8. c None",
/* pixels */
"8.8.8.8.8.8.8.8.8.8.8.8.8.8.8.8.8.8.8.8.8.8.8.8.",
"8.8.8.8.8.8.8.8.8.p p 4 4 8 1 + 8.8.8.8.8.8.8.8.",
"8.8.8.8.8.8.8.y c | 4.,.*.R H N u y 8.8.8.8.8.8.",
"8.8.8.8.8.8.y ! 4.,.] P y : + 7 + u > 8.8.8.8.8.",
"8.8.8.8.8.8.c 7.>.] ' + + 8.8.8.8.+ > @ 8.8.8.8.",
"8.8.8.8.8.y | 2.| n < 8.8.8.8.8.8.8.8.< + 8.8.8.",
"8.8.8.8.8.x 7.-.I + 8.8.8.8.8.8.8.8.8.8.+ 8.8.8.",
"8.8.8.8.8.z 6.| _ > 8.8.8.8.8.8.8.8.8.8.8.8.8.8.",
"8.+ 2 i g ! <.[ I , + + + 8.8.8.8.8.8.8.8.8.8.8.",
"8.+ v :.6.3. .` T ..2.P < 8.8.8.  # 8.8.8.8.8.8.",
"8.8.+ b ! ^ Q E | P l + 8.8.8.  #.Z % 8.8.8.8.8.",
"8.8.8.+ b Y ^ | P l + 8.8.8.  %.J o.V # 8.8.8.8.",
"8.8.8.8.+ n I P l + 8.8.8.  1.J e Z O.Z % 8.8.8.",
"8.8.8.8.8.+ b d + 8.8.8.  %.K q 9 0 Z O.V # 8.8.",
"8.8.8.8.8.8.+ + 8.8.8.0 #.J V V 0 0 0 V K 0 X 8.",
"8.8.8.8.8.8.8.8.8.8.8.        K e S 9         8.",
"8.8.8.8.8.8.8.8.8.8.8.8.8.8.  O.V F 9 8.8.8.8.8.",
"8.8.8.  8.8.8.8.8.8.8.8.8.8.  #.e S $ 8.8.8.8.8.",
"8.8.8.    8.8.8.8.8.8.8.8.  $.J V V X 8.8.8.8.8.",
"8.8.8.8.      8.8.8.8.    $.o.V V # 8.8.8.8.8.8.",
"8.8.8.8.8.X 9 X %     L $.o.S S 0 . 8.8.8.8.8.8.",
"8.8.8.8.8.8.  9 Z J o.#.F V S X   8.8.8.8.8.8.8.",
"8.8.8.8.8.8.8.8.X # $ 9 % %   8.8.8.8.8.8.8.8.8.",
"8.8.8.8.8.8.8.8.8.8.8.8.8.8.8.8.8.8.8.8.8.8.8.8."
};
