/* XPM */
static char *magick[] = {
/* columns rows colors chars-per-pixel */
"24 24 33 1",
"  c gray0",
". c #0c0c0c",
"X c #151515",
"o c #2d2d2d",
"O c #353535",
"+ c #3e3e3e",
"@ c gray27",
"# c #4c4c4c",
"$ c gray33",
"% c gray36",
"& c gray39",
"* c #6c6c6c",
"= c #747474",
"- c gray48",
"; c #838383",
": c gray54",
"> c #939393",
", c #9a9a9a",
"< c #a7a7a7",
"1 c lightgray",
"2 c gray70",
"3 c #bbbbbb",
"4 c gray76",
"5 c #cbcbcb",
"6 c gray84",
"7 c gray87",
"8 c #d8e6e6",
"9 c #e1e1e1",
"0 c #ececec",
"q c #eff0f0",
"w c gray95",
"e c white",
"r c None",
/* pixels */
"rrrrrrrrrrrrrrrrrrrrrrrr",
"rrrrrr* rrrrrrrrrrrrrrrr",
"rrrrrr 4+#=rrrrrrrrrrrrr",
"rrrrr*:4%&%+#=rrrrrrrrrr",
"rrrrr@44$e7%*%+@*rrrrrrr",
"rrrrr 4$9eeee9%&%@$=rrrr",
"rrrr*,4+eeeeeeee7%%= %rr",
"rrrr#44$eeeeeeeee8%=4 rr",
"rrrrX2$9eeeeeeeee$-=3#er",
"rrr*;2@weeeeeeeew+-3 rrr",
"rre#,,+*eeeeeeee9$=5+err",
"rrr.>>>-$+:eeeee$-=3#err",
"rr*=:::::>=$+:e7@=3 rrrr",
"rr@;;@+$::;:;*%+=-5oerrr",
"rr -==0>@#%-;--=**3#errr",
"r**=$,eww6;@@==**3 rrrrr",
"ro*&@w07909-#+@%*5@errrr",
"r% &@w66543$;;+%&3%errrr",
"rr*@ @<433:@-:$$3 rrrrrr",
"rrrrr*@ @1@;:@$$5Oerrrrr",
"rrrrrrrr*# @>O$$3#errrrr",
"rrrrrrrrrrr*@ #$ errrrrr",
"rrrrrrrrrrrrrr* %rrrrrrr",
"rrrrrrrrrrrrrrrrrrrrrrrr"
};
