/* XPM */
static char *magick[] = {
/* columns rows colors chars-per-pixel */
"24 24 68 1",
"  c gray0",
". c #0a0903",
"X c #131313",
"o c #353114",
"O c #3d3a1a",
"+ c gray18",
"@ c #313131",
"# c gray24",
"$ c #464219",
"% c #4b451b",
"& c #4f4a1e",
"* c #514b1f",
"= c #534d21",
"- c #575122",
"; c #5b5424",
": c #5f5825",
"> c #635c26",
", c #605a2c",
"< c #6d652b",
"1 c #706629",
"2 c #756c2b",
"3 c #746c35",
"4 c #756e3a",
"5 c #7a702d",
"6 c #434343",
"7 c #4c4c4c",
"8 c gray33",
"9 c #585858",
"0 c #6a6a6a",
"q c #747474",
"w c #847c3d",
"e c #8e8641",
"r c #8f884e",
"t c #978f4c",
"y c #a09857",
"u c #a7a060",
"i c #a9a464",
"p c #aca768",
"a c #ada868",
"s c #b1aa6e",
"d c #b4af70",
"f c #b9b579",
"g c #808080",
"h c #90908f",
"j c #979796",
"k c #9c9b98",
"l c gray63",
"z c gray67",
"x c gray71",
"c c gray75",
"v c #c3c086",
"b c #d3ce9a",
"n c #d5d09d",
"m c #d7d2a0",
"M c #dcd8a6",
"N c #e2deaf",
"B c #e3dfb0",
"V c #c3c3c3",
"C c gray79",
"Z c #d3d3d3",
"A c #dddddd",
"S c #f6f2d9",
"D c #e6e6e6",
"F c gray91",
"G c #f8f6e7",
"H c #f3f3f3",
"J c white",
"K c None",
/* pixels */
"KKKKKKKKKKKKKKKKKKKKKKKK",
"KKKKKKKKKKKKKK0976 9KKKK",
"KKKKKKKKKKKKJ0JHFZZl9KKK",
"KKKKKKKKKKK 0JDq9#0Ch9KK",
"KKKKKKKKKKKK8D9JK J6z9KK",
"KKKKKKKKKKK8HZ9KKKJ8kj8K",
"KKKKKKKKKKK#V9KKKKKJ#z#K",
"KKKKKKKKKKK@l8KKKKKK9c K",
"KKKKKKKKKKK j6 KKKKK9A K",
"KK21>---*$$.g   KKKK9+ K",
"K521<>:;--*& $=% KKKKKKK",
"K5<ppfNGJJSBpp3- KKJJKKK",
"K5tnSBbvdpyyte,- KKKKKKK",
"K8tMSNbvspuytr4- KKKKKKK",
"K9lAJDAZCcxzlj3- KKKKKKK",
"K9lAJDAZCcxzlj3- KKKKKKK",
"K9lAJDAZCcxzlj3- KKKKKKK",
"K9lAJDAZCcxzlj3- KKKKKKK",
"K9lAJDAZCcxzlj3- KKKKKKK",
"K9lAJDAZVcxzlj3- KKKKKKK",
"K2tmSBbvdpuyte3- KKKKKKK",
"K5wsSBbvdpuyt3:o KKKKKKK",
"KK&             KKKKKKKK",
"KKKKKKKKKKKKKKKKKKKKKKKK"
};
