/* XPM */
static char *magick[] = {
/* columns rows colors chars-per-pixel */
"24 24 30 1",
"  c gray0",
". c #030248",
"X c #014801",
"o c #014825",
"O c #254845",
"+ c #450000",
"@ c #480024",
"# c #0000c0",
"$ c #0301db",
"% c #2128d7",
"& c #0049b6",
"* c #2449db",
"= c #4800da",
"- c #4924db",
"; c #4949b7",
": c #00db24",
"> c #00aada",
", c #29dbb6",
"< c #49b6db",
"1 c #b60000",
"2 c #b64902",
"3 c #b64825",
"4 c #800080",
"5 c #da02db",
"6 c #b7da24",
"7 c #dbb600",
"8 c #daff24",
"9 c #b6d6b6",
"0 c #dbb6b6",
"q c None",
/* pixels */
"qqqqqqqqqqqqqqqqqqqqqqqq",
"qqqqqqqqqqqqqqqqqqqqqqqq",
"qqqqqqqqqqqqqqqqqqqqqqqq",
"qqqqqqqqqqqqqqqqqqqqqqqq",
"qqqq44444444444444qqqqqq",
"qqqq4444qqqqqqqq444qqqqq",
"qqqqq4444qqqqqqqqq4qqqqq",
"qqqqqq4444qqqqqqqq4qqqqq",
"qqqqqqq4444qqqqqqqqqqqqq",
"qqqqqqqq4444qqqqqqqqqqqq",
"qqqqqqqqq4444qqqqqqqqqqq",
"qqqqqqqqqq4444qqqqqqqqqq",
"qqqqqqqqqqq444qqqqqqqqqq",
"qqqqqqqqqq444qqqqqqqqqqq",
"qqqqqqqqq444qqqqqqqqqqqq",
"qqqqqqqq444qqqqqqqqqqqqq",
"qqqqqqq444qqqqqqqqqqqqqq",
"qqqqqq444qqqqqqqqq4qqqqq",
"qqqqq444qqqqqqqqqq4qqqqq",
"qqqq444qqqqqqqqq444qqqqq",
"qqqq44444444444444qqqqqq",
"qqqqqqqqqqqqqqqqqqqqqqqq",
"qqqqqqqqqqqqqqqqqqqqqqqq",
"qqqqqqqqqqqqqqqqqqqqqqqq"
};
