/* XPM */
static char *magick[] = {
/* columns rows colors chars-per-pixel */
"24 24 31 1",
"  c gray0",
". c gray4",
"X c #150000",
"o c #1a0000",
"O c #151515",
"+ c #220000",
"@ c #340000",
"# c #550000",
"$ c #590000",
"% c #6d0000",
"& c #7c0000",
"* c #585858",
"= c #800000",
"- c #920000",
"; c #b50000",
": c #cc0000",
"> c #d40202",
", c #e00000",
"< c #ee0000",
"1 c #f50000",
"2 c #fd0000",
"3 c #ff1b1b",
"4 c #fd2323",
"5 c #fd2a2a",
"6 c #f53c3c",
"7 c #ec4848",
"8 c #f64f4f",
"9 c #c0c0c0",
"0 c gainsboro",
"q c #ffc0c0",
"w c None",
/* pixels */
"wwwwwwwwwwwwwwwwwwwwwwww",
"wwwwwwwwwwwwwwwwwwwwwwww",
"wwwwwwwwwwwwwwwwwwwwwwww",
"www   0w     0ww .  0www",
"ww *0* 0w.0w*O0 *0w* 0ww",
"ww 0ww 0w.0ww 0 0www 0ww",
"ww 0ww 0w.0w* 0 0wwwwwww",
"ww     0w.   w0 0wwwwwww",
"ww 0ww 0w.0w* 0 0wwwwwww",
"ww 0ww 0w.0ww 0 0www 0ww",
"ww 0ww 0w.0w* 0 *0w* 0ww",
"ww 0ww 0     0ww    0wqw",
"wwwwwwwwwwwwwwwwwwwwwq3w",
"wwwwwwwwwwwwwwwwwwwwq5>w",
"wwwwwwwwwwwq8wwwwwwq6>%w",
"wwwwwwwwwwq71>wwwwq6:=ow",
"wwwwwwwww $;22>wwq4>& ww",
"wwwwwwwwwwX#;218q4>%+www",
"wwwwwwwwwww+#;<56>%@wwww",
"wwwwwwwwwwwwo#;,:&+wwwww",
"wwwwwwwwwwwww $-= wwwwww",
"wwwwwwwwwwwwwwXXowwwwwww",
"wwwwwwwwwwwwwwwwwwwwwwww",
"wwwwwwwwwwwwwwwwwwwwwwww"
};
