/* XPM */
static char *magick[] = {
/* columns rows colors chars-per-pixel */
"24 24 20 1",
"  c gray0",
". c gray5",
"X c #131313",
"o c #191919",
"O c #222222",
"+ c #515151",
"@ c gray38",
"# c #6d6d6d",
"$ c #727272",
"% c #8b8b8b",
"& c #929292",
"* c #a4a4a4",
"= c #aeaeae",
"- c #b4b4b4",
"; c #c0c0c0",
": c gainsboro",
"> c #e6e6e6",
", c gray91",
"< c white",
"1 c None",
/* pixels */
"111111111111111111111111",
"111111111111111111111111",
"111111111111111111111111",
"111111111111111111111111",
"111111111111111111111111",
"111111111111111111111111",
"11111  ..  11  ..  11111",
"11111.;*&+ 11.;*%+ 11111",
"11111o-,-+.11o-,-+.11111",
"11111o=<&$.11o=<&$.11111",
"11111X=<&$.11X=<&$.11111",
"11111.-<&$.11.=<&$X11111",
"11111.*<&$X11.*<&$.11111",
"11111X&<%$.11.&<%$.11111",
"11111.&<%$.11.&<%$.11111",
"11111.#>%$ 11X#>%$ 11111",
"11111O#:%$ 11O#:%$ 11111",
"11111 @%$+ 11 @%$+ 11111",
"11111      11      11111",
"111111111111111111111111",
"111111111111111111111111",
"111111111111111111111111",
"111111111111111111111111",
"111111111111111111111111"
};
