/* XPM */
static char *magick[] = {
/* columns rows colors chars-per-pixel */
"24 24 55 1",
"  c gray0",
". c #060b03",
"X c #071003",
"o c #081204",
"O c #0b1b05",
"+ c #0f1c09",
"@ c #0e2005",
"# c #13240b",
"$ c #112a06",
"% c #173807",
"& c #232d1d",
"* c #1c4408",
"= c #234413",
"- c #275f0b",
"; c #2b6a0e",
": c #35691b",
"> c #3a8816",
", c #3f8321",
"< c #34a814",
"1 c #3fa21c",
"2 c #38aa18",
"3 c #41821f",
"4 c #478824",
"5 c #469d24",
"6 c #529033",
"7 c #5b923c",
"8 c #40a513",
"9 c #42a01e",
"0 c #47ab29",
"q c #4aa721",
"w c #4ab427",
"e c #53b529",
"r c #51b929",
"t c #79b658",
"y c #79be53",
"u c #5bc930",
"i c #6fd63d",
"p c #72c24f",
"a c #79d54b",
"s c #7fcc67",
"d c #88be71",
"f c #87c86a",
"g c #8ac963",
"h c #91d56b",
"j c #9ac589",
"k c #a7c49a",
"l c #c7e0ba",
"z c #c8e1be",
"x c #cde3c1",
"c c #d4e4cb",
"v c #e5eedf",
"b c #ecf3e8",
"n c #f5f9f4",
"m c white",
"M c None",
/* pixels */
"MMMMMMMMMMMMMMMMMMMMMMMM",
"MMMMMMMMMMMMMMMMMMMMMMMM",
"MMMMMMMMMMMMMMMMMMMMMMMM",
"MMMMMMMMMMMM-----MMMMMMM",
"MMMMMMMMMM--jxvxj--MMMMM",
"MMMMMMMM--nlyyyyhvj-MMMM",
"MM-MMMM-nzfqq11110hv MMM",
"MM--MM-ngq1uiiiiue1hj MM",
"MM-c--ng1uie    ;:e1m MM",
"MM-cvkg9ie $MMMM.@;4tj*M",
"MM-bsp9ie MMMMMMMMO*>m*M",
"MM-b2<r5 MMMMMMMMMM$-1*M",
"MM-xw<wa*MMMMMMMMMMo%*MM",
"MM-d,4746*MMMMMMMMMo* MM",
"MM-        MMMMMMMM#*MMM",
"MMMMMMMMMMMMMMMMMM+*.MMM",
"MMMMMMMMMMMMMMMMM#*#MMMM",
"MMMMMMMMMMMMMMMM#=#MMMMM",
"MMMMMMMMMMMMMMM#* MMMMMM",
"MMMMMMMMMMMMM   MMMMMMMM",
"MMMMMMMMMMMMMMMMMMMMMMMM",
"MMMMMMMMMMMMMMMMMMMMMMMM",
"MMMMMMMMMMMMMMMMMMMMMMMM",
"MMMMMMMMMMMMMMMMMMMMMMMM"
};
