/* XPM */
static char*notbold_xpm[]={
"24 24 2 1",
". c None",
"a c #000000",
"........................",
"........................",
"........................",
"........................",
"........................",
"........................",
"........................",
"........aaaaaaa.........",
"........aa....aa........",
"........aa....aa........",
"........aa....aa........",
"........aa....aa........",
"........aaaaaaa.........",
"........aa....aa........",
"........aa....aa........",
"........aa....aa........",
"........aa....aa........",
"........aaaaaaa.........",
"........................",
"........................",
"........................",
"........................",
"........................",
"........................"};
