/* XPM */
static char * copy_xpm[] = {
/* width height ncolors cpp [x_hot y_hot] */
"24 24 4 1 -1 -1",
/* colors */
" 	c None",
".	s iconColor1	m black	c black",
"X	s iconColor2	m white	c white",
"o	c #000000008000",
/* pixels */
"                        ",
"                        ",
"                        ",
"                        ",
"                        ",
"     ......             ",
"     .XXXX..            ",
"     .XXXX.X.           ",
"     .X..X.oooooo       ",
"     .XXXXXoXXXXoo      ",
"     .X....oXXXXoXo     ",
"     .XXXXXoX..Xoooo    ",
"     .X....oXXXXXXXo    ",
"     .XXXXXoX.....Xo    ",
"     ......oXXXXXXXo    ",
"           oX.....Xo    ",
"           oXXXXXXXo    ",
"           ooooooooo    ",
"                        ",
"                        ",
"                        ",
"                        ",
"                        ",
"                        "};
