/* XPM */
static char * cut_xpm[] = {
/* width height ncolors cpp [x_hot y_hot] */
"24 24 3 1 -1 -1",
/* colors */
" 	c None",
".	s iconColor1	m black	c black",
"X	c #000000008000",
/* pixels */
"                        ",
"                        ",
"                        ",
"                        ",
"                        ",
"          .   .         ",
"          .   .         ",
"          .   .         ",
"          .. ..         ",
"           . .          ",
"           ...          ",
"            .           ",
"           X.X          ",
"           X XXX        ",
"         XXX X  X       ",
"        X  X X  X       ",
"        X  X X  X       ",
"        X  X  XX        ",
"         XX             ",
"                        ",
"                        ",
"                        ",
"                        ",
"                        "};
