/* XPM */
static char * openfile_xpm[] = {
/* width height ncolors cpp [x_hot y_hot] */
"24 24 5 1 -1 -1",
/* colors */
" 	c None",
".	s iconColor1	m black	c black",
"X	s iconColor6	m white	c yellow",
"o	s iconColor2	m white	c white",
"O	c #800080000000",
/* pixels */
"                        ",
"                        ",
"                        ",
"                        ",
"                        ",
"             ...        ",
"            .   . .     ",
"                 ..     ",
"     ...        ...     ",
"    .XoX.......         ",
"    .oXoXoXoXo.         ",
"    .XoXoXoXoX.         ",
"    .oXoX...........    ",
"    .XoX.OOOOOOOOO.     ",
"    .oX.OOOOOOOOO.      ",
"    .X.OOOOOOOOO.       ",
"    ..OOOOOOOOO.        ",
"    ...........         ",
"                        ",
"                        ",
"                        ",
"                        ",
"                        ",
"                        "};
