/* XPM */
static char * handlebg_xpm[] = {
"9 29 3 1",
" 	c white",
".	s None	c None",
"X	c black",
".........",
".........",
".  .  ...",
". X. X...",
". X. X...",
". X. X...",
". X. X...",
". X. X...",
". X. X...",
". X. X...",
". X. X...",
". X. X...",
". X. X...",
". X. X...",
". X. X...",
". X. X...",
". X. X...",
". X. X...",
". X. X...",
". X. X...",
". X. X...",
". X. X...",
". X. X...",
". X. X...",
". X. X...",
". X. X...",
". X. X...",
". X. X...",
". X. X..."
};
