/* XPM */
static char * newfile_xpm[] = {
"24 24 3 1",
". 	c None",
"X	c #000000000000",
"o	c #FFFFFFFFFFFF",
"........................",
"........................",
"........................",
"........................",
"........................",
"........................",
".......XXXXXXXX.........",
".......XooooooXX........",
".......XooooooXoX.......",
".......XooooooXXXX......",
".......XoooooooooX......",
".......XoooooooooX......",
".......XoooooooooX......",
".......XoooooooooX......",
".......XoooooooooX......",
".......XoooooooooX......",
".......XoooooooooX......",
".......XoooooooooX......",
".......XXXXXXXXXXX......",
"........................",
"........................",
"........................",
"........................",
"........................"};
