/* XPM */
static char * plot_xpm[] = {
/* width height ncolors cpp [x_hot y_hot] */
"24 24 10 1 -1 -1",
/* colors */
" 	c None",
".	s iconColor1	m black	c black",
"X	s iconColor2	m white	c white",
"o	s iconColor6	m white	c yellow",
"O	c #800080008000",
"+	c #800080000000",
"@	c #FF0000000000",
"#	c #800000000000",
"$	c #00000000FF00",
"%	c #000000008000",
/* pixels */
"                        ",
"                        ",
"                        ",
"                        ",
"       .                ",
"      ..   ....         ",
"     .X.  .oo .         ",
"    .XO.  .oo+. ...     ",
"    .O .  .oo+..@#.     ",
"    . O.  .oo+.@@#.     ",
"    .O ....oo+.@@#.     ",
"    . .$$%.oo+.@@#.     ",
"    .O.$$%.oo+.@@#.     ",
"    .O.$$%.oo+.@@#.     ",
"    .O.$$%.oo+.@@#.     ",
"    .O.$$%.oo+.@@#.     ",
"    .O.$$..oo..@@#..    ",
"    . ...X...O....O.    ",
"    .OXXXXXXXXXXXX.     ",
"    ..............      ",
"                        ",
"                        ",
"                        ",
"                        "};
