/* XPM */
static char * printfile_xpm[] = {
"24 24 6 1",
".	c None",
"g	c #C000C000C000",
"X	c #000000000000",
"o	c #FFFFFFFFFFFF",
"O	c #820782078207",
"+	c #FFFFFFFF0000",
"........................",
"........................",
"........................",
"........................",
"........................",
".........XXXXXXXXX......",
"........XooooooooX......",
"........XoXXXXXoX.......",
".......XooooooooX.......",
".......XoXXXXXoXXXX.....",
"......XooooooooXgXgX....",
".....XXXXXXXXXXgXgXX....",
"....XggggggggggXgXgX....",
"....XXXXXXXXXXXXXggX....",
"....XggggggOOOggXgX.....",
"....Xgggggg+++ggXXX.....",
"....XXXXXXXXXXXXXgX.....",
".....XgggggggggXgX......",
"......XXXXXXXXXXX.......",
"........................",
"........................",
"........................",
"........................",
"........................"};
