/* XPM */
static char *do_xpm[] = {
/* columns rows colors chars-per-pixel */
"24 24 3 1",
"  c None",
". c #808080",
"X c Gray100",
/* pixels */
"                        ",
"                        ",
"                        ",
"                        ",
"                        ",
"                        ",
"                        ",
"                        ",
"       .....            ",
"      ..XXXX..   .      ",
"      .XX    X. ..X     ",
"      .X       ...X     ",
"      .X      ....X     ",
"      ..     .....X     ",
"       ..     XXXXX     ",
"        XX              ",
"                        ",
"                        ",
"                        ",
"                        ",
"                        ",
"                        ",
"                        ",
"                        "};
