/* XPM */
static char * savefile_xpm[] = {
/* width height ncolors cpp [x_hot y_hot] */
"24 24 4 1 -1 -1",
/* colors */
" 	c None",
".	s iconColor1	m black	c black",
"g	c #C000C000C000",
"X	c #800080000000",
/* pixels */
"                        ",
"                        ",
"                        ",
"                        ",
"                        ",
"     ..............     ",
"     .X.gggggggg.g.     ",
"     .X.gggggggg...     ",
"     .X.gggggggg.X.     ",
"     .X.gggggggg.X.     ",
"     .X.gggggggg.X.     ",
"     .X.gggggggg.X.     ",
"     .XX........XX.     ",
"     .XXXXXXXXXXXX.     ",
"     .XX.........X.     ",
"     .XX......gg.X.     ",
"     .XX......gg.X.     ",
"     .XX......gg.X.     ",
"      .............     ",
"                        ",
"                        ",
"                        ",
"                        ",
"                        "};
