/* XPM */
static char *sortd_xpm[] = {
/* width height num_colors chars_per_pixel */
"    24    24       13            1",
/* colors */
". c #008080",
"# c None",
"a c #000000",
"b c #ffffff",
"c c #808080",
"d c #000080",
"e c #00ffff",
"f c #800000",
"g c #008000",
"h c #808000",
"i c #ffff00",
"j c #0000ff",
"k c #ff0000",
/* pixels */
"########################",
"########################",
"########################",
"########################",
"######ffffff#####a######",
"######f###ff#####a######",
"#########ff######a######",
"########ff#######a######",
"#######ff########a######",
"######ff###f#####a######",
"######ffffff#####a######",
"#################a######",
"#########d#######a######",
"########cdc######a######",
"########ddd####aaaaa####",
"#######cd#dc###caaac####",
"#######ddddd####aaa#####",
"######cd###dc###cac#####",
"######ddd#ddd####a######",
"########################",
"########################",
"########################",
"########################",
"########################"
};
