/* XPM */
static char *sorta_xpm[] = {
/* width height num_colors chars_per_pixel */
"    24    24        5            1",
/* colors */
". c None",
"# c #000000",
"a c #808080",
"b c #000080",
"c c #800000",
/* pixels */
"........................",
"........................",
"........................",
"........................",
"........................",
"........b.......#.......",
".......aba......#.......",
".......bbb......#.......",
"......ab.ba.....#.......",
"......bbbbb.....#.......",
".....ab...ba....#.......",
".....bbb.bbb....#.......",
"................#.......",
".....cccccc.....#.......",
".....c...cc.....#.......",
"........cc....#####.....",
".......cc.....a###a.....",
"......cc.......###......",
".....cc...c....a#a......",
".....cccccc.....#.......",
"........................",
"........................",
"........................",
"........................"
};
