/* XPM */
static char * xfm_files_xpm[] = {
"64 58 6 1",
" 	c none",
".	c #000000000000",
"X	c #FFFFFFFFFFFF",
"o	c #0000FFFFFFFF",
"O	c blue",
"+	c #FFFFFFFF0000",
"                                                                ",
"                                                                ",
"                                                                ",
"                                                                ",
"                                                                ",
"                                                                ",
"                                                                ",
"       .....................     .....................          ",
"       .XXXXXXXXXXXXXXXXXX.X.    .XXXXXXXXXXXXXXXXXX.X.         ",
"       .XXXXXXXXXXXXXXXXXX.XX.   .XXXXXXXXXXXXXXXXXX.XX.        ",
"       .XXXXXXXXXXXXXXXXXX.XXX.  .XXXXXXXXXXXXXXXXXX.XXX.       ",
"       .XXXXXXXXXXXXXXXXXX...... .XXXXXXXXXXXXXXXXXX......      ",
"       .XXXXXXXXXXXXXXXXXXXXXX.. .XXXXXXXXXXXXXXXXXXXXXX..      ",
"       .XXXXXXXXXXXXXXXXXXXXXX.. .XX..................XX..      ",
"       .XXXXXXXXXXXXXXXXXXXXXX.. .XX.o..ooooooooooooo.XX..      ",
"       .XXXXXXXXXXXXXXXXXXXXXX.. .XX.o..ooooooooooooo.XX..      ",
"       .XXXXXXXXXXXXXXXXXXXXXX.. .XX..................XX..      ",
"       .XXXXXXXXXXXXXXXXXXXXXX.. .XX.OOOOOOOOOOOOOOOO.XX..      ",
"       .XXXXXXXXXXXXXXXXXXXXXX.. .XX.OOOOOOOOOOOOOOOO.XX..      ",
"       .XXXXXXXXXXXXXXXXXXXXXX.. .XX.OOOOOOOOOOOOOOOO.XX..      ",
"       .XXXXXXXXXXXXXXXXXXXXXX.. .XX.OOOOOOOOOOOOOOOO.XX..      ",
"       .XXXXXXXXXXXXXXXXXXXXXX.. .XX.OOOOOOOOOOOOOOOO.XX..      ",
"       .XXXXXXXXXXXX........XX.. .XX.OOOOOOOOOOOOOOOO.XX..      ",
"       .XXXXXXXXXXX.+++++++..X.. .XX.OOOOOOOOOOOOOOOO.XX..      ",
"       .XXXXXXXXXX.+++++++++.... .XX.OOOOOOOOOOOOOOOO.XX..      ",
"       .XXXXXXXXX.+++++++++++... .XX.OOOOOOOOOOOOOOOO.XX..      ",
"       .XXXXXXXX.............................OOOOOOOO.XX..      ",
"       .XXXXXXXX.+++++++++++++++++++++++++++..OOOOOOO.XX..      ",
"       .XXXXXXXX.+++++++++++++++++++++++++++..OOOOOOO.XX..      ",
"       .XXXXXXXX.+++++++++++++++++++++++++++..OOOOOOO.XX..      ",
"       .XXXXXXXX.+++++++++++++++++++++++++++..OOOOOOO.XX..      ",
"       .XXXXXXXX.+++++++++++++++++++++++++++..........XX..      ",
"       .XXXXXXXX.+++++++++++++++++++++++++++..XXXXXXXXXX..      ",
"       .XXXXXXXX.+++++++++++++++++++++++++++..XXXXXXXXXX..      ",
"       .XXXXXXXX.+++++++++++++++++++++++++++..XXXXXXXXXX..      ",
"       .XXXXXXXX.+++++++++++++++++++++++++++..XXXXXXXXXX..      ",
"       .XXXXXXXX.+++++++++++++++++++++++++++..XXXXXXXXXX..      ",
"       ..........+++++++++++++++++++++++++++..............      ",
"        .........+++++++++++++++++++++++++++.............       ",
"                .+++++++++++++++++++++++++++..                  ",
"                .+++++++++++++++++++++++++++..                  ",
"                .+++++++++++++++++++++++++++..                  ",
"                .+++++++++++++++++++++++++++..                  ",
"                .+++++++++++++++++++++++++++..                  ",
"                .+++++++++++++++++++++++++++..                  ",
"                .+++++++++++++++++++++++++++..                  ",
"                .+++++++++++++++++++++++++++..                  ",
"                ..............................                  ",
"                 ............................                   ",
"                                                                ",
"                                                                ",
"                                                                ",
"                                                                ",
"                                                                ",
"                                                                ",
"                                                                ",
"                                                                ",
"                                                                "};
