/* XPM */
static char * xfm_dirlnk_xpm[] = {
"32 32 4 1",
" 	c None",
".	c #000000000000",
"X	c #FFFFFFFF0000",
"o	c #0000FFFFFFFF",
"                                ",
"                                ",
"                                ",
"                                ",
"                                ",
"                                ",
"                                ",
"                                ",
"     ..........                 ",
"    .XXXXXXXXX..                ",
"   .XXXXXXXXXXX..               ",
"  .XXXXXXXXXXXXX..              ",
" .............................  ",
" .XXXXXXXXXXXXXXXXXXXXXXXXXXX.. ",
" .......XXXX........XXXX....... ",
" .oooooo.XX.oooooooo.XX.ooooo.. ",
" ......oo..oo......oo..oo...... ",
" .XXXX........XXXX........XXX.. ",
" ..XX.oooooooo.XX.oooooooo.XX.. ",
" ..XX.oooooooo.XX.oooooooo.XX.. ",
" .XXXX........XXXX........XXX.. ",
" ......oo..oo......oo..oo...... ",
" .oooooo.XX.oooooooo.XX.ooooo.. ",
" .......XXXX........XXXX....... ",
" .XXX.XXXXX...XX.XXX.XX.XX.XX.. ",
" .XXX.XXXXXX.XXX..XX.XX.X.XXX.. ",
" .XXX.XXXXXX.XXX.X.X.XX..XXXX.. ",
" .XXX.XXXXXX.XXX.XX..XX.X.XXX.. ",
" .XXX....XX...XX.XXX.XX.XX.XX.. ",
" .XXXXXXXXXXXXXXXXXXXXXXXXXXX.. ",
" .............................. ",
"  ............................  "};
