/* XPM */
static char * xfm_symlnk_xpm[] = {
"32 32 4 1",
" 	c none",
".	c #000000000000",
"X	c #FFFFFFFFFFFF",
"o	c #0000FFFFFFFF",
"                                ",
"    .....................       ",
"    .XXXXXXXXXXXXXXXXXX.X.      ",
"    .XXXXXXXXXXXXXXXXXX.XX.     ",
"    .XXXXXXXXXXXXXXXXXX.XXX.    ",
"    .XXXXXXXXXXXXXXXXXX......   ",
"    .XXXXXXXXXXXXXXXXXXXXXX..   ",
"    .XXXXXXXXXXXXXXXXXXXXXX..   ",
"    .XXXXXXXXXXXXXXXXXXXXXX..   ",
"    .XXXXXXXXXXXXXXXXXXXXXX..   ",
"    ....XXXX.......XXXX......   ",
"    .ooo.XX.ooooooo.XX.oooo..   ",
"    ...oo..oo.....oo..oo.....   ",
"    .X........XXX........XX..   ",
"    ..oooooooo.X.oooooooo.X..   ",
"    ..oooooooo.X.oooooooo.X..   ",
"    .X........XXX........XX..   ",
"    ...oo..oo.....oo..oo.....   ",
"    .ooo.XX.ooooooo.XX.oooo..   ",
"    ....XXXX.......XXXX......   ",
"    .XXXXXXXXXXXXXXXXXXXXXX..   ",
"    .XXXXXXXXXXXXXXXXXXXXXX..   ",
"    .XX.XXXX...X.XXX.X.XX.X..   ",
"    .XX.XXXXX.XX..XX.X.X.XX..   ",
"    .XX.XXXXX.XX.X.X.X..XXX..   ",
"    .XX.XXXXX.XX.XX..X.X.XX..   ",
"    .XX....X...X.XXX.X.XX.X..   ",
"    .XXXXXXXXXXXXXXXXXXXXXX..   ",
"    .XXXXXXXXXXXXXXXXXXXXXX..   ",
"    .XXXXXXXXXXXXXXXXXXXXXX..   ",
"    .........................   ",
"     .......................    "};
