/* XPM */
static char * xfm_updir_xpm[] = {
"32 32 4 1",
" 	c none",
".	c #000000000000",
"X	c #FFFFFFFF0000",
"o	c #FBEE14514103",
"                                ",
"                                ",
"                                ",
"                                ",
"                                ",
"                                ",
"                                ",
"                                ",
"     .........                  ",
"    .XXXXXXXX..                 ",
"   .XXXXXXXXXX..                ",
"  .XXXXXXXXXXXX..               ",
" .............................  ",
" .XXXXXXXXXXXXXXXXXXXXXXXXXXX.. ",
" .XXXXXXXXXXXXX.XXXXXXXXXXXXX.. ",
" .XXXXXXXXXXXX.o.XXXXXXXXXXXX.. ",
" .XXXXXXXXXXX.ooo.XXXXXXXXXXX.. ",
" .XXXXXXXXXX.ooooo.XXXXXXXXXX.. ",
" .XXXXXXXXX.ooooooo.XXXXXXXXX.. ",
" .XXXXXXXX.ooooooooo.XXXXXXXX.. ",
" .XXXXXXX.ooo.ooo.ooo.XXXXXXX.. ",
" .XXXXXXXX.o..ooo..o.XXXXXXXX.. ",
" .XXXXXXXXX.X.oo..X.XXXXXXXXX.. ",
" .XXXXXXXXXXX..oo.XXXXXXXXXXX.. ",
" .XXXXXXXXXXX.oo..XXXXXXXXXXX.. ",
" .XXXXXXXXXXX.o.o.XXXXXXXXXXX.. ",
" .XXXXXXXXXXXXoo..XXXXXXXXXXX.. ",
" .XXXXXXXXXXXXX.o.XXXXXXXXXXX.. ",
" .XXXXXXXXXXXXXX..XXXXXXXXXXX.. ",
" .XXXXXXXXXXXXXXXXXXXXXXXXXXX.. ",
" .............................. ",
"  ............................  "};
