/* XPM */
static char * xfm_execlnk_xpm[] = {
"32 32 5 1",
" 	c none",
".	c black",
"X	c white",
"o	c #0000FFFFFFFF",
"O	c blue",
"                                ",
"    .....................       ",
"    .XXXXXXXXXXXXXXXXXX.X.      ",
"    .XXXXXXXXXXXXXXXXXX.XX.     ",
"    .XXXXXXXXXXXXXXXXXX.XXX.    ",
"    .XXXXXXXXXXXXXXXXXX......   ",
"    .XXXXXXXXXXXXXXXXXXXXXX..   ",
"    .XXXXXXXXXXXXXXXXXXXXXX..   ",
"    .XXXXXXXXXXXXXXXXXXXXXX..   ",
"    .XX..................XX..   ",
"    .XX.o..ooooooooooooo.XX..   ",
"    .XX.o..ooooooooooooo.XX..   ",
"    .XX..................XX..   ",
"    .XX.OOOOOOOOOOOOOOOO.XX..   ",
"    ....OOOO.......OOOO......   ",
"    .ooo.OO.ooooooo.OO.oooo..   ",
"    ...oo..oo.....oo..oo.....   ",
"    .X........OOO........XX..   ",
"    ..oooooooo.O.oooooooo.X..   ",
"    ..oooooooo.O.oooooooo.X..   ",
"    .X........OOO........XX..   ",
"    ...oo..oo.....oo..oo.....   ",
"    .ooo.OO.ooooooo.OO.oooo..   ",
"    ....OOOO.......OOOO......   ",
"    .XX.OOOOOOOOOOOOOOOO.XX..   ",
"    .XX..................XX..   ",
"    .XXXXXXXXXXXXXXXXXXXXXX..   ",
"    .XXXXXXXXXXXXXXXXXXXXXX..   ",
"    .XXXXXXXXXXXXXXXXXXXXXX..   ",
"    .XXXXXXXXXXXXXXXXXXXXXX..   ",
"    .........................   ",
"     .......................    "};
