/* XPM */
static char * back_xpm[] = {
/* See http://www.kde.org */
"24 24 5 1",
" 	s None	c None",
".	c black",
"X	c white",
"o	c #c0c0c0",
"O	c #808080",
"                        ",
"                        ",
"                        ",
"                        ",
"                        ",
"                        ",
"           .            ",
"          ..            ",
"         .X.            ",
"        .XX........     ",
"       .XXoXXXXXXX.     ",
"      .XXooooooooo.     ",
"       .Xooooooooo.     ",
"       O.Xo........     ",
"        O.X.OOOOOOO     ",
"         O..O           ",
"          O.O           ",
"           OO           ",
"            O           ",
"                        ",
"                        ",
"                        ",
"                        ",
"                        "};
