/* XPM */
static char * cancel_xpm[] = {
/* See http://www.kde.org */
"24 24 5 1",
" 	s None	c None",
".	c black",
"X	c #ff0000",
"o	c #808000",
"O	c #008000",
"                        ",
"                        ",
"                        ",
"                        ",
"         .......        ",
"       ...........      ",
"        ...XXX...       ",
"        ...XXX...       ",
"        .........       ",
"         .......        ",
"       ...........      ",
"        ...ooo...       ",
"        ....o....       ",
"        .........       ",
"         .......        ",
"       ...........      ",
"        ...OOO...       ",
"        ....O....       ",
"        .........       ",
"         .......        ",
"                        ",
"                        ",
"                        ",
"                        "};
