/* XPM */
static char * copy_xpm[] = {
/* See http://www.kde.org */
"24 24 4 1",
" 	s None	c None",
".	c black",
"X	c white",
"o	c #c0c0c0",
"                        ",
"                        ",
"                        ",
"                        ",
"                        ",
"                        ",
"     ......             ",
"     .XXXX..            ",
"     .XXXX.X.           ",
"     .X..X.......       ",
"     .XXXXo.XXXX..      ",
"     .X.....XXXX.X.     ",
"     .XXXXo.X..X....    ",
"     .X.....XXXXXXX.    ",
"     .XXXXo.X.....X.    ",
"     .......XXXXXXX.    ",
"           .X.....X.    ",
"           .XXXXXXX.    ",
"           .........    ",
"                        ",
"                        ",
"                        ",
"                        ",
"                        "};
