/* XPM */
static char * cut_xpm[] = {
/* See http://www.kde.org */
"24 24 7 1",
" 	s None	c None",
".	c #a0a0a4",
"X	c #585858",
"o	c #303030",
"O	c #c0c0c0",
"+	c #dcdcdc",
"@	c white",
"                        ",
"                        ",
"                        ",
"                        ",
"                        ",
"     .XoX.              ",
"     oOOOX.     Xo.     ",
"     XOOOOo   .XoXX.    ",
"     .XXOXX  .XoX.      ",
"      .oXo. .Xo.        ",
"        .XXXoX.         ",
"   XXXXXXXX+X.XXXXXX    ",
"        .oXXXX@@@@@+    ",
"      .XXX. .++.        ",
"     .XoOoX  +XoX.      ",
"     XOOOOo  @.XoXo.    ",
"     oOOOX. @   XX.     ",
"     .XoX.  @           ",
"            +           ",
"            @           ",
"                        ",
"                        ",
"                        ",
"                        "};
