/* XPM */
static char * fld_open_xpm[] = {
/* See http://www.kde.org */
"24 24 6 1",
" 	s None	c None",
".	c black",
"X	c #dcdcdc",
"o	c white",
"O	c #c0c0c0",
"+	c #808080",
"                        ",
"                        ",
"                        ",
"             ....       ",
"                .. .    ",
"                 ...    ",
"                 ...    ",
"                ....    ",
"     ....               ",
"     .XoX.......        ",
"     .oXoXoXoXo.        ",
"     .XX..........      ",
"     .oX.XXOOOOO+.      ",
"     .X.XXOXOOO+.       ",
"     .X.XXOOO+O+.       ",
"     ..XXOXOOO+.        ",
"     ..XXOOO+O+.        ",
"     .++++++++.         ",
"     ..........         ",
"                        ",
"                        ",
"                        ",
"                        ",
"                        "};
