/* XPM */
static char * home_xpm[] = {
/* See http://www.kde.org */
"24 24 4 1",
" 	s None	c None",
".	c black",
"X	c white",
"o	c #c0c0c0",
"                        ",
"                        ",
"                        ",
"                        ",
"           ..           ",
"      .   ....          ",
"      .  .XXoo.         ",
"      . .XXXXoo.        ",
"      ..XXXXXXoo.       ",
"      .XXXXXXXXoo.      ",
"     .XXXXXXXXXooo.     ",
"    ...XXXXXXXXoo...    ",
"      .XXXXXXXXoo.      ",
"      .XXX...XXoo.      ",
"      .XXX. .XXoo.      ",
"      .XXX. .XXoo.      ",
"      .XXX. .XXoo.      ",
"      .XXX. .XXoo.      ",
"      ..... ......      ",
"                        ",
"                        ",
"                        ",
"                        ",
"                        "};
