/* XPM */
static char * info_xpm[] = {
/* See http://www.kde.org */
"24 24 5 1",
" 	s None	c None",
".	c #000080",
"X	c #585858",
"o	c black",
"O	c white",
"                        ",
"                        ",
"                        ",
"              .....X    ",
"             ..  X..X   ",
"            ..X   ...   ",
"            ..X   ...   ",
"            X..  X..X   ",
"    oo           ..X    ",
"   oXOo    ooo  ..X     ",
"   oXOOo ooOOoX..X      ",
"   oXOOOoXOOOoX..X      ",
"   oXOOOoOOOOoXo        ",
"   oXOOOoXOOOoX...      ",
"   oXOOOoOOOOoX...      ",
"   oXOOOoXOOOoXo        ",
"   oXOOOoOOOOoXo        ",
"    oXOOoXOOooXo        ",
"     oXOoOooOOXo        ",
"      oXooXXXXXo        ",
"      ooXooooooo        ",
"       oo               ",
"                        ",
"                        "};
