/* XPM */
static char * kmid_next_xpm[] = {
"24 24 4 1",
" 	c None",
".	c #000000",
"o	c #FFFFFF",
"O	c #808080",
"                        ",
"                        ",
"                        ",
"                        ",
"                        ",
"                        ",
"     ...         .      ",
"     .oo..      .o.     ",
"    O.o oo..    .o.O    ",
"    O.o   oo..  .o.O    ",
"    O.o     oo. .o.O    ",
"    O.o       o..o.O    ",
"    O.o      o...o.O    ",
"    O.o    o..O .o.O    ",
"    O.o  o..OO  .o.O    ",
"    O.oo..OOO   .o.O    ",
"    O...OOO     . .O    ",
"    OOOOO        .O     ",
"                 O      ",
"                        ",
"                        ",
"                        ",
"                        ",
"                        "};
