/* XPM */
static char * kmid_play_xpm[] = {
"24 24 4 1",
" 	c None",
"X	c #000000",
"o	c #FFFFFF",
"O	c #808080",
"                        ",
"                        ",
"                        ",
"                        ",
"                        ",
"                        ",
"       XXX              ",
"       XooXX            ",
"      OXo ooXX          ",
"      OXo   ooXX        ",
"      OXo     ooX       ",
"      OXo       oX      ",
"      OXo      oXX      ",
"      OXo    oXXO       ",
"      OXo  oXXOO        ",
"      OXooXXOOO         ",
"      OXXXOOO           ",
"      OOOOO             ",
"                        ",
"                        ",
"                        ",
"                        ",
"                        ",
"                        "};
