/* XPM */
static char *kmid_prev[] = {
"24 24 4 1",
". c None",
"O c #000000",
"b c #FFFFFF",
"c c #808080",
"........................",
"........................",
"........................",
"........................",
"........................",
"........................",
"......O.........OOO.....",
".....ObO......OObbO.....",
"....cObO....OObb.bOc....",
"....cObO..OObb...bOc....",
"....cObO.Obb.....bOc....",
"....cObOOb.......bOc....",
"....cObOOOb......bOc....",
"....cObO.cOOb....bOc....",
"....cObO..ccOOb..bOc....",
"....cObO...cccOObbOc....",
"....cO.O.....cccOOOc....",
".....cO........ccccc....",
"......c.................",
"........................",
"........................",
"........................",
"........................",
"........................"
};
