/* XPM */
static char * floppy3_xpm[] = {
/* See http://www.kde.org */
"24 24 5 1",
" 	s None	c None",
".	c black",
"X	c #c0c0c0",
"o	c white",
"O	c #808080",
"                        ",
"                        ",
"                        ",
"                        ",
"                        ",
"     .............      ",
"     .XooooooooXX.O     ",
"     .Xo.....ooXX.O     ",
"     .XooooooooXX.O     ",
"     .Xo...ooooXX.O     ",
"     .XooooooooXX.O     ",
"     .XooooooooXX.O     ",
"     .XXXXXXXXXXX.O     ",
"     .XOOOOOOOOOO.O     ",
"     .XOOOOOOOOOO.O     ",
"     .XOOXXXXXOOX.O     ",
"     .XOOXXOOXOOX.O     ",
"     .XOOXXOOXOOX.O     ",
"     .............O     ",
"      OOOOOOOOOOOOO     ",
"                        ",
"                        ",
"                        ",
"                        "};
