/* XPM */
static char*search[]={
"24 24 6 1",
". c None",
"# c #000000",
"a c #dcdcdc",
"b c #ffffff",
"c c #a0a0a4",
"d c #c3c3c3",
"........................",
"........................",
"........................",
"........................",
"........................",
"........................",
"........####............",
".......#abba#...........",
"......#abcbba#..........",
"......#bcbbbb#..........",
"......#bbbbbb#..........",
"......#abbbba#..........",
".......#abba##..........",
"........#######.........",
".............###........",
"..............###.......",
"......dd.......###......",
".....dddddddd...##......",
".....dd.................",
".....dd.................",
"........................",
"........................",
"........................",
"........................"};
