/* XPM */
static char * kmid_pause_xpm[] = {
"24 24 4 1",
" 	c None",
".	c #000000",
"X	c #FFFFFF",
"o	c #808080",
"                        ",
"                        ",
"                        ",
"                        ",
"                        ",
"       ...    ...       ",
"      . XX.  . XX.      ",
"      .X  .o .X  .o     ",
"      .X  .o .X  .o     ",
"      .X  .o .X  .o     ",
"      .X  .o .X  .o     ",
"      .X  .o .X  .o     ",
"      .X  .o .X  .o     ",
"      .X  .o .X  .o     ",
"      .X  .o .X  .o     ",
"      .X  .o .X  .o     ",
"      .X  .o .X  .o     ",
"      .X  .o .X  .o     ",
"       ... o  ... o     ",
"        ooo    ooo      ",
"                        ",
"                        ",
"                        ",
"                        "};
