/* XPM */
static char *noname[] = {
/* width height ncolors chars_per_pixel */
"24 25 42 1",
/* colors */
"  c #000000",
". c #36582E",
"X c #87AC7D",
"o c #81A877",
"O c #7DA473",
"+ c #719A67",
"@ c #E4EBE2",
"# c #DEE7DC",
"$ c #D7E3D5",
"% c #608C56",
"& c #5B8851",
"* c #B1C7AC",
"= c #4E7C44",
"- c #84A979",
"; c #49763F",
": c #46703C",
"> c #DCE6D9",
", c #548149",
"< c #121B12",
"1 c #83AA7A",
"2 c #709864",
"3 c #81A878",
"4 c #F1F5F0",
"5 c #EFF3EE",
"6 c #EEF3ED",
"7 c #EBF1EA",
"8 c #E9EFE8",
"9 c #739C6A",
"0 c #80A776",
"q c #729B68",
"w c #DFE8DD",
"e c #FFFFFF",
"r c #516F4A",
"t c #F4F7F4",
"y c #F3F7F3",
"u c #67925C",
"i c #243221",
"p c #375930",
"a c #C6D7C3",
"s c #6FA763",
"d c #F2F6F1",
"f c None",
/* pixels */
"ffffffffffffffffffffffff",
"ffffffffffffffffffffffff",
"ffffffffffffffffffffffff",
"ffffffffffffffffffffffff",
"ffffffffffffffffffffffff",
"ffffffffffffffff  ffffff",
"ffffffffffffff  a ffffff",
"ffffffffffff  @ea ffffff",
"ffffffffff  weyya ffffff",
"ffffffff  >ed54ta ffffff",
"ffffff <#e677555a ffffff",
"ffff  *e8$#@7555aiffffff",
"ffff  p,q0Oo1X1Xu ffffff",
"ffffff  r=9-03X1u ffffff",
"ffffffff  p=2o0Xu ffffff",
"ffffffffff  ;=+0% ffffff",
"ffffffffffff  :s& ffffff",
"ffffffffffffff  . ffffff",
"ffffffffffffffff  ffffff",
"ffffffffffffffffffffffff",
"ffffffffffffffffffffffff",
"ffffffffffffffffffffffff",
"ffffffffffffffffffffffff",
"ffffffffffffffffffffffff",
"ffffffffffffffffffffffff"
};
