/* XPM */
static char *noname[] = {
/* width height ncolors chars_per_pixel */
"24 24 54 1",
/* colors */
"  c #000000",
". c #42423A",
"X c #F5F5DC",
"o c #F1F1D8",
"O c #A7A796",
"+ c #A5A594",
"@ c #D9D9C3",
"# c #D7D7C1",
"$ c #AEAE9C",
"% c #E6E6CF",
"& c #E4E4CD",
"* c #E2E2CB",
"= c #E0E0C9",
"- c #DEDEC7",
"; c #DCDCC5",
": c #DADAC3",
"> c #616156",
", c #272727",
"< c #AEAEA8",
"1 c #A5A595",
"2 c #EDEDD5",
"3 c #EBEBD3",
"4 c #E9E9D1",
"5 c #9F9F8F",
"6 c #E7E7CF",
"7 c #DDDDD9",
"8 c #E1E1C9",
"9 c #EAEAE2",
"0 c #B3B3AC",
"q c #D1D1BC",
"w c #ACAC9B",
"e c #F2F2D9",
"r c #F0F0D7",
"t c #EEEED5",
"y c #707070",
"u c #B7B7A5",
"i c #929284",
"p c #D8D8C2",
"a c #D4D4BE",
"s c #A3A391",
"d c #E5E5CE",
"f c #E3E3CC",
"g c #DFDFC8",
"h c #DDDDC6",
"j c #DBDBC4",
"k c #919182",
"l c #B4B4A1",
"z c #A6A696",
"x c #ECECD4",
"c c #EAEAD2",
"v c None",
"b c #E8E8D0",
"n c #E2E2CA",
"m c #BBBBA7",
/* pixels */
"vvvvvvvvvvvvvvvvvvvvvvvv",
"vvvvvvvvvvvvvvvvvvvvvvvv",
"vvvvvvvvvvvvvvvvvvvvvvvv",
"vvvvvvvvvvvvvvvvvvvvvvvv",
"vvvvvvvvvvvvvvvvvvvvvvvv",
"vvvvvvvv  vvvvvvvvvvvvvv",
"vvvvvv  qk vvvvvvvvvvvvv",
"vvvv ,<uap vvvv  vvvvvvv",
"vvvv 9y0#jw v  qk vvvvvv",
"vvvv 7.1:-n ,<uap vvvvvv",
"vvvv >+@h8& 9y0#jw vvvvv",
"vvvv mp;=f6 7.1:-n vvvvv",
"vvvv ijg*%c >+@h8&l vvvv",
"vvvvv -nd42 mp;=f63s vvv",
"vvvvv $&bxr ijg*%cte vvv",
"vvvvvv 63s   -nd42oXO vv",
"vvvvvv 5  vv $&bxrz  vvv",
"vvvvvvv vvvvv 63s  vvvvv",
"vvvvvvvvvv vv 5  vvvvvvv",
"vvvvvvv     vv vvvvvvvvv",
"vvvvvvv     vvvvvvvvvvvv",
"vvvvvvvvvv vvvvvvvvvvvvv",
"vvvvvvvvvvvvvvvvvvvvvvvv",
"vvvvvvvvvvvvvvvvvvvvvvvv"
};
