/* XPM */
static char *noname[] = {
/* width height ncolors chars_per_pixel */
"24 24 49 1",
/* colors */
"  c #000000",
". c #CBDAC7",
"X c #C9D8C5",
"o c #5D8554",
"O c #87AC7D",
"+ c #83AA7C",
"@ c #82A87B",
"# c #E4EBE2",
"$ c #DEE7DC",
"% c #D7E3D5",
"& c #9ABB8F",
"* c #3A5934",
"= c #537C49",
"- c #B1C7AC",
"; c #3B5E31",
": c #D4E0D1",
"> c #CEDCCB",
", c #2B2B2B",
"< c #445840",
"1 c #85A879",
"2 c #3F6534",
"3 c #749868",
"4 c #83AA7A",
"5 c #F1F5F0",
"6 c #EFF3EE",
"7 c #EEF3ED",
"8 c #EBF1EA",
"9 c #9DBB90",
"0 c #749A6B",
"q c #37592F",
"w c #86A97C",
"e c #80A776",
"r c #EDF2EB",
"t c #E5ECE3",
"y c #E1EADF",
"u c #59814F",
"i c #FFFFFF",
"p c #88AC80",
"a c #F4F7F4",
"s c #F3F7F3",
"d c #7EA476",
"f c #759C6D",
"g c #84A778",
"h c #4B7040",
"j c #90B387",
"k c #181818",
"l c None",
"z c #F0F4EF",
"x c #759B6C",
/* pixels */
"llllllllllllllllllllllll",
"llllllllllllllllllllllll",
"llllllllllllllllllllllll",
"llllllllllllllllllllllll",
"llllllllllllllllllllllll",
"llllll  llllllllllllllll",
"llllll y  llllllllllllll",
"llllll iz:  llllllllllll",
"llllll isrz>  llllllllll",
"llllll ia5685X  llllllll",
"llllll i66688tz.k llllll",
"llllll,i6668#$%$7-  llll",
"llllll 9p+p+1dgxu*  llll",
"llllll &4O@gwf=<  llllll",
"llllll &Oe13=h  llllllll",
"llllll je0=;  llllllllll",
"llllll +oq  llllllllllll",
"llllll 2  llllllllllllll",
"llllll  llllllllllllllll",
"llllllllllllllllllllllll",
"llllllllllllllllllllllll",
"llllllllllllllllllllllll",
"llllllllllllllllllllllll",
"llllllllllllllllllllllll"
};
