/* XPM */
static char *noname[] = {
/* width height ncolors chars_per_pixel */
"24 24 27 1",
/* colors */
"  c #000000",
". c #D3D8CF",
"X c #C9D0C5",
"o c #C7CEC3",
"O c #6D7B64",
"+ c #6B7962",
"@ c #839279",
"# c #A6B19E",
"$ c #7F8F74",
"% c #E0E4DD",
"& c #B9C2B3",
"* c #B7C0B1",
"= c #626F5A",
"- c #EFF1EE",
"; c #D8DDD4",
": c #000100",
"> c #D4D9D0",
", c #D2D7CE",
"< c #CCD3C8",
"1 c #C8CFC4",
"2 c #6C7A63",
"3 c #6A7861",
"4 c #FFFFFF",
"5 c #7A8A6F",
"6 c #B8C1B2",
"7 c #CFD7CF",
"8 c None",
/* pixels */
"888888888888888888888888",
"888888888888888888888888",
"888888888888888888888888",
"888888888888888888888888",
"88888888888 88   8888888",
"8888888888 4 8 7 8888888",
"888888888 4%@  X 8888888",
"88888888 44>&$:o 8888888",
"8888888 44,<1*$1 8888888",
"888888 -4,111X65 8888888",
"88888 44.11X11162 888888",
"8888 444X11X1ooo#= 88888",
"888   441111ooooO   8888",
"88888 44X1oooooo2 888888",
"88888 44    oooo2 888888",
"88888 44 oo ooo12 888888",
"88888 44 11 111o3 888888",
"88888 4; << 11oo+ 888888",
"88888 XO 22 223+2 888888",
"88888             888888",
"888888888888888888888888",
"888888888888888888888888",
"888888888888888888888888",
"888888888888888888888888"
};
