/* XPM */
static char *noname[] = {
/* width height ncolors chars_per_pixel */
"24 24 89 1",
/* colors */
"  c #000000",
". c #DCDCC4",
"X c #929282",
"o c #797973",
"O c #ADAD9C",
"+ c #F5F5DC",
"@ c #F3F3DA",
"# c #F1F1D8",
"$ c #A7A796",
"% c #EFEFD6",
"& c #A5A594",
"* c #EDEDD4",
"= c #EBEBD2",
"- c #E9E9D0",
"; c #EEEEE5",
": c #DDDDC7",
"> c #B8B8A6",
", c #D9D9C3",
"< c #D7D7C1",
"1 c #D5D5BF",
"2 c #3D3D37",
"3 c #A6A694",
"4 c #ECECEC",
"5 c #E0E0C9",
"6 c #BBBBA8",
"7 c #DCDCC5",
"8 c #DADAC3",
"9 c #D8D8C1",
"0 c #D6D6BF",
"q c #D0D0B9",
"w c #CECEB7",
"e c #98988F",
"r c #EBEBD3",
"t c #E9E9D1",
"y c #E7E7CF",
"u c #E5E5CD",
"i c #E3E3CB",
"p c #E1E1C9",
"a c #4D4D45",
"s c #DFDFC7",
"d c #959585",
"f c #DDDDC5",
"g c #D5D5BD",
"h c #D1D1B9",
"j c #EEEEE6",
"k c #F4F4DB",
"l c #F2F2D9",
"z c #CDCDB8",
"x c #F0F0D7",
"c c #818174",
"v c #EEEED5",
"b c #ECECD3",
"n c #EAEAD1",
"m c #E4E4CB",
"M c #7C7C7C",
"N c #D8D8C2",
"B c #646464",
"V c #D2D2BC",
"C c #828274",
"Z c #505050",
"A c #4E4E4E",
"S c #3C3C3C",
"D c #EDEDED",
"F c #BEBEAB",
"G c #E1E1CA",
"H c #DFDFC8",
"J c #E7E7E7",
"K c #DDDDC6",
"L c #343434",
"P c #DBDBC4",
"I c #D9D9C2",
"U c #8F8F80",
"Y c #D7D7C0",
"T c #B2B29F",
"R c #D3D3BC",
"E c #BEBEAE",
"W c #242424",
"Q c #A6A696",
"! c #ECECD4",
"~ c #EAEAD2",
"^ c None",
"/ c #E8E8D0",
"( c #E6E6CE",
") c #E4E4CC",
"_ c #E2E2CA",
"` c #E0E0C8",
"' c #969686",
"] c #373736",
"[ c #DEDEC6",
/* pixels */
"^^^^^^^^^^^^^^^^^^^^^^^^",
"^^^^^^^^^^^^^^^^^^^^^^^^",
"^^^^^^^^^^^^^ ^^^^^^^^^^",
"^^^^^^^^^^^  O ^^^^^^^^^",
"^^^^^^^^^  d7HW^^^^^^^^^",
"^^^^^^^  $<,.:G ^^^^^^^^",
"^^^^^  30<<NPsiT ^^^^^^^",
"^^^^ MB0g1Y8[putL^^^^^^^",
"^^^^ J]>R<If`u/!v ^^^^^^",
"^^^^ 4D2w1P`(/~v#& ^^^^^",
"^^^^ ;;SUq`mnb%#l@ ^^^^^",
"^^^^ jZXh.py=v#@@k+ ^^^^",
"^^^^  'VP5i-*x@kk++F ^^^",
"^^^^ o9IKGynv#@+++++N ^^",
"^^^^ eP7H)y=v#@+++++c ^^",
"^^^^^ s`_utb%lk++++  ^^^",
"^^^^^ Euu/~*x@k++8 ^^^^^",
"^^^^^^A/t~*%l@klC ^^^^^^",
"^^^^^^ r!*%#ll8 ^^^^^^^^",
"^^^^^^^ %x#lt& ^^^^^^^^^",
"^^^^^^^ 6l@za ^^^^^^^^^^",
"^^^^^^^^ @Q ^^^^^^^^^^^^",
"^^^^^^^^^  ^^^^^^^^^^^^^",
"^^^^^^^^^^^^^^^^^^^^^^^^"
};
