/* XPM */
static char *noname[] = {
/* width height ncolors chars_per_pixel */
"24 24 48 1",
/* colors */
"  c #000000",
". c #CBDAC7",
"X c #C9D8C5",
"o c #5D8554",
"O c #87AC7D",
"+ c #83AA7C",
"@ c #82A87B",
"# c #E4EBE2",
"$ c #DEE7DC",
"% c #D7E3D5",
"& c #9ABB8F",
"* c #3A5934",
"= c #537C49",
"- c #B1C7AC",
"; c #3B5E31",
": c #D4E0D1",
"> c #CEDCCB",
", c #445840",
"< c #85A879",
"1 c #3F6534",
"2 c #749868",
"3 c #83AA7A",
"4 c #F1F5F0",
"5 c #EFF3EE",
"6 c #EEF3ED",
"7 c #EBF1EA",
"8 c #9DBB90",
"9 c #749A6B",
"0 c #37592F",
"q c #86A97C",
"w c #80A776",
"e c #EDF2EB",
"r c #E5ECE3",
"t c #E1EADF",
"y c #59814F",
"u c #FFFFFF",
"i c #88AC80",
"p c #F4F7F4",
"a c #F3F7F3",
"s c #7EA476",
"d c #759C6D",
"f c #84A778",
"g c #4B7040",
"h c #90B387",
"j c #181818",
"k c None",
"l c #F0F4EF",
"z c #759B6C",
/* pixels */
"kkkkkkkkkkkkkkkkkkkkkkkk",
"kkkkkkkkkkkkkkkkkkkkkkkk",
"kkkkkkkkkkkkkkkkkkkkkkkk",
"kkkkkkkkkkkkkkkkkkkkkkkk",
"kkkkkkkkkkkkkkkkkkkkkkkk",
"kkkk  kkkkkkkkkkk    kkk",
"kkkk t  kkkkkkkkk tt kkk",
"kkkk ul:  kkkkkkk uu kkk",
"kkkk uael>  kkkkk uu kkk",
"kkkk up4574X  kkk uu kkk",
"kkkk u55577rl.j k uu kkk",
"kkkk u5557#$%$6-  uu kkk",
"kkkk 8i+i+<sfzy*  88 kkk",
"kkkk &3O@fqd=,  k && kkk",
"kkkk &Ow<2=g  kkk && kkk",
"kkkk hw9=;  kkkkk hh kkk",
"kkkk +o0  kkkkkkk ++ kkk",
"kkkk 1  kkkkkkkkk 11 kkk",
"kkkk  kkkkkkkkkkk    kkk",
"kkkkkkkkkkkkkkkkkkkkkkkk",
"kkkkkkkkkkkkkkkkkkkkkkkk",
"kkkkkkkkkkkkkkkkkkkkkkkk",
"kkkkkkkkkkkkkkkkkkkkkkkk",
"kkkkkkkkkkkkkkkkkkkkkkkk"
};
