/* XPM */
static char *noname[] = {
/* width height ncolors chars_per_pixel */
"24 24 105 2",
/* colors */
"   c #000000",
" . c #C9C7B8",
" X c #42423A",
" o c #F5F5DC",
" O c #F1F1D8",
" + c #A7A796",
" @ c #A5A594",
" # c #B8B4A0",
" $ c #C0BEAB",
" % c #CFCCBD",
" & c #CDCABB",
" * c #BAB8A5",
" = c #CAC8B8",
" - c #7E7E74",
" ; c #595956",
" : c #D9D9C3",
" > c #D7D7C1",
" , c #AEAE9C",
" < c #D1CFBE",
" 1 c #C0BBAA",
" 2 c #CFCBBC",
" 3 c #BCB9A6",
" 4 c #C9C5B6",
" 5 c #E6E6CF",
" 6 c #E4E4CD",
" 7 c #E2E2CB",
" 8 c #4D4C46",
" 9 c #E0E0C9",
" 0 c #DEDEC7",
" q c #DCDCC5",
" w c #595855",
" e c #DADAC3",
" r c #616156",
" t c #272727",
" y c #AEAEA8",
" u c #73736E",
" i c #A5A595",
" p c #EDEDD5",
" a c #B8B4A1",
" s c #7E7C72",
" d c #EBEBD3",
" f c #E9E9D1",
" g c #9F9F8F",
" h c #E7E7CF",
" j c #C3C0AF",
" k c #C2BEAE",
" l c #DDDDD9",
" z c #CFCEBE",
" x c #E1E1C9",
" c c #CAC8B9",
" v c #C9C6B8",
" b c #EAEAE2",
" n c #B3B3AC",
" m c #ACABA5",
" M c #D1D1BC",
" N c #ACAC9B",
" B c #4D4D4B",
" V c #F2F2D9",
" C c #F0F0D7",
" Z c #EEEED5",
" A c #B9B5A1",
" S c #C3BFAE",
" D c #C1BDAC",
" F c #D0CFBE",
" G c #CFCDBD",
" H c #CDC9BB",
" J c #CCC9BA",
" K c #CBC9B9",
" L c #CAC7B8",
" P c #A09F9C",
" I c #C7C5B5",
" U c #707070",
" Y c #B7B7A5",
" T c #929284",
" R c #D8D8C2",
" E c #D4D4BE",
" W c #3E3C38",
" Q c #A3A391",
" ! c #CFCCBC",
" ~ c #CECABB",
" ^ c #A4A195",
" / c #7E7C73",
" ( c #E5E5CE",
" ) c #DDDDDA",
" _ c #E3E3CC",
" ` c #DFDFC8",
" ' c #DDDDC6",
" ] c #DBDBC4",
" [ c #919182",
" { c #B4B4A1",
" } c #CFCBBB",
" | c #A6A696",
".  c #ECECD4",
".. c #B7B3A0",
".X c #EAEAD2",
".o c None",
".O c #C5C1B1",
".+ c #E8E8D0",
".@ c #2F2F2B",
".# c #CFCDBE",
".$ c #E2E2CA",
".% c #BBBBA7",
".& c #CCC9BB",
".* c #CBC9BA",
".= c #CAC9B9",
/* pixels */
".o.o.o.o.o.o.o.o.o.o.o.o.o.o.o.o.o.o.o.o.o.o.o.o",
".o.o.o.o.o.o.o.o.o.o.o.o.o.o.o.o.o.o.o.o.o.o.o.o",
".o.o.o.o.o.o.o.o.o.o.o.o.o.o.o.o.o.o.o.o.o.o.o.o",
".o.o.o.o.o.o.o.o.o      .o.o.o.o.o.o.o.o.o.o.o.o",
".o.o.o.o.o.o.o    .# % 2  .o.o.o.o.o.o  .o.o.o.o",
".o.o.o.o.o     F z % 2 ~  .o.o.o          .o.o.o",
".o.o.o     < F -.@ w P ~.&  .o.o          .o.o.o",
".o.o   < < < ; ) m s W H J  .o.o.o.o.o  .o.o.o.o",
".o.o   < < F B m / W &.&.* c  .o.o.o.o.o.o.o.o.o",
".o.o.o   F z u 8 ^ &.&.* c L  .o    .o.o.o.o.o.o",
".o.o.o   z G ! } ~ H.*.= = v     M [  .o.o.o.o.o",
".o.o.o.o   % 2 ~ & J K =   t y Y E R  .o.o.o.o.o",
".o.o.o.o   2 ~ &.&.* c L   b U n > ] N  .o.o.o.o",
".o.o.o.o.o   ~.&.*.= L v   l X i e 0.$  .o.o.o.o",
".o.o.o.o.o   H J.= = . 4   r @ : ' x 6 {  .o.o.o",
".o.o.o.o.o.o  .* L I.O $  .% R q 9 _ h d Q  .o.o",
".o.o.o.o.o.o   j S k D *   T ] ` 7 5.X Z V  .o.o",
".o.o.o.o.o.o.o   1 3 a..     0.$ ( f p O o +  .o",
".o.o.o.o.o.o.o   A #    .o   , 6.+.  C |    .o.o",
".o.o.o.o.o.o.o.o    .o.o.o.o   h d Q    .o.o.o.o",
".o.o.o.o.o.o.o.o.o.o.o.o.o.o   g    .o.o.o.o.o.o",
".o.o.o.o.o.o.o.o.o.o.o.o.o.o.o  .o.o.o.o.o.o.o.o",
".o.o.o.o.o.o.o.o.o.o.o.o.o.o.o.o.o.o.o.o.o.o.o.o",
".o.o.o.o.o.o.o.o.o.o.o.o.o.o.o.o.o.o.o.o.o.o.o.o"
};
