/* XPM */
static char *preview[] = {
/* width height num_colors chars_per_pixel */
"    24    24      186            2",
/* colors */
".. c #000000",
".# c #00003b",
".a c #000057",
".b c #000058",
".c c #000059",
".d c #00005e",
".e c #00005f",
".f c #000086",
".g c #000088",
".h c #00008b",
".i c #00008f",
".j c #0000ba",
".k c #0000bf",
".l c #0000d4",
".m c #0000e1",
".n c #0000e4",
".o c #0000e7",
".p c #0000ec",
".q c #0000fe",
".r c #010101",
".s c #050505",
".t c #0a0a0a",
".u c #0a0a93",
".v c #0b0c44",
".w c #0d0deb",
".x c #101010",
".y c #131314",
".z c #1414f0",
".A c #161616",
".B c #161617",
".C c #171719",
".D c #1a1a1a",
".E c #1b1b62",
".F c #1d1e4e",
".G c #2423a4",
".H c #2425e7",
".I c #252525",
".J c #2626ea",
".K c #2b2dd5",
".L c #2d2d2d",
".M c #2e2e2e",
".N c #313131",
".O c #3137ee",
".P c #353535",
".Q c #363636",
".R c #373737",
".S c #393896",
".T c #393939",
".U c #3a3a3a",
".V c #3b3b3b",
".W c #3c3b83",
".X c #3c3eb4",
".Y c #3d3b30",
".Z c #3d3d3d",
".0 c #3e3e3e",
".1 c #404040",
".2 c #414141",
".3 c #4249f1",
".4 c #4347ee",
".5 c #444aff",
".6 c #454545",
".7 c #4545e3",
".8 c #464646",
".9 c #474747",
"#. c #484848",
"## c #484aec",
"#a c #484cff",
"#b c #494949",
"#c c #4a4a4a",
"#d c #4b4b4b",
"#e c #4b4bb7",
"#f c #4b4ef0",
"#g c #4b4ff3",
"#h c #4b50f3",
"#i c #4d4d4d",
"#j c #4e4e4e",
"#k c #4f4f4f",
"#l c #505050",
"#m c #555555",
"#n c #5556ec",
"#o c #565658",
"#p c #56565e",
"#q c #565cff",
"#r c #5b5b5b",
"#s c #5d60f5",
"#t c #606060",
"#u c #616161",
"#v c #636363",
"#w c #636af4",
"#x c #646464",
"#y c #666666",
"#z c #666af0",
"#A c #666efb",
"#B c #676eef",
"#C c #6869f3",
"#D c #696969",
"#E c #696beb",
"#F c #6a70eb",
"#G c #6e6e6e",
"#H c #6f6f6f",
"#I c #707070",
"#J c #7075f5",
"#K c #717171",
"#L c #7178ec",
"#M c #727272",
"#N c #7379ed",
"#O c #7578ec",
"#P c #757cfa",
"#Q c #7b7b7b",
"#R c #7b7feb",
"#S c #7d82eb",
"#T c #7f7f7f",
"#U c #8088ea",
"#V c #8486e7",
"#W c #868686",
"#X c #898feb",
"#Y c #8a8df0",
"#Z c #8a8eeb",
"#0 c #8b90ed",
"#1 c #8c94ea",
"#2 c #8d8d8d",
"#3 c #8f90b9",
"#4 c #8f92eb",
"#5 c #909090",
"#6 c #9095ee",
"#7 c #9499eb",
"#8 c #949bec",
"#9 c #969696",
"a. c #969ae8",
"a# c #999eeb",
"aa c #9da0eb",
"ab c #9e9e9e",
"ac c #9fa2ef",
"ad c #a0a0a0",
"ae c #a0a7eb",
"af c #a1a1a1",
"ag c #a2a2a2",
"ah c #a2a5ed",
"ai c #a3a3a3",
"aj c #a5a29e",
"ak c #a5a6dc",
"al c #a8a8a8",
"am c #a9a9a9",
"an c #aaaaaa",
"ao c #aaaaab",
"ap c #ababab",
"aq c #acacac",
"ar c #adadad",
"as c #adaeb4",
"at c #afafaf",
"au c #afb1ec",
"av c #b0b3eb",
"aw c #b1b1b1",
"ax c #b2b2b2",
"ay c #b3b2d3",
"az c #b3b3b3",
"aA c #b4b4b4",
"aB c #b7b7b7",
"aC c #b7b8d4",
"aD c #b8b9eb",
"aE c #babcee",
"aF c #bbbbbb",
"aG c #bbc0eb",
"aH c #c4c4c3",
"aI c #cacce5",
"aJ c #cbcbcb",
"aK c #cdcdcd",
"aL c #ced0f1",
"aM c #d0d0d0",
"aN c #d5d4e3",
"aO c None",
"aP c #dbe1eb",
"aQ c #e1e1e1",
"aR c #e4e3df",
"aS c #e8e6eb",
"aT c #e9e9e9",
"aU c #e9eaed",
"aV c #ebebeb",
"aW c #ecedf0",
"aX c #ededed",
"aY c #eff4eb",
"aZ c #f5f5f5",
"a0 c #f6f6f4",
"a1 c #fafafa",
"a2 c #fefeea",
"a3 c #ffffff",
/* pixels */
"aOaOaOaOaOaOaOaOaOaOaOaOaOaOaOaOaOaOaOaOaOaOaOaO",
"aOaOaOaOaOaOaOaOaOaOaOaOaOaOaOaOaOaOaOaOaOaOaOaO",
"aOaOaOaOaOaOaOaOaOaOaOaOaOaOaOaOaOaOaOaOaOaOaOaO",
"aOaOaOaOaOaOaOaOaOaOaO....aOaOaOaOaOaOaOaOaOaOaO",
"aOaOaOaOaOaOaOaOaOaO.Ca0aK#x.B..aOaOaOaOaOaOaOaO",
"aOaOaOaOaOaOaOaOaO.F.o.a.d.h.zaH.8......aOaOaOaO",
"aOaOaOaOaOaOaOaO.u.H#CaIaDa..3.JaNaRaj..aOaOaOaO",
"aOaOaOaOaOaOaOaO.K##auaUaEah#O.p#Vay..aOaOaOaOaO",
"aOaOaOaOaOaO.y.l#zacaYaSavaea##g.m.XaOaOaOaOaOaO",
"aOaOaOaO....aM.#aCaWa2aa#7#1#U#P.f.E..aOaOaOaOaO",
"aOaO....aJaTaX.bakaLaP#4#Z#S#F#A.g.W#G....aOaOaO",
"aO..#2aBaVa1aZ.k#E#6aG#X#R#L#w#a.n#e#b.M..aOaOaO",
"aO..aqanalaFaQ#f.4#n#8#0#N#B#q.G.j.S.Q.U..aOaOaO",
"aO..azawatamalam.7.w#h#Y#J#s.O.....Y.9.2..aOaOaO",
"aO..#DafaBaAaxanag#3.o.c.e.i.q.5.v...s.V..aOaOaO",
"aO..#y.9#vaiarapamaoasai#5#o#p.......r.t..aOaOaO",
"aO..#r#r#d.8#c#t#Wagadab#T.R.Z.D.A.x......aOaOaO",
"aOaO....#i#l#m#k.8.6#j#u#Q.T.V.L.P.I........aOaO",
"aOaOaOaO.......2#r#m#x#K#H.1.N.R....aO........aO",
"aOaOaOaOaOaOaO......#.#I#M.U.0..aOaOaOaO......aO",
"aOaOaOaOaOaOaOaOaOaO..........aOaOaOaOaOaOaOaOaO",
"aOaOaOaOaOaOaOaOaOaOaOaOaOaOaOaOaOaOaOaOaOaOaOaO",
"aOaOaOaOaOaOaOaOaOaOaOaOaOaOaOaOaOaOaOaOaOaOaOaO",
"aOaOaOaOaOaOaOaOaOaOaOaOaOaOaOaOaOaOaOaOaOaOaOaO"
};
