/* XPM */
static char *noname[] = {
/* width height ncolors chars_per_pixel */
"24 24 153 2",
/* colors */
"   c #000000",
" . c #B1B1B1",
" X c #AFAFAF",
" o c #ADADAD",
" O c #ABABAB",
" + c #A9A9A9",
" @ c #A7A7A7",
" # c #A5A5A5",
" $ c #A3A3A3",
" % c #A1A1A1",
" & c #999999",
" * c #959595",
" = c #848381",
" - c #A5A29E",
" ; c #E8E7E3",
" : c #8D8D8D",
" > c #F8F7F6",
" , c #E6E5E1",
" < c #F6F5F4",
" 1 c #E4E3DF",
" 2 c #F3F3F1",
" 3 c #BCBCBB",
" 4 c #F1F1EF",
" 5 c #7F7F7F",
" 6 c #7B7B7B",
" 7 c #717171",
" 8 c #6F6F6F",
" 9 c #696969",
" 0 c #676767",
" q c #636363",
" w c #616161",
" e c #5B5B5B",
" r c #C5C5C3",
" t c #B5B3B0",
" y c #555555",
" u c #E2E0DC",
" i c #F1F0EE",
" p c #4F4F4F",
" a c #DFDED9",
" s c #EFEEEC",
" d c #4D4D4D",
" f c #EDECEA",
" g c #4B4B4B",
" h c #EBEAE8",
" j c #494949",
" k c #FAFAFA",
" l c #474747",
" z c #454545",
" x c #F6F6F6",
" c c #F4F4F4",
" v c #414141",
" b c #F2F2F2",
" n c #3F3F3F",
" m c #F0F0F0",
" M c #646260",
" N c #EEEEEE",
" B c #3B3B3B",
" V c #393939",
" C c #EAEAEA",
" Z c #373737",
" A c #E8E8E8",
" S c #353535",
" D c #333333",
" F c #313131",
" G c #E2E2E2",
" H c #2F2F2F",
" J c #E0E0E0",
" K c #2D2D2D",
" L c #272727",
" P c #D2D2D2",
" I c #CECECE",
" U c #C6C6C6",
" Y c #EAE9E6",
" T c #7D7D7B",
" R c #F7F7F6",
" E c #444443",
" W c #CDCBC6",
" Q c #B6B6B6",
" ! c #B4B4B4",
" ~ c #B2B2B2",
" ^ c #ACACAC",
" / c #AAAAAA",
" ( c #A8A8A8",
" ) c #A6A6A6",
" _ c #CBC9C7",
" ` c #A2A2A2",
" ' c #A0A0A0",
" ] c #9E9E9E",
" [ c #E7E6E2",
" { c #F7F6F5",
" } c #E5E4E0",
" | c #F5F4F3",
".  c #F4F4F2",
".. c #E3E2DE",
".X c #F2F2F0",
".o c #868686",
".O c #727272",
".+ c #707070",
".@ c #5F5E5C",
".# c #6E6E6E",
".$ c #666666",
".% c #646464",
".& c #606060",
".* c #5E5E5E",
".= c #585858",
".- c #545454",
".; c #E3E1DD",
".: c #505050",
".> c #F0EFED",
"., c #4E4E4E",
".< c #DEDDD8",
".1 c #EEEDEB",
".2 c #ECEBE9",
".3 c #4A4A4A",
".4 c #EAE9E7",
".5 c #484848",
".6 c #464646",
".7 c #424242",
".8 c #F3F3F3",
".9 c #404040",
".0 c #646360",
".q c #3E3E3E",
".w c #EFEFEF",
".e c #3C3C3C",
".r c #EDEDED",
".t c #3A3A3A",
".y c #EBEBEB",
".u c #383838",
".i c #E9E9E9",
".p c #363636",
".a c #343434",
".s c #E5E5E5",
".d c #E1E1E1",
".f c #9A9A98",
".g c #2E2E2E",
".h c #504F4C",
".j c #DBDBDB",
".k c #929290",
".l c #262626",
".z c #D5D5D5",
".x c #CBCBCB",
".c c #C9C9C9",
".v c #B5B3B2",
".b c #FAFAF9",
".n c #E9E8E5",
".m c #C3C3C3",
".M c None",
".N c #403F3F",
".B c #BBBBBB",
".V c #DDDCD9",
".C c #060606",
".Z c #B7B7B7",
".A c #B3B3B3",
/* pixels */
".M.M.M.M.M.M.M.M.M.M.M.M.M.M.M.M.M.M.M.M.M.M.M.M",
".M.M.M.M.M.M.M.M.M.M.M.M.M.M.M.M.M.M.M.M.M.M.M.M",
".M.M.M.M.M.M.M.M.M.M.M.M.M.M.M.M.M.M.M.M.M.M.M.M",
".M.M.M.M.M.M.M.M.M.M.M.M    .M.M.M.M.M.M.M.M.M.M",
".M.M.M.M.M.M.M.M.M.M.M   R.c.-    .M.M.M.M.M.M.M",
".M.M.M.M.M.M.M.M.M.M  .b > |.X i r.6      .M.M.M",
".M.M.M.M.M.M.M.M.M   U {.  4 s.2 Y [ 1 -  .M.M.M",
".M.M.M.M.M.M.M.M.M K < 2 i.1 h.n ,.. _  .M.M.M.M",
".M.M.M.M.M.M.M  .C ).X.> f.4 ; }.;.V.=.M.M.M.M.M",
".M.M.M.M.M     I Q.f T.2 Y [ 1 u a 3    .M.M.M.M",
".M.M.M    .x.i.r.i G.v.@.@ = t.< W.N.*.#    .M.M",
".M.M   :.Z.y k x c b m N.r.k M.h.0 E 0 j.g  .M.M",
".M.M   ^ / (.B.d.8.r b.w.y C A.i.z v L.p.t  .M.M",
".M.M  .A . X + ( + P.s.w m A b.j l V.e.u v  .M.M",
".M.M   9 %.Z ! ~ / ` ' & P J.m.7 H S.q.9 B  .M.M",
".M.M  .$ l q $ o O + @ # * 6 D.l.t.e n.t S  .M.M",
".M.M   e e g.6.3.&.o ` ' ] 5 Z.t.e D V.e    .M.M",
".M.M.M     d.: y p.6 z., w 6 V B K S.a  .M.M.M.M",
".M.M.M.M.M       v e y.% 7 8.9 F Z    .M.M.M.M.M",
".M.M.M.M.M.M.M.M      .5.+.O.t.q  .M.M.M.M.M.M.M",
".M.M.M.M.M.M.M.M.M.M.M          .M.M.M.M.M.M.M.M",
".M.M.M.M.M.M.M.M.M.M.M.M.M.M.M.M.M.M.M.M.M.M.M.M",
".M.M.M.M.M.M.M.M.M.M.M.M.M.M.M.M.M.M.M.M.M.M.M.M",
".M.M.M.M.M.M.M.M.M.M.M.M.M.M.M.M.M.M.M.M.M.M.M.M"
};
