/* XPM */
static char *noname[] = {
/* width height ncolors chars_per_pixel */
"24 24 13 1",
/* colors */
"  c #000000",
". c #2D2D2D",
"X c #A75E5F",
"o c #E4E4DC",
"O c #8A4D4F",
"+ c #9E575B",
"@ c #CD8689",
"# c #AF6668",
"$ c #C67D81",
"% c #BE7579",
"& c None",
"* c #080808",
"= c #B66D71",
/* pixels */
"&&&&&&&&&&&&&&&&&&&&&&&&",
"&&&&&&&&&&&&&&&&&&&&&&&&",
"&&&&&&&&&&&&&&&&&&&&&&&&",
"&&&&&&&&&&&&&&&&&&&&&&&&",
"&&&&&&&&&&&&&&&&&&&&&&&&",
"&&&&&&&&&&         &&&&&",
"&&&&&&&&&& oooooo  &&&&&",
"&&&&&&&&&& oooooo  &&&&&",
"&&&&&&&&   oooooo  &&&&&",
"&&&&&&&& % oooooo  &&&&&",
"&&&      %$ oo. o  &&&&&",
"&&& O+X#=%$@ o .o  &&&&&",
"&&& O+X#=%$@ oooo  &&&&&",
"&&&      %$ ooooo  &&&&&",
"&&&&&&&& % oooooo  &&&&&",
"&&&&&&&&   oooooo  &&&&&",
"&&&&&&&&&& oooo    &&&&&",
"&&&&&&&&&& oo      &&&&&",
"&&&&&&&&&&   ******&&&&&",
"&&&&&&&&&&&&&&&&&&&&&&&&",
"&&&&&&&&&&&&&&&&&&&&&&&&",
"&&&&&&&&&&&&&&&&&&&&&&&&",
"&&&&&&&&&&&&&&&&&&&&&&&&",
"&&&&&&&&&&&&&&&&&&&&&&&&"
};
