/* XPM */
static char *noname[] = {
/* width height ncolors chars_per_pixel */
"24 24 8 1",
/* colors */
"  c #000000",
". c #37452B",
"X c #4C603C",
"o c #526741",
"O c #566B43",
"+ c #5A7046",
"@ c #445636",
"# c None",
/* pixels */
"########################",
"########################",
"########################",
"########################",
"########################",
"########################",
"############## #########",
"##############  ########",
"###########   XO #######",
"#########  @Xoo+o ######",
"######## @@   oO #######",
"######## . ###  ########",
"####### . #### #########",
"#######  ###############",
"#######  ###############",
"######## ###############",
"######### ##############",
"########################",
"########################",
"########################",
"########################",
"########################",
"########################",
"########################"
};
