/* XPM */
static char *find[] = {
/* width height num_colors chars_per_pixel */
"    24    24      128            2",
/* colors */
".. c #000000",
".# c #080807",
".a c #080808",
".b c #090908",
".c c #242424",
".d c #33332d",
".e c #33332e",
".f c #34342f",
".g c #343434",
".h c #373736",
".i c #3c3c3c",
".j c #3d3d37",
".k c #404040",
".l c #45453e",
".m c #46463e",
".n c #46463f",
".o c #4a4a42",
".p c #4b4b43",
".q c #4b4b44",
".r c #4d4d45",
".s c #4e4e4e",
".t c #505050",
".u c #646464",
".v c #6f6f6f",
".w c #727266",
".x c #737367",
".y c #797973",
".z c #7c7c7c",
".A c #818174",
".B c #828274",
".C c #878779",
".D c #8c8c7d",
".E c #8d8d7f",
".F c #8f8f80",
".G c #909081",
".H c #929282",
".I c #929283",
".J c #959585",
".K c #959586",
".L c #969686",
".M c #98988f",
".N c #9b9b8b",
".O c #9c9c8c",
".P c #9d9d8d",
".Q c #9f9f8e",
".R c #a0a090",
".S c #a5a594",
".T c #a6a694",
".U c #a6a695",
".V c #a6a696",
".W c #a7a796",
".X c #aaaa98",
".Y c #adad9b",
".Z c #adad9c",
".0 c #b0b09d",
".1 c #b2b29f",
".2 c #b4b4a0",
".3 c #b5b5a2",
".4 c #b7b7a4",
".5 c #b8b8a6",
".6 c #babaa7",
".7 c #bbbba8",
".8 c #bebeaa",
".9 c #bebeab",
"#. c #bebeae",
"## c #c0c0ac",
"#a c #c1c1ad",
"#b c #c3c3ae",
"#c c #c3c3af",
"#d c #c4c4af",
"#e c #cacab5",
"#f c #cdcdb8",
"#g c #ceceb7",
"#h c #cfcfb9",
"#i c #d0d0b9",
"#j c #d1d1b9",
"#k c #d2d2bc",
"#l c #d3d3bc",
"#m c #d5d5bd",
"#n c #d5d5bf",
"#o c #d6d6bf",
"#p c #d7d7c0",
"#q c #d7d7c1",
"#r c #d8d8c1",
"#s c #d8d8c2",
"#t c #d9d9c2",
"#u c #d9d9c3",
"#v c #dadac3",
"#w c #dbdbc4",
"#x c #dcdcc4",
"#y c #dcdcc5",
"#z c #ddddc5",
"#A c #ddddc6",
"#B c #ddddc7",
"#C c #ddddd0",
"#D c #dedec6",
"#E c #dfdfc7",
"#F c #dfdfc8",
"#G c #e0e0c8",
"#H c #e1e1c9",
"#I c #e1e1ca",
"#J c #e2e2ca",
"#K c #e2e2d0",
"#L c #e3e3cb",
"#M c #e5e5cd",
"#N c #e6e6ce",
"#O c #e7e7e7",
"#P c #e8e8d0",
"#Q c #e9e9d1",
"#R c #eaead2",
"#S c None",
"#T c #ebebd3",
"#U c #ececd4",
"#V c #ececec",
"#W c #ededd4",
"#X c #edede5",
"#Y c #ededed",
"#Z c #eeeed5",
"#0 c #eeeee5",
"#1 c #eeeee6",
"#2 c #efefd6",
"#3 c #f0f0d7",
"#4 c #f1f1d8",
"#5 c #f2f2d9",
"#6 c #f3f3da",
"#7 c #f4f4db",
"#8 c #f5f5dc",
"#9 c #fbfbfa",
/* pixels */
"#S#S#S#S#S#S#S#S#S#S#S#S#S#S#S#S#S#S#S#S#S#S#S#S",
"#S#S#S#S#S#S#S#S#S#S#S#S#S#S#S#S#S#S#S#S#S#S#S#S",
"#S#S#S#S#S#S#S#S#S#S#S#S..#S#S#S#S#S#S#S#S#S#S#S",
"#S#S#S#S#S#S#S#S#S#S.....Z..#S#S#S#S#S#S#S#S#S#S",
"#S#S#S#S#S#S#S#S.....J#y#F.c#S#S#S#S#S#S#S#S#S#S",
"#S#S#S#S#S#S.....W#q#u#x#B#I..#S#S#S#S#S#S#S#S#S",
"#S#S#S#S.....T#o#q#q#s#w#E#L.1..#S#S#S#S#S#S#S#S",
"#S#S#S...z.u#o#m#n#p#v#D#H#M#Q.g#S#S#S#S#S#S#S#S",
"#S#S#S..#O.h.5#l#q#t#z#G#M#P#U#Z..#S#S#S#S#S#S#S",
"#S#S#S..#V#Y.j#g#n#w#G#N#P#R#Z#4.S..#S#S#S#S#S#S",
"#S#S#S..#0#0.i.F#i.2.m.b.b.o#a#5#6..#S#S#S#S#S#S",
"#S#S#S..#1.t.H#j.0.d.P#h#d.E.f#c#7#8..#S#S#S#S#S",
"#S#S#S.....L#k#w.l.O#K#X##.1.B.p#8#8.9..#S#S#S#S",
"#S#S#S...y#r#t#A.##n#9#b.3.U.K.b#8#8#8#s..#S#S#S",
"#S#S#S...M#w#y#F.a#e#C.4.X.N.D.b#8#8#8.A..#S#S#S",
"#S#S#S#S..#E#G#J.n.I.6.Y.Q.G.w.q#8#8....#S#S#S#S",
"#S#S#S#S..#.#M#M.6.e.C.R.I.x....#v..#S#S#S#S#S#S",
"#S#S#S#S#S.s#P#Q#R.8.o.b.b.k.v....#S#S#S#S#S#S#S",
"#S#S#S#S#S..#T#U#W#2#4#5#5#v........#S#S#S#S#S#S",
"#S#S#S#S#S#S..#2#3#4#5#Q.S..#S#S......#S#S#S#S#S",
"#S#S#S#S#S#S...7#5#6#f.r..#S#S#S#S......#S#S#S#S",
"#S#S#S#S#S#S#S..#6.V..#S#S#S#S#S#S#S....#S#S#S#S",
"#S#S#S#S#S#S#S#S....#S#S#S#S#S#S#S#S#S#S#S#S#S#S",
"#S#S#S#S#S#S#S#S#S#S#S#S#S#S#S#S#S#S#S#S#S#S#S#S"
};
