/* XPM */
static char *noname[] = {
/* width height ncolors chars_per_pixel */
"24 24 2 1",
/* colors */
"  c #000000",
". c None",
/* pixels */
"........................",
"........................",
"........................",
"........................",
"........................",
"........................",
"........................",
"........................",
"........    ..   .......",
".........  .... ........",
".........  .... ........",
".........  .... ........",
".........  .... ........",
".........  .... ........",
".........  .... ........",
".........   ..  ........",
"..........     .........",
"........................",
"........         .......",
"........................",
"........................",
"........................",
"........................",
"........................"
};
