/* XPM */
static char *noname[] = {
/* width height ncolors chars_per_pixel */
"24 24 8 1",
/* colors */
"  c #000000",
". c #8A411D",
"X c #803C1B",
"o c #8F431E",
"O c #5C2B13",
"+ c #954620",
"@ c None",
"# c #733618",
/* pixels */
"@@@@@@@@@@@@@@@@@@@@@@@@",
"@@@@@@@@@@@@@@@@@@@@@@@@",
"@@@@@@@@@@@@@@@@@@@@@@@@",
"@@@@@@@@@@@@@@@@@@@@@@@@",
"@@@@@@@@@@@@@@@@@@@@@@@@",
"@@@@@@@@@@@@@@@@@@@@@@@@",
"@@@@@@@@@ @@@@@@@@@@@@@@",
"@@@@@@@@  @@@@@@@@@@@@@@",
"@@@@@@@ oX   @@@@@@@@@@@",
"@@@@@@ .+..X#  @@@@@@@@@",
"@@@@@@@ o.   ## @@@@@@@@",
"@@@@@@@@  @@@ O @@@@@@@@",
"@@@@@@@@@ @@@@ O @@@@@@@",
"@@@@@@@@@@@@@@@  @@@@@@@",
"@@@@@@@@@@@@@@@  @@@@@@@",
"@@@@@@@@@@@@@@@ @@@@@@@@",
"@@@@@@@@@@@@@@ @@@@@@@@@",
"@@@@@@@@@@@@@@@@@@@@@@@@",
"@@@@@@@@@@@@@@@@@@@@@@@@",
"@@@@@@@@@@@@@@@@@@@@@@@@",
"@@@@@@@@@@@@@@@@@@@@@@@@",
"@@@@@@@@@@@@@@@@@@@@@@@@",
"@@@@@@@@@@@@@@@@@@@@@@@@",
"@@@@@@@@@@@@@@@@@@@@@@@@"
};
